<svg width="50" height="50" viewBox="0 0 50 50" fill="none" xmlns="http://www.w3.org/2000/svg">
<path d="M50 30.7708V25.4479L46.0938 24.9104C44.3082 24.7427 42.5163 24.653 40.7229 24.6417C43.725 19.0021 44.8896 14.0542 44.8979 13.9958L45.5479 11.1646L43.1146 9.57917L42.9688 9.48958L40.9021 8.12917L38.7208 9.30208C38.2 9.57917 34.9708 11.3521 31.7292 14.1687C31.1187 8.7 29.7125 4.11875 29.1333 2.64583L28.1 0H22.0292L20.9646 2.55625C20.8396 2.83958 18.3354 8.8875 17.7146 16.0812C14.2812 13.2812 8.46458 10.0667 8.46458 10.0667L4.06875 13.4937L4.49167 15.65C4.93958 17.7646 7.19375 22.9167 7.19375 22.9167C4.85833 22.9167 0 23.7396 0 23.7396V29.2396C0 29.2396 3.90625 32.5521 8.40625 34.9375C8.21875 35.1146 8.08958 35.2458 8.03125 35.3021L6.07917 36.9792L6.65625 39.2167L7.275 41.5917L9.67708 42.2938C10.0271 42.3833 12.2563 42.8312 14.6979 42.8312C16.3378 42.8433 17.971 42.6209 19.5479 42.1708C19.7021 42.1292 19.8562 42.0896 20.0104 42.0417C20.45 44.5562 20.9896 46.5583 21.0854 46.9312L21.9312 50H35.4167C32.7229 47.225 30.875 42.8792 30.875 42.8792C30.8521 42.8542 30.8333 42.8229 30.8125 42.7896C32.4625 43.4896 34.6354 43.75 36.6542 43.7979L39.4938 43.6208L40.6333 41.7562L41.7479 39.8438C41.7479 39.8438 40.7958 37.5896 39.7125 36.6146C42.9208 35.4333 46.7687 33.6833 48.4042 32.1292L50 30.7708ZM36.4583 33.3C35.2458 33.65 31.7292 34.1313 30.4271 34.2938C30.4271 34.2938 35.4583 37.1979 36.2812 39.3708C36.2812 39.3958 36.2958 39.4208 36.2958 39.4458C36.2458 39.4458 36.1979 39.4125 36.15 39.4208C32.2437 39.7208 26.0979 36.2875 25.4 35.6854C25.5458 37.9146 26.3438 43.1229 28.2229 45.7687L28.1667 45.8333H25.1042C25.1042 45.8333 22.8271 39.7292 22.9812 35.4813C21.9167 36.3937 20.6792 37.5646 18.3833 38.175C17.1831 38.5097 15.9418 38.6745 14.6958 38.6646C12.9062 38.6646 11.125 38.3625 10.7104 38.2562L10.6938 38.175C10.6938 38.175 13.6562 35.4417 17.4729 34.5292C17.9271 34.3833 18.3917 34.2292 18.8479 34.2292C17.3167 33.9271 15.7958 33.625 14.1104 33.0167C9.09792 31.1688 4.80208 27.8896 4.39375 27.4812L4.38542 27.3917C4.38542 27.3917 5.98125 27.3104 7.19375 27.3104C9.1625 27.3104 12.3854 27.5396 15.7875 28.7604C16.7083 29.0687 17.6271 29.3708 18.3917 29.825C17.1208 28.7104 10.8083 23.4375 8.93542 15.5021C8.93542 15.5021 18.1 20.2229 22.875 27.775C22.1771 24.4792 21.7521 20.8896 21.7521 19.1729C21.7521 11.45 24.8042 4.16667 24.8042 4.16667H25.2604C25.9771 5.99792 27.8562 12.4917 27.8562 19.1729C27.8562 21.4354 27.2208 26.6854 27.1 27.7021C27.4333 26.8896 28.7104 24.3813 30.4438 21.7437C33.7729 16.675 40.6896 12.9729 40.6896 12.9729L40.8354 13.0687C40.6 14.1104 38.9813 19.9542 35.3438 25.5688C34.4396 26.9688 31.6146 29.6312 31.3729 29.825C31.8042 29.7208 33.2771 29.1417 37.6375 28.8896C40.2666 28.7427 42.9031 28.7914 45.525 29.0354L45.5312 29.1104C44.2542 30.3229 40.1208 32.25 36.4583 33.3Z" fill="#3E5C01"/>
</svg>
