<svg width="35" height="51" viewBox="0 0 35 51" fill="none" xmlns="http://www.w3.org/2000/svg">
<path d="M30.0625 18.7658C29.4165 18.6084 28.7419 18.6106 28.0969 18.772C27.9609 17.785 27.522 16.8646 26.8406 16.1376C26.4285 15.7214 25.9378 15.3911 25.3971 15.1658C24.8564 14.9405 24.2764 14.8247 23.6906 14.8251L23.525 14.8283H23.5031C22.8156 14.8283 22.1594 14.9658 21.5625 15.2158C21.3761 14.6691 21.066 14.1729 20.6562 13.7658C20.1956 13.3249 19.6472 12.9861 19.0469 12.7712C18.4465 12.5564 17.8077 12.4704 17.1719 12.5189H17.1875C18.1179 11.2862 18.662 9.80535 18.7512 8.26351C18.8403 6.72167 18.4705 5.188 17.6884 3.85625C16.9063 2.5245 15.7471 1.45444 14.3571 0.781248C12.9671 0.108056 11.4088 -0.138057 9.87901 0.0740011C8.34922 0.286059 6.9166 0.946775 5.76216 1.97267C4.60771 2.99857 3.78323 4.34362 3.39287 5.83789C3.00252 7.33216 3.06382 8.90861 3.56901 10.3681C4.0742 11.8275 5.00063 13.1045 6.23125 14.0376L6.25 22.3626C4.5875 22.4051 2.9971 23.0504 1.775 24.1783C1.19209e-07 26.1126 0 29.1126 0 32.8626V35.1126C0.0446641 36.7871 0.460909 38.4306 1.21863 39.9244C1.97635 41.4182 3.0566 42.725 4.38125 43.7501L5.5 44.8626C9.375 48.8314 12.9375 50.0189 21.1875 50.0189C30.1875 50.0189 34.375 44.9876 34.375 34.2064V26.3626C34.375 23.9564 33.6875 19.7376 30.0625 18.7689V18.7658ZM31.25 26.1095V34.2033C31.25 44.7345 27.2188 46.8908 21.1875 46.8908C13.0625 46.8908 10.5625 45.672 7.75 42.7345L6.625 41.5783C5.58513 40.8437 4.72848 39.8795 4.1215 38.7604C3.51452 37.6413 3.17353 36.3973 3.125 35.1251V32.8283C2.72271 30.6077 3.04938 28.3166 4.05625 26.297C4.6375 25.8845 5.40312 25.5845 6.2375 25.547L6.24688 27.7345V27.047L5.18437 31.7345C5.15339 31.8043 5.13645 31.8795 5.13452 31.9558C5.1326 32.0321 5.14572 32.108 5.17314 32.1793C5.20056 32.2505 5.24175 32.3157 5.29435 32.371C5.34694 32.4263 5.40992 32.4707 5.47969 32.5017C5.54945 32.5327 5.62464 32.5496 5.70095 32.5516C5.77726 32.5535 5.8532 32.5404 5.92444 32.5129C5.99568 32.4855 6.06082 32.4443 6.11615 32.3917C6.17147 32.3391 6.21589 32.2762 6.24688 32.2064L9.37187 28.422C9.39226 28.3283 9.39226 28.2313 9.37187 28.1376V10.6095L9.36875 10.4876C9.36875 9.68765 9.62813 8.95015 10.0656 8.35015C10.2254 8.18276 10.4197 8.05216 10.635 7.96743C10.8503 7.88271 11.0815 7.84588 11.3125 7.85952H11.3094C11.9656 7.85952 12.4969 8.39077 12.4969 9.04702V21.172C12.4969 21.5864 12.6615 21.9838 12.9545 22.2769C13.2475 22.5699 13.645 22.7345 14.0594 22.7345C14.4738 22.7345 14.8712 22.5699 15.1642 22.2769C15.4573 21.9838 15.6219 21.5864 15.6219 21.172V17.047C15.6298 16.8507 15.677 16.658 15.7606 16.4803C15.8443 16.3026 15.9628 16.1435 16.1091 16.0124C16.2553 15.8813 16.4264 15.7808 16.6122 15.717C16.798 15.6532 16.9947 15.6272 17.1906 15.6408C17.3803 15.6044 17.5757 15.6104 17.7628 15.6583C17.95 15.7062 18.1242 15.7948 18.2731 15.9177C18.4221 16.0407 18.5421 16.195 18.6245 16.3697C18.7069 16.5444 18.7498 16.7351 18.75 16.9283L18.7469 17.0189V21.172C18.7469 21.5864 18.9115 21.9838 19.2045 22.2769C19.4975 22.5699 19.895 22.7345 20.3094 22.7345C20.7238 22.7345 21.1212 22.5699 21.4142 22.2769C21.7073 21.9838 21.8719 21.5864 21.8719 21.172V19.172C21.9269 18.8088 22.1218 18.4816 22.415 18.2602C22.7081 18.0389 23.0763 17.9411 23.4406 17.9876C23.631 17.9665 23.8237 17.9863 24.0058 18.0456C24.188 18.1048 24.3554 18.2023 24.4969 18.3314C24.8094 18.7345 24.9969 19.2501 24.9969 19.8095V22.422C25.0018 22.8353 25.1703 23.2299 25.4655 23.5192C25.7607 23.8085 26.1585 23.9691 26.5719 23.9658C26.9295 23.966 27.2768 23.8459 27.558 23.6249C27.8391 23.4038 28.0377 23.0946 28.1219 22.747C28.1945 22.4171 28.3695 22.1185 28.6219 21.8939C28.7313 21.8443 28.8501 21.8186 28.9703 21.8186C29.0905 21.8186 29.2093 21.8443 29.3188 21.8939C29.9967 22.3342 30.5372 22.9561 30.8787 23.6888C31.2201 24.4215 31.3488 25.2354 31.25 26.0376L31.2531 26.0158L31.25 26.1095Z" fill="#3E5C01"/>
</svg>
