<svg width="48" height="48" viewBox="0 0 48 48" fill="none" xmlns="http://www.w3.org/2000/svg">
<circle cx="24" cy="24" r="24" fill="white"/>
<path d="M22.6875 39.8047V30.6034C21.375 32.1469 18.75 34.0465 13.5787 35.4712C13.5787 35.4712 14.8912 32.0875 18.5925 29.8119C15.18 30.366 10.035 30.2868 3 27.9321C3 27.9321 9.48375 25.142 16.86 25.8939C12.6862 23.9745 7.4625 20.1753 3.44625 12.3195C3.44625 12.3195 15.2587 14.7534 21.1388 22.2728C15.81 12.5768 24 0.229187 24 0.229187C30.3787 11.0531 29.0138 18.2361 26.94 22.1936C32.8463 14.7336 44.5537 12.3195 44.5537 12.3195C40.5375 20.1753 35.3138 23.9745 31.14 25.8939C38.5163 25.142 45 27.9321 45 27.9321C37.965 30.2868 32.82 30.366 29.4075 29.8119C33.1088 32.0875 34.4213 35.4712 34.4213 35.4712C29.25 34.0465 26.625 32.1469 25.3125 30.6034V39.8047H22.6875Z" fill="#3E5C01"/>
</svg>
