<svg width="26" height="26" viewBox="0 0 26 26" fill="none" xmlns="http://www.w3.org/2000/svg">
<path fill-rule="evenodd" clip-rule="evenodd" d="M13 0.5C9.605 0.5 9.18 0.515 7.84625 0.575C6.51625 0.63625 5.6075 0.8475 4.8125 1.15625C3.97811 1.46981 3.22219 1.96166 2.5975 2.5975C1.9617 3.22222 1.46984 3.97813 1.15625 4.8125C0.8475 5.6075 0.63625 6.51625 0.575 7.84625C0.51375 9.18 0.5 9.605 0.5 13C0.5 16.395 0.51375 16.82 0.575 18.1537C0.63625 19.4837 0.8475 20.3925 1.15625 21.1875C1.46988 22.0219 1.96173 22.7778 2.5975 23.4025C3.22224 24.0383 3.97814 24.5301 4.8125 24.8438C5.6075 25.1525 6.51625 25.3638 7.84625 25.425C9.18 25.485 9.605 25.5 13 25.5C16.395 25.5 16.82 25.485 18.1537 25.425C19.4837 25.3638 20.3925 25.1525 21.1875 24.8438C22.0219 24.5302 22.7778 24.0383 23.4025 23.4025C24.0383 22.7778 24.5302 22.0219 24.8438 21.1875C25.1525 20.3925 25.3638 19.4837 25.425 18.1537C25.485 16.82 25.5 16.395 25.5 13C25.5 9.605 25.485 9.18 25.425 7.84625C25.3638 6.51625 25.1525 5.6075 24.8438 4.8125C24.5302 3.97813 24.0383 3.22222 23.4025 2.5975C22.7778 1.96166 22.0219 1.46981 21.1875 1.15625C20.3925 0.8475 19.4837 0.63625 18.1537 0.575C16.82 0.515 16.395 0.5 13 0.5ZM13 2.7525C16.3375 2.7525 16.7325 2.765 18.05 2.825C19.27 2.88125 19.9313 3.08375 20.3725 3.255C20.955 3.4825 21.3725 3.75375 21.81 4.19C22.2475 4.6275 22.5175 5.045 22.745 5.6275C22.915 6.06875 23.12 6.73 23.175 7.94875C23.235 9.2675 23.2475 9.66125 23.2475 13C23.2475 16.3375 23.235 16.7325 23.175 18.05C23.1187 19.27 22.915 19.9313 22.745 20.3725C22.5446 20.9155 22.2251 21.4067 21.81 21.81C21.3725 22.2475 20.955 22.5175 20.3725 22.745C19.9313 22.915 19.27 23.12 18.0513 23.175C16.7338 23.235 16.3387 23.2475 13 23.2475C9.6625 23.2475 9.26625 23.235 7.95 23.175C6.73 23.1187 6.06875 22.915 5.6275 22.745C5.08448 22.5447 4.59327 22.2252 4.19 21.81C3.77482 21.4067 3.45532 20.9155 3.255 20.3725C3.08375 19.9313 2.88 19.27 2.825 18.0513C2.765 16.7325 2.7525 16.3387 2.7525 13C2.7525 9.6625 2.765 9.2675 2.825 7.95C2.88125 6.73 3.08375 6.06875 3.255 5.6275C3.4825 5.045 3.75375 4.6275 4.19 4.19C4.6275 3.7525 5.045 3.4825 5.6275 3.255C6.06875 3.08375 6.73 2.88 7.94875 2.825C9.2675 2.765 9.66125 2.7525 13 2.7525ZM13 17.1663C11.895 17.1663 10.8353 16.7273 10.054 15.946C9.27269 15.1647 8.83375 14.105 8.83375 13C8.83375 11.895 9.27269 10.8353 10.054 10.054C10.8353 9.27269 11.895 8.83375 13 8.83375C14.105 8.83375 15.1647 9.27269 15.946 10.054C16.7273 10.8353 17.1663 11.895 17.1663 13C17.1663 14.105 16.7273 15.1647 15.946 15.946C15.1647 16.7273 14.105 17.1663 13 17.1663ZM13 6.58125C12.1571 6.58125 11.3224 6.74728 10.5437 7.06985C9.76489 7.39242 9.05729 7.86522 8.46126 8.46126C7.86522 9.05729 7.39242 9.76489 7.06985 10.5437C6.74728 11.3224 6.58125 12.1571 6.58125 13C6.58125 13.8429 6.74728 14.6776 7.06985 15.4563C7.39242 16.2351 7.86522 16.9427 8.46126 17.5387C9.05729 18.1348 9.76489 18.6076 10.5437 18.9302C11.3224 19.2527 12.1571 19.4188 13 19.4188C14.7024 19.4188 16.335 18.7425 17.5387 17.5387C18.7425 16.335 19.4188 14.7024 19.4188 13C19.4188 11.2976 18.7425 9.66501 17.5387 8.46126C16.335 7.25751 14.7024 6.58125 13 6.58125ZM21.1725 6.3275C21.1725 6.52448 21.1337 6.71954 21.0583 6.90153C20.9829 7.08351 20.8724 7.24887 20.7332 7.38816C20.5939 7.52745 20.4285 7.63794 20.2465 7.71332C20.0645 7.7887 19.8695 7.8275 19.6725 7.8275C19.4755 7.8275 19.2805 7.7887 19.0985 7.71332C18.9165 7.63794 18.7511 7.52745 18.6118 7.38816C18.4726 7.24887 18.3621 7.08351 18.2867 6.90153C18.2113 6.71954 18.1725 6.52448 18.1725 6.3275C18.1725 5.92968 18.3305 5.54814 18.6118 5.26684C18.8931 4.98554 19.2747 4.8275 19.6725 4.8275C20.0703 4.8275 20.4519 4.98554 20.7332 5.26684C21.0145 5.54814 21.1725 5.92968 21.1725 6.3275Z" fill="#3E5C01" fill-opacity="0.4"/>
</svg>
