<svg width="375" height="812" viewBox="0 0 375 812" fill="none" xmlns="http://www.w3.org/2000/svg">
<rect width="375" height="812" rx="30" fill="black"/>
<rect x="16" y="26" width="342" height="760" rx="10" fill="white"/>
<rect x="17" y="26" width="342" height="760" rx="10" fill="white"/>
<path d="M117.782 310.64C115.19 313.04 112.198 314.24 108.806 314.24C106.566 314.24 104.454 313.824 102.47 312.992C100.486 312.128 98.7418 310.928 97.2378 309.392C95.7658 307.856 94.5978 306.016 93.7338 303.872C92.8698 301.696 92.4378 299.312 92.4378 296.72C92.4378 294.384 92.8698 292.176 93.7338 290.096C94.5978 288.016 95.7818 286.208 97.2858 284.672C98.8218 283.136 100.63 281.92 102.71 281.024C104.79 280.128 107.03 279.68 109.43 279.68C112.598 279.68 115.366 280.352 117.734 281.696C120.102 283.008 121.878 284.816 123.062 287.12L117.206 291.536C116.438 290 115.318 288.816 113.846 287.984C112.406 287.12 110.838 286.688 109.142 286.688C107.83 286.688 106.63 286.96 105.542 287.504C104.486 288.016 103.574 288.752 102.806 289.712C102.038 290.64 101.446 291.728 101.03 292.976C100.614 294.224 100.406 295.568 100.406 297.008C100.406 298.48 100.63 299.84 101.078 301.088C101.526 302.336 102.15 303.424 102.95 304.352C103.75 305.248 104.694 305.952 105.782 306.464C106.902 306.976 108.134 307.232 109.478 307.232C112.55 307.232 115.318 305.808 117.782 302.96V301.904H111.158V296.192H124.31V314H117.782V310.64ZM153.466 307.088V314H129.514V279.92H153.034V286.832H137.386V293.456H150.826V299.84H137.386V307.088H153.466ZM184.216 286.832H173.848V314H165.976V286.832H155.56V279.92H184.216V286.832ZM197.905 314V279.92H205.777V307.088H222.289V314H197.905ZM225.983 314V279.92H233.855V314H225.983ZM266.341 286.832H255.973V314H248.101V286.832H237.685V279.92H266.341V286.832ZM271.05 300.464V279.584H278.73V300.464H271.05ZM271.05 314V306.032H278.73V314H271.05Z" fill="#3E5C01"/>
<circle cx="187" cy="193" r="50" fill="#3E5C01"/>
<rect x="57.25" y="424.25" width="261.5" height="40.5" rx="3.75" fill="white" stroke="#3E5C01" stroke-width="0.5"/>
<rect x="57.25" y="497.25" width="261.5" height="40.5" rx="3.75" fill="white" stroke="#3E5C01" stroke-width="0.5"/>
<rect x="101" y="571" width="173" height="41" rx="4" fill="#3E5C01"/>
<path d="M165.223 597V585.64H167.431V595.064H173.223V597H165.223ZM177.887 597.16C177.204 597.16 176.591 597.043 176.047 596.808C175.503 596.573 175.039 596.259 174.655 595.864C174.282 595.459 173.994 594.995 173.791 594.472C173.588 593.949 173.487 593.4 173.487 592.824C173.487 592.237 173.588 591.683 173.791 591.16C173.994 590.637 174.282 590.179 174.655 589.784C175.039 589.379 175.503 589.059 176.047 588.824C176.591 588.589 177.204 588.472 177.887 588.472C178.57 588.472 179.178 588.589 179.711 588.824C180.255 589.059 180.714 589.379 181.087 589.784C181.471 590.179 181.764 590.637 181.967 591.16C182.17 591.683 182.271 592.237 182.271 592.824C182.271 593.4 182.17 593.949 181.967 594.472C181.764 594.995 181.476 595.459 181.103 595.864C180.73 596.259 180.271 596.573 179.727 596.808C179.183 597.043 178.57 597.16 177.887 597.16ZM175.695 592.824C175.695 593.197 175.748 593.539 175.855 593.848C175.972 594.147 176.127 594.408 176.319 594.632C176.522 594.856 176.756 595.032 177.023 595.16C177.29 595.277 177.578 595.336 177.887 595.336C178.196 595.336 178.484 595.277 178.751 595.16C179.018 595.032 179.247 594.856 179.439 594.632C179.642 594.408 179.796 594.141 179.903 593.832C180.02 593.523 180.079 593.181 180.079 592.808C180.079 592.445 180.02 592.109 179.903 591.8C179.796 591.491 179.642 591.224 179.439 591C179.247 590.776 179.018 590.605 178.751 590.488C178.484 590.36 178.196 590.296 177.887 590.296C177.578 590.296 177.29 590.36 177.023 590.488C176.756 590.616 176.522 590.792 176.319 591.016C176.127 591.24 175.972 591.507 175.855 591.816C175.748 592.125 175.695 592.461 175.695 592.824ZM186.998 597.048C186.433 597.048 185.921 596.936 185.462 596.712C185.004 596.488 184.604 596.184 184.262 595.8C183.932 595.405 183.676 594.952 183.494 594.44C183.313 593.928 183.222 593.384 183.222 592.808C183.222 592.2 183.318 591.635 183.51 591.112C183.702 590.589 183.969 590.131 184.31 589.736C184.652 589.341 185.062 589.032 185.542 588.808C186.022 588.584 186.55 588.472 187.126 588.472C187.777 588.472 188.348 588.621 188.838 588.92C189.329 589.208 189.734 589.597 190.054 590.088V588.616H191.926V596.6C191.926 597.219 191.809 597.773 191.574 598.264C191.34 598.755 191.014 599.171 190.598 599.512C190.193 599.853 189.702 600.115 189.126 600.296C188.561 600.477 187.942 600.568 187.27 600.568C186.353 600.568 185.58 600.413 184.95 600.104C184.332 599.805 183.798 599.379 183.35 598.824L184.518 597.688C184.838 598.083 185.238 598.392 185.718 598.616C186.209 598.84 186.726 598.952 187.27 598.952C187.601 598.952 187.916 598.904 188.214 598.808C188.524 598.723 188.796 598.584 189.03 598.392C189.265 598.2 189.446 597.955 189.574 597.656C189.713 597.357 189.782 597.005 189.782 596.6V595.544C189.505 596.024 189.116 596.397 188.614 596.664C188.113 596.92 187.574 597.048 186.998 597.048ZM187.718 595.336C187.953 595.336 188.177 595.299 188.39 595.224C188.604 595.149 188.801 595.048 188.982 594.92C189.164 594.792 189.324 594.643 189.462 594.472C189.601 594.301 189.708 594.12 189.782 593.928V591.928C189.59 591.437 189.286 591.043 188.87 590.744C188.465 590.445 188.038 590.296 187.59 590.296C187.26 590.296 186.961 590.371 186.694 590.52C186.428 590.659 186.198 590.851 186.006 591.096C185.814 591.331 185.665 591.603 185.558 591.912C185.462 592.221 185.414 592.541 185.414 592.872C185.414 593.213 185.473 593.533 185.59 593.832C185.708 594.131 185.868 594.392 186.07 594.616C186.284 594.84 186.529 595.016 186.806 595.144C187.084 595.272 187.388 595.336 187.718 595.336ZM197.911 597V585.64H200.119V597H197.911ZM210.073 597H207.929V592.296C207.929 591.624 207.811 591.133 207.577 590.824C207.342 590.515 207.017 590.36 206.601 590.36C206.387 590.36 206.169 590.403 205.945 590.488C205.721 590.573 205.507 590.696 205.305 590.856C205.113 591.005 204.937 591.187 204.777 591.4C204.617 591.613 204.499 591.848 204.425 592.104V597H202.281V588.616H204.217V590.168C204.526 589.635 204.974 589.219 205.561 588.92C206.147 588.621 206.809 588.472 207.545 588.472C208.067 588.472 208.494 588.568 208.825 588.76C209.155 588.952 209.411 589.203 209.593 589.512C209.774 589.821 209.897 590.173 209.961 590.568C210.035 590.963 210.073 591.363 210.073 591.768V597Z" fill="white"/>
<path d="M79.0951 449.008V450H71.4631V438.64H78.9511V439.632H72.5831V443.728H78.1351V444.672H72.5831V449.008H79.0951ZM87.9033 450H86.8153V445.344C86.8153 444.352 86.666 443.632 86.3673 443.184C86.0793 442.736 85.6313 442.512 85.0233 442.512C84.7033 442.512 84.3833 442.571 84.0633 442.688C83.7433 442.805 83.4446 442.971 83.1673 443.184C82.9006 443.397 82.6606 443.653 82.4473 443.952C82.234 444.24 82.0793 444.555 81.9833 444.896V450H80.8953V441.664H81.8873V443.552C82.2286 442.944 82.714 442.453 83.3433 442.08C83.9833 441.707 84.6766 441.52 85.4233 441.52C85.882 441.52 86.2713 441.605 86.5913 441.776C86.9113 441.947 87.1673 442.187 87.3593 442.496C87.5513 442.805 87.69 443.184 87.7753 443.632C87.8606 444.08 87.9033 444.576 87.9033 445.12V450ZM94.1453 449.6C94.0813 449.632 93.9853 449.675 93.8573 449.728C93.74 449.781 93.6013 449.835 93.4413 449.888C93.2813 449.941 93.1 449.989 92.8973 450.032C92.6946 450.075 92.4813 450.096 92.2573 450.096C92.0226 450.096 91.7986 450.064 91.5853 450C91.372 449.936 91.1853 449.84 91.0253 449.712C90.8653 449.573 90.7373 449.403 90.6413 449.2C90.5453 448.997 90.4973 448.763 90.4973 448.496V442.528H89.3453V441.664H90.4973V438.848H91.5853V441.664H93.5053V442.528H91.5853V448.192C91.6066 448.501 91.7133 448.731 91.9053 448.88C92.108 449.019 92.3373 449.088 92.5933 449.088C92.9026 449.088 93.1746 449.04 93.4093 448.944C93.644 448.837 93.7933 448.763 93.8573 448.72L94.1453 449.6ZM98.9016 450.16C98.2936 450.16 97.7336 450.048 97.2216 449.824C96.7202 449.589 96.2829 449.275 95.9096 448.88C95.5362 448.475 95.2429 448.011 95.0296 447.488C94.8269 446.965 94.7256 446.405 94.7256 445.808C94.7256 445.221 94.8269 444.672 95.0296 444.16C95.2429 443.637 95.5309 443.184 95.8936 442.8C96.2669 442.405 96.7096 442.096 97.2216 441.872C97.7336 441.637 98.2882 441.52 98.8856 441.52C99.4936 441.52 100.048 441.637 100.55 441.872C101.062 442.096 101.499 442.405 101.862 442.8C102.224 443.195 102.507 443.648 102.71 444.16C102.912 444.672 103.014 445.216 103.014 445.792C103.014 445.877 103.014 445.963 103.014 446.048C103.014 446.133 103.008 446.192 102.998 446.224H95.8616C95.8936 446.672 95.9949 447.088 96.1656 447.472C96.3469 447.845 96.5762 448.171 96.8536 448.448C97.1309 448.725 97.4456 448.944 97.7976 449.104C98.1602 449.253 98.5442 449.328 98.9496 449.328C99.2162 449.328 99.4829 449.291 99.7496 449.216C100.016 449.141 100.262 449.04 100.486 448.912C100.71 448.784 100.912 448.629 101.094 448.448C101.275 448.256 101.414 448.048 101.51 447.824L102.454 448.08C102.326 448.389 102.144 448.672 101.91 448.928C101.675 449.173 101.403 449.392 101.094 449.584C100.784 449.765 100.443 449.904 100.07 450C99.6962 450.107 99.3069 450.16 98.9016 450.16ZM101.974 445.392C101.942 444.944 101.835 444.539 101.654 444.176C101.483 443.803 101.259 443.483 100.982 443.216C100.715 442.949 100.4 442.741 100.038 442.592C99.6856 442.443 99.3069 442.368 98.9016 442.368C98.4962 442.368 98.1122 442.443 97.7496 442.592C97.3869 442.741 97.0669 442.949 96.7896 443.216C96.5229 443.483 96.3042 443.803 96.1336 444.176C95.9736 444.549 95.8776 444.955 95.8456 445.392H101.974ZM108.852 442.624C108.116 442.645 107.476 442.848 106.932 443.232C106.388 443.616 106.004 444.144 105.78 444.816V450H104.692V441.664H105.716V443.664C106.026 443.024 106.442 442.523 106.964 442.16C107.487 441.797 108.047 441.616 108.644 441.616C108.73 441.616 108.799 441.621 108.852 441.632V442.624ZM114.016 452.56C114.101 452.571 114.181 452.576 114.256 452.576C114.341 452.587 114.421 452.592 114.496 452.592C114.688 452.592 114.837 452.565 114.944 452.512C115.061 452.459 115.173 452.341 115.28 452.16C115.387 451.979 115.504 451.717 115.632 451.376C115.771 451.035 115.963 450.576 116.208 450L112.576 441.664H113.696L116.784 448.992L119.648 441.664H120.688L116.368 452.416C116.251 452.725 116.053 452.992 115.776 453.216C115.509 453.451 115.141 453.568 114.672 453.568C114.565 453.568 114.464 453.563 114.368 453.552C114.272 453.552 114.155 453.541 114.016 453.52V452.56ZM125.479 450.16C124.871 450.16 124.316 450.048 123.815 449.824C123.313 449.589 122.876 449.275 122.503 448.88C122.14 448.485 121.857 448.027 121.655 447.504C121.452 446.981 121.351 446.432 121.351 445.856C121.351 445.269 121.452 444.715 121.655 444.192C121.868 443.669 122.156 443.211 122.519 442.816C122.892 442.421 123.329 442.107 123.831 441.872C124.332 441.637 124.881 441.52 125.479 441.52C126.076 441.52 126.625 441.637 127.127 441.872C127.639 442.107 128.076 442.421 128.439 442.816C128.812 443.211 129.1 443.669 129.303 444.192C129.516 444.715 129.623 445.269 129.623 445.856C129.623 446.432 129.521 446.981 129.319 447.504C129.116 448.027 128.828 448.485 128.455 448.88C128.092 449.275 127.655 449.589 127.143 449.824C126.641 450.048 126.087 450.16 125.479 450.16ZM122.455 445.872C122.455 446.341 122.535 446.779 122.695 447.184C122.855 447.579 123.068 447.931 123.335 448.24C123.612 448.539 123.932 448.773 124.295 448.944C124.668 449.115 125.063 449.2 125.479 449.2C125.895 449.2 126.284 449.115 126.647 448.944C127.02 448.763 127.345 448.523 127.623 448.224C127.9 447.915 128.119 447.557 128.279 447.152C128.439 446.747 128.519 446.309 128.519 445.84C128.519 445.381 128.439 444.949 128.279 444.544C128.119 444.128 127.9 443.771 127.623 443.472C127.345 443.163 127.02 442.923 126.647 442.752C126.284 442.571 125.895 442.48 125.479 442.48C125.063 442.48 124.673 442.571 124.311 442.752C123.948 442.923 123.628 443.163 123.351 443.472C123.073 443.781 122.855 444.144 122.695 444.56C122.535 444.965 122.455 445.403 122.455 445.872ZM134.05 450.16C133.144 450.16 132.466 449.861 132.018 449.264C131.581 448.656 131.362 447.755 131.362 446.56V441.664H132.45V446.368C132.45 448.256 133.096 449.2 134.386 449.2C134.706 449.2 135.021 449.147 135.33 449.04C135.64 448.933 135.922 448.779 136.178 448.576C136.445 448.373 136.68 448.133 136.882 447.856C137.096 447.579 137.266 447.264 137.394 446.912V441.664H138.482V448.592C138.482 448.891 138.61 449.04 138.866 449.04V450C138.738 450.021 138.632 450.032 138.546 450.032C138.472 450.032 138.418 450.032 138.386 450.032C138.13 450.021 137.922 449.931 137.762 449.76C137.602 449.589 137.522 449.36 137.522 449.072V448.112C137.16 448.763 136.664 449.269 136.034 449.632C135.416 449.984 134.754 450.16 134.05 450.16ZM145.102 442.624C144.366 442.645 143.726 442.848 143.182 443.232C142.638 443.616 142.254 444.144 142.03 444.816V450H140.942V441.664H141.966V443.664C142.276 443.024 142.692 442.523 143.214 442.16C143.737 441.797 144.297 441.616 144.894 441.616C144.98 441.616 145.049 441.621 145.102 441.632V442.624ZM158.095 449.008V450H150.463V438.64H157.951V439.632H151.583V443.728H157.135V444.672H151.583V449.008H158.095ZM172.295 450H171.207V445.344C171.207 444.373 171.053 443.659 170.743 443.2C170.434 442.741 169.975 442.512 169.367 442.512C169.047 442.512 168.743 442.571 168.455 442.688C168.178 442.805 167.917 442.971 167.671 443.184C167.437 443.397 167.229 443.653 167.047 443.952C166.866 444.24 166.727 444.56 166.631 444.912V450H165.543V445.344C165.543 444.352 165.394 443.632 165.095 443.184C164.797 442.736 164.338 442.512 163.719 442.512C163.09 442.512 162.53 442.731 162.039 443.168C161.549 443.605 161.197 444.181 160.983 444.896V450H159.895V441.664H160.887V443.552C161.229 442.912 161.677 442.416 162.231 442.064C162.786 441.701 163.399 441.52 164.071 441.52C164.775 441.52 165.335 441.717 165.751 442.112C166.178 442.507 166.439 443.024 166.535 443.664C167.314 442.235 168.386 441.52 169.751 441.52C170.221 441.52 170.615 441.605 170.935 441.776C171.266 441.947 171.527 442.192 171.719 442.512C171.922 442.821 172.066 443.2 172.151 443.648C172.247 444.085 172.295 444.576 172.295 445.12V450ZM176.694 450.16C176.3 450.16 175.932 450.096 175.59 449.968C175.26 449.829 174.966 449.643 174.71 449.408C174.465 449.173 174.273 448.901 174.134 448.592C173.996 448.272 173.926 447.931 173.926 447.568C173.926 447.205 174.012 446.869 174.182 446.56C174.353 446.251 174.593 445.984 174.902 445.76C175.212 445.536 175.58 445.365 176.006 445.248C176.433 445.12 176.902 445.056 177.414 445.056C177.841 445.056 178.273 445.093 178.71 445.168C179.148 445.243 179.537 445.349 179.878 445.488V444.736C179.878 444 179.67 443.419 179.254 442.992C178.838 442.555 178.262 442.336 177.526 442.336C177.1 442.336 176.662 442.421 176.214 442.592C175.766 442.763 175.313 443.008 174.854 443.328L174.47 442.608C175.548 441.883 176.593 441.52 177.606 441.52C178.652 441.52 179.473 441.813 180.07 442.4C180.668 442.987 180.966 443.797 180.966 444.832V448.592C180.966 448.891 181.1 449.04 181.366 449.04V450C181.185 450.032 181.046 450.048 180.95 450.048C180.673 450.048 180.454 449.979 180.294 449.84C180.145 449.701 180.065 449.509 180.054 449.264L180.022 448.608C179.638 449.109 179.153 449.493 178.566 449.76C177.99 450.027 177.366 450.16 176.694 450.16ZM176.95 449.328C177.516 449.328 178.033 449.221 178.502 449.008C178.982 448.795 179.345 448.512 179.59 448.16C179.686 448.064 179.756 447.963 179.798 447.856C179.852 447.739 179.878 447.632 179.878 447.536V446.176C179.516 446.037 179.137 445.931 178.742 445.856C178.358 445.781 177.964 445.744 177.558 445.744C176.79 445.744 176.166 445.904 175.686 446.224C175.206 446.544 174.966 446.965 174.966 447.488C174.966 447.744 175.014 447.984 175.11 448.208C175.217 448.432 175.356 448.629 175.526 448.8C175.708 448.96 175.921 449.088 176.166 449.184C176.412 449.28 176.673 449.328 176.95 449.328ZM183.317 450V441.664H184.405V450H183.317ZM183.317 439.92V438.32H184.405V439.92H183.317ZM186.85 438.32H187.938V448.112C187.938 448.421 188.023 448.667 188.194 448.848C188.364 449.019 188.604 449.104 188.914 449.104C189.031 449.104 189.17 449.088 189.33 449.056C189.49 449.024 189.639 448.981 189.778 448.928L189.97 449.808C189.767 449.893 189.516 449.963 189.218 450.016C188.93 450.069 188.679 450.096 188.466 450.096C187.964 450.096 187.57 449.957 187.282 449.68C186.994 449.392 186.85 448.992 186.85 448.48V438.32Z" fill="#3E5C01" fill-opacity="0.4"/>
<path d="M71.6599 511.64L75.3719 517.752L79.1159 511.64H80.3319L75.9319 518.776V523H74.8119V518.744L70.4279 511.64H71.6599ZM83.8614 523.16C83.2534 523.16 82.6987 523.048 82.1974 522.824C81.696 522.589 81.2587 522.275 80.8854 521.88C80.5227 521.485 80.24 521.027 80.0374 520.504C79.8347 519.981 79.7334 519.432 79.7334 518.856C79.7334 518.269 79.8347 517.715 80.0374 517.192C80.2507 516.669 80.5387 516.211 80.9014 515.816C81.2747 515.421 81.712 515.107 82.2134 514.872C82.7147 514.637 83.264 514.52 83.8614 514.52C84.4587 514.52 85.008 514.637 85.5094 514.872C86.0214 515.107 86.4587 515.421 86.8214 515.816C87.1947 516.211 87.4827 516.669 87.6854 517.192C87.8987 517.715 88.0054 518.269 88.0054 518.856C88.0054 519.432 87.904 519.981 87.7014 520.504C87.4987 521.027 87.2107 521.485 86.8374 521.88C86.4747 522.275 86.0374 522.589 85.5254 522.824C85.024 523.048 84.4694 523.16 83.8614 523.16ZM80.8374 518.872C80.8374 519.341 80.9174 519.779 81.0774 520.184C81.2374 520.579 81.4507 520.931 81.7174 521.24C81.9947 521.539 82.3147 521.773 82.6774 521.944C83.0507 522.115 83.4454 522.2 83.8614 522.2C84.2774 522.2 84.6667 522.115 85.0294 521.944C85.4027 521.763 85.728 521.523 86.0054 521.224C86.2827 520.915 86.5014 520.557 86.6614 520.152C86.8214 519.747 86.9014 519.309 86.9014 518.84C86.9014 518.381 86.8214 517.949 86.6614 517.544C86.5014 517.128 86.2827 516.771 86.0054 516.472C85.728 516.163 85.4027 515.923 85.0294 515.752C84.6667 515.571 84.2774 515.48 83.8614 515.48C83.4454 515.48 83.056 515.571 82.6934 515.752C82.3307 515.923 82.0107 516.163 81.7334 516.472C81.456 516.781 81.2374 517.144 81.0774 517.56C80.9174 517.965 80.8374 518.403 80.8374 518.872ZM92.433 523.16C91.5263 523.16 90.849 522.861 90.401 522.264C89.9637 521.656 89.745 520.755 89.745 519.56V514.664H90.833V519.368C90.833 521.256 91.4783 522.2 92.769 522.2C93.089 522.2 93.4037 522.147 93.713 522.04C94.0223 521.933 94.305 521.779 94.561 521.576C94.8277 521.373 95.0623 521.133 95.265 520.856C95.4783 520.579 95.649 520.264 95.777 519.912V514.664H96.865V521.592C96.865 521.891 96.993 522.04 97.249 522.04V523C97.121 523.021 97.0143 523.032 96.929 523.032C96.8543 523.032 96.801 523.032 96.769 523.032C96.513 523.021 96.305 522.931 96.145 522.76C95.985 522.589 95.905 522.36 95.905 522.072V521.112C95.5423 521.763 95.0463 522.269 94.417 522.632C93.7983 522.984 93.137 523.16 92.433 523.16ZM103.485 515.624C102.749 515.645 102.109 515.848 101.565 516.232C101.021 516.616 100.637 517.144 100.413 517.816V523H99.325V514.664H100.349V516.664C100.658 516.024 101.074 515.523 101.597 515.16C102.12 514.797 102.68 514.616 103.277 514.616C103.362 514.616 103.432 514.621 103.485 514.632V515.624ZM108.846 523V511.64H113.55C114.041 511.64 114.489 511.747 114.894 511.96C115.31 512.163 115.667 512.435 115.966 512.776C116.265 513.107 116.499 513.485 116.67 513.912C116.841 514.339 116.926 514.771 116.926 515.208C116.926 515.677 116.846 516.131 116.686 516.568C116.526 516.995 116.302 517.373 116.014 517.704C115.726 518.035 115.379 518.301 114.974 518.504C114.579 518.707 114.137 518.808 113.646 518.808H109.966V523H108.846ZM109.966 517.816H113.598C113.929 517.816 114.227 517.747 114.494 517.608C114.771 517.459 115.006 517.267 115.198 517.032C115.39 516.787 115.539 516.509 115.646 516.2C115.753 515.88 115.806 515.549 115.806 515.208C115.806 514.856 115.742 514.525 115.614 514.216C115.497 513.896 115.331 513.619 115.118 513.384C114.915 513.149 114.67 512.968 114.382 512.84C114.105 512.701 113.811 512.632 113.502 512.632H109.966V517.816ZM120.593 523.16C120.198 523.16 119.83 523.096 119.489 522.968C119.158 522.829 118.865 522.643 118.609 522.408C118.364 522.173 118.172 521.901 118.033 521.592C117.894 521.272 117.825 520.931 117.825 520.568C117.825 520.205 117.91 519.869 118.081 519.56C118.252 519.251 118.492 518.984 118.801 518.76C119.11 518.536 119.478 518.365 119.905 518.248C120.332 518.12 120.801 518.056 121.313 518.056C121.74 518.056 122.172 518.093 122.609 518.168C123.046 518.243 123.436 518.349 123.777 518.488V517.736C123.777 517 123.569 516.419 123.153 515.992C122.737 515.555 122.161 515.336 121.425 515.336C120.998 515.336 120.561 515.421 120.113 515.592C119.665 515.763 119.212 516.008 118.753 516.328L118.369 515.608C119.446 514.883 120.492 514.52 121.505 514.52C122.55 514.52 123.372 514.813 123.969 515.4C124.566 515.987 124.865 516.797 124.865 517.832V521.592C124.865 521.891 124.998 522.04 125.265 522.04V523C125.084 523.032 124.945 523.048 124.849 523.048C124.572 523.048 124.353 522.979 124.193 522.84C124.044 522.701 123.964 522.509 123.953 522.264L123.921 521.608C123.537 522.109 123.052 522.493 122.465 522.76C121.889 523.027 121.265 523.16 120.593 523.16ZM120.849 522.328C121.414 522.328 121.932 522.221 122.401 522.008C122.881 521.795 123.244 521.512 123.489 521.16C123.585 521.064 123.654 520.963 123.697 520.856C123.75 520.739 123.777 520.632 123.777 520.536V519.176C123.414 519.037 123.036 518.931 122.641 518.856C122.257 518.781 121.862 518.744 121.457 518.744C120.689 518.744 120.065 518.904 119.585 519.224C119.105 519.544 118.865 519.965 118.865 520.488C118.865 520.744 118.913 520.984 119.009 521.208C119.116 521.432 119.254 521.629 119.425 521.8C119.606 521.96 119.82 522.088 120.065 522.184C120.31 522.28 120.572 522.328 120.849 522.328ZM129.984 523.16C129.333 523.16 128.698 523.053 128.08 522.84C127.461 522.627 126.928 522.317 126.48 521.912L126.976 521.176C127.445 521.56 127.92 521.848 128.4 522.04C128.89 522.232 129.413 522.328 129.968 522.328C130.64 522.328 131.173 522.195 131.568 521.928C131.973 521.651 132.176 521.261 132.176 520.76C132.176 520.525 132.122 520.333 132.016 520.184C131.909 520.024 131.749 519.885 131.536 519.768C131.333 519.651 131.072 519.549 130.752 519.464C130.442 519.368 130.08 519.272 129.664 519.176C129.184 519.059 128.768 518.941 128.416 518.824C128.064 518.707 127.77 518.573 127.536 518.424C127.312 518.275 127.141 518.093 127.024 517.88C126.917 517.656 126.864 517.379 126.864 517.048C126.864 516.632 126.944 516.264 127.104 515.944C127.274 515.624 127.498 515.363 127.776 515.16C128.064 514.947 128.394 514.787 128.768 514.68C129.152 514.573 129.557 514.52 129.984 514.52C130.624 514.52 131.205 514.627 131.728 514.84C132.25 515.043 132.672 515.315 132.992 515.656L132.464 516.296C132.154 515.976 131.776 515.736 131.328 515.576C130.89 515.416 130.432 515.336 129.952 515.336C129.664 515.336 129.397 515.368 129.152 515.432C128.906 515.485 128.688 515.576 128.496 515.704C128.314 515.832 128.17 515.997 128.064 516.2C127.957 516.392 127.904 516.621 127.904 516.888C127.904 517.112 127.941 517.293 128.016 517.432C128.09 517.571 128.213 517.693 128.384 517.8C128.554 517.896 128.768 517.987 129.024 518.072C129.29 518.147 129.61 518.227 129.984 518.312C130.517 518.44 130.986 518.568 131.392 518.696C131.797 518.824 132.133 518.973 132.4 519.144C132.677 519.315 132.885 519.523 133.024 519.768C133.162 520.013 133.232 520.312 133.232 520.664C133.232 521.432 132.938 522.04 132.352 522.488C131.765 522.936 130.976 523.16 129.984 523.16ZM137.781 523.16C137.13 523.16 136.495 523.053 135.877 522.84C135.258 522.627 134.725 522.317 134.277 521.912L134.773 521.176C135.242 521.56 135.717 521.848 136.197 522.04C136.687 522.232 137.21 522.328 137.765 522.328C138.437 522.328 138.97 522.195 139.365 521.928C139.77 521.651 139.973 521.261 139.973 520.76C139.973 520.525 139.919 520.333 139.813 520.184C139.706 520.024 139.546 519.885 139.333 519.768C139.13 519.651 138.869 519.549 138.549 519.464C138.239 519.368 137.877 519.272 137.461 519.176C136.981 519.059 136.565 518.941 136.213 518.824C135.861 518.707 135.567 518.573 135.333 518.424C135.109 518.275 134.938 518.093 134.821 517.88C134.714 517.656 134.661 517.379 134.661 517.048C134.661 516.632 134.741 516.264 134.901 515.944C135.071 515.624 135.295 515.363 135.573 515.16C135.861 514.947 136.191 514.787 136.565 514.68C136.949 514.573 137.354 514.52 137.781 514.52C138.421 514.52 139.002 514.627 139.525 514.84C140.047 515.043 140.469 515.315 140.789 515.656L140.261 516.296C139.951 515.976 139.573 515.736 139.125 515.576C138.687 515.416 138.229 515.336 137.749 515.336C137.461 515.336 137.194 515.368 136.949 515.432C136.703 515.485 136.485 515.576 136.293 515.704C136.111 515.832 135.967 515.997 135.861 516.2C135.754 516.392 135.701 516.621 135.701 516.888C135.701 517.112 135.738 517.293 135.812 517.432C135.887 517.571 136.01 517.693 136.181 517.8C136.351 517.896 136.565 517.987 136.821 518.072C137.087 518.147 137.407 518.227 137.781 518.312C138.314 518.44 138.783 518.568 139.189 518.696C139.594 518.824 139.93 518.973 140.197 519.144C140.474 519.315 140.682 519.523 140.821 519.768C140.959 520.013 141.029 520.312 141.029 520.664C141.029 521.432 140.735 522.04 140.149 522.488C139.562 522.936 138.773 523.16 137.781 523.16ZM153.149 514.664H154.221L150.637 523H149.741L147.949 518.744L146.173 523H145.277L141.693 514.664H142.749L145.789 521.88L147.373 518.072L145.949 514.68H146.861L147.949 517.4L149.037 514.68H149.965L148.541 518.072L150.125 521.88L153.149 514.664ZM158.924 523.16C158.316 523.16 157.761 523.048 157.26 522.824C156.759 522.589 156.321 522.275 155.948 521.88C155.585 521.485 155.303 521.027 155.1 520.504C154.897 519.981 154.796 519.432 154.796 518.856C154.796 518.269 154.897 517.715 155.1 517.192C155.313 516.669 155.601 516.211 155.964 515.816C156.337 515.421 156.775 515.107 157.276 514.872C157.777 514.637 158.327 514.52 158.924 514.52C159.521 514.52 160.071 514.637 160.572 514.872C161.084 515.107 161.521 515.421 161.884 515.816C162.257 516.211 162.545 516.669 162.748 517.192C162.961 517.715 163.068 518.269 163.068 518.856C163.068 519.432 162.967 519.981 162.764 520.504C162.561 521.027 162.273 521.485 161.9 521.88C161.537 522.275 161.1 522.589 160.588 522.824C160.087 523.048 159.532 523.16 158.924 523.16ZM155.9 518.872C155.9 519.341 155.98 519.779 156.14 520.184C156.3 520.579 156.513 520.931 156.78 521.24C157.057 521.539 157.377 521.773 157.74 521.944C158.113 522.115 158.508 522.2 158.924 522.2C159.34 522.2 159.729 522.115 160.092 521.944C160.465 521.763 160.791 521.523 161.068 521.224C161.345 520.915 161.564 520.557 161.724 520.152C161.884 519.747 161.964 519.309 161.964 518.84C161.964 518.381 161.884 517.949 161.724 517.544C161.564 517.128 161.345 516.771 161.068 516.472C160.791 516.163 160.465 515.923 160.092 515.752C159.729 515.571 159.34 515.48 158.924 515.48C158.508 515.48 158.119 515.571 157.756 515.752C157.393 515.923 157.073 516.163 156.796 516.472C156.519 516.781 156.3 517.144 156.14 517.56C155.98 517.965 155.9 518.403 155.9 518.872ZM169.048 515.624C168.312 515.645 167.672 515.848 167.128 516.232C166.584 516.616 166.2 517.144 165.976 517.816V523H164.888V514.664H165.912V516.664C166.221 516.024 166.637 515.523 167.16 515.16C167.682 514.797 168.242 514.616 168.84 514.616C168.925 514.616 168.994 514.621 169.048 514.632V515.624ZM173.499 523.16C172.923 523.16 172.39 523.043 171.899 522.808C171.408 522.563 170.987 522.243 170.635 521.848C170.283 521.453 170.006 521 169.803 520.488C169.611 519.965 169.515 519.421 169.515 518.856C169.515 518.269 169.611 517.715 169.803 517.192C169.995 516.659 170.256 516.195 170.587 515.8C170.928 515.405 171.328 515.096 171.787 514.872C172.256 514.637 172.768 514.52 173.323 514.52C174.027 514.52 174.651 514.707 175.195 515.08C175.739 515.443 176.166 515.885 176.475 516.408V511.32H177.563V521.592C177.563 521.891 177.691 522.04 177.947 522.04V523C177.787 523.032 177.659 523.048 177.563 523.048C177.307 523.048 177.083 522.968 176.891 522.808C176.699 522.637 176.603 522.435 176.603 522.2V521.384C176.272 521.928 175.824 522.36 175.259 522.68C174.694 523 174.107 523.16 173.499 523.16ZM173.739 522.2C174.006 522.2 174.288 522.147 174.587 522.04C174.896 521.933 175.184 521.789 175.451 521.608C175.718 521.416 175.942 521.197 176.123 520.952C176.315 520.696 176.432 520.424 176.475 520.136V517.56C176.368 517.272 176.214 517.005 176.011 516.76C175.808 516.504 175.574 516.28 175.307 516.088C175.051 515.896 174.774 515.747 174.475 515.64C174.176 515.533 173.883 515.48 173.595 515.48C173.147 515.48 172.742 515.576 172.379 515.768C172.016 515.96 171.702 516.216 171.435 516.536C171.179 516.845 170.982 517.203 170.843 517.608C170.704 518.013 170.635 518.429 170.635 518.856C170.635 519.304 170.715 519.731 170.875 520.136C171.035 520.541 171.254 520.899 171.531 521.208C171.808 521.507 172.134 521.747 172.507 521.928C172.891 522.109 173.302 522.2 173.739 522.2Z" fill="#3E5C01" fill-opacity="0.4"/>
<path d="M91.539 657V647.06H94.913C95.7063 647.06 96.397 647.191 96.985 647.452C97.5823 647.713 98.077 648.068 98.469 648.516C98.8703 648.964 99.169 649.491 99.365 650.098C99.5703 650.695 99.673 651.335 99.673 652.016C99.673 652.772 99.561 653.458 99.337 654.074C99.113 654.681 98.791 655.203 98.371 655.642C97.9603 656.071 97.461 656.407 96.873 656.65C96.2943 656.883 95.641 657 94.913 657H91.539ZM98.693 652.016C98.693 651.419 98.609 650.873 98.441 650.378C98.273 649.874 98.0256 649.44 97.699 649.076C97.3816 648.712 96.9896 648.432 96.523 648.236C96.0563 648.031 95.5196 647.928 94.913 647.928H92.519V656.132H94.913C95.529 656.132 96.0703 656.029 96.537 655.824C97.013 655.609 97.4096 655.32 97.727 654.956C98.0443 654.583 98.2823 654.149 98.441 653.654C98.609 653.15 98.693 652.604 98.693 652.016ZM104.459 657.14C103.927 657.14 103.441 657.042 103.003 656.846C102.564 656.641 102.181 656.365 101.855 656.02C101.537 655.675 101.29 655.273 101.113 654.816C100.935 654.359 100.847 653.878 100.847 653.374C100.847 652.861 100.935 652.375 101.113 651.918C101.299 651.461 101.551 651.059 101.869 650.714C102.195 650.369 102.578 650.093 103.017 649.888C103.455 649.683 103.936 649.58 104.459 649.58C104.981 649.58 105.462 649.683 105.901 649.888C106.349 650.093 106.731 650.369 107.049 650.714C107.375 651.059 107.627 651.461 107.805 651.918C107.991 652.375 108.085 652.861 108.085 653.374C108.085 653.878 107.996 654.359 107.819 654.816C107.641 655.273 107.389 655.675 107.063 656.02C106.745 656.365 106.363 656.641 105.915 656.846C105.476 657.042 104.991 657.14 104.459 657.14ZM101.813 653.388C101.813 653.799 101.883 654.181 102.023 654.536C102.163 654.881 102.349 655.189 102.583 655.46C102.825 655.721 103.105 655.927 103.423 656.076C103.749 656.225 104.095 656.3 104.459 656.3C104.823 656.3 105.163 656.225 105.481 656.076C105.807 655.917 106.092 655.707 106.335 655.446C106.577 655.175 106.769 654.863 106.909 654.508C107.049 654.153 107.119 653.771 107.119 653.36C107.119 652.959 107.049 652.581 106.909 652.226C106.769 651.862 106.577 651.549 106.335 651.288C106.092 651.017 105.807 650.807 105.481 650.658C105.163 650.499 104.823 650.42 104.459 650.42C104.095 650.42 103.754 650.499 103.437 650.658C103.119 650.807 102.839 651.017 102.597 651.288C102.354 651.559 102.163 651.876 102.023 652.24C101.883 652.595 101.813 652.977 101.813 653.388ZM115.809 657H114.857V652.926C114.857 652.058 114.726 651.428 114.465 651.036C114.213 650.644 113.821 650.448 113.289 650.448C113.009 650.448 112.729 650.499 112.449 650.602C112.169 650.705 111.908 650.849 111.665 651.036C111.432 651.223 111.222 651.447 111.035 651.708C110.848 651.96 110.713 652.235 110.629 652.534V657H109.677V649.706H110.545V651.358C110.844 650.826 111.268 650.397 111.819 650.07C112.379 649.743 112.986 649.58 113.639 649.58C114.04 649.58 114.381 649.655 114.661 649.804C114.941 649.953 115.165 650.163 115.333 650.434C115.501 650.705 115.622 651.036 115.697 651.428C115.772 651.82 115.809 652.254 115.809 652.73V657ZM117.633 649.706L117.871 648.222H117.535V646.78H118.473V648.222L118.123 649.706H117.633ZM123.855 656.65C123.799 656.678 123.715 656.715 123.603 656.762C123.5 656.809 123.379 656.855 123.239 656.902C123.099 656.949 122.94 656.991 122.763 657.028C122.585 657.065 122.399 657.084 122.203 657.084C121.997 657.084 121.801 657.056 121.615 657C121.428 656.944 121.265 656.86 121.125 656.748C120.985 656.627 120.873 656.477 120.789 656.3C120.705 656.123 120.663 655.917 120.663 655.684V650.462H119.655V649.706H120.663V647.242H121.615V649.706H123.295V650.462H121.615V655.418C121.633 655.689 121.727 655.889 121.895 656.02C122.072 656.141 122.273 656.202 122.497 656.202C122.767 656.202 123.005 656.16 123.211 656.076C123.416 655.983 123.547 655.917 123.603 655.88L123.855 656.65ZM134.745 657H133.793V652.926C133.793 652.095 133.648 651.475 133.359 651.064C133.079 650.653 132.663 650.448 132.113 650.448C131.842 650.448 131.571 650.504 131.301 650.616C131.039 650.719 130.792 650.863 130.559 651.05C130.325 651.237 130.12 651.456 129.943 651.708C129.775 651.96 129.649 652.235 129.565 652.534V657H128.613V646.78H129.565V651.358C129.854 650.807 130.255 650.373 130.769 650.056C131.282 649.739 131.837 649.58 132.435 649.58C132.855 649.58 133.209 649.659 133.499 649.818C133.788 649.967 134.026 650.182 134.213 650.462C134.399 650.733 134.535 651.064 134.619 651.456C134.703 651.839 134.745 652.263 134.745 652.73V657ZM138.609 657.14C138.263 657.14 137.941 657.084 137.643 656.972C137.353 656.851 137.097 656.687 136.873 656.482C136.658 656.277 136.49 656.039 136.369 655.768C136.247 655.488 136.187 655.189 136.187 654.872C136.187 654.555 136.261 654.261 136.411 653.99C136.56 653.719 136.77 653.486 137.041 653.29C137.311 653.094 137.633 652.945 138.007 652.842C138.38 652.73 138.791 652.674 139.239 652.674C139.612 652.674 139.99 652.707 140.373 652.772C140.755 652.837 141.096 652.931 141.395 653.052V652.394C141.395 651.75 141.213 651.241 140.849 650.868C140.485 650.485 139.981 650.294 139.337 650.294C138.963 650.294 138.581 650.369 138.189 650.518C137.797 650.667 137.4 650.882 136.999 651.162L136.663 650.532C137.605 649.897 138.52 649.58 139.407 649.58C140.321 649.58 141.04 649.837 141.563 650.35C142.085 650.863 142.347 651.573 142.347 652.478V655.768C142.347 656.029 142.463 656.16 142.697 656.16V657C142.538 657.028 142.417 657.042 142.333 657.042C142.09 657.042 141.899 656.981 141.759 656.86C141.628 656.739 141.558 656.571 141.549 656.356L141.521 655.782C141.185 656.221 140.76 656.557 140.247 656.79C139.743 657.023 139.197 657.14 138.609 657.14ZM138.833 656.412C139.327 656.412 139.78 656.319 140.191 656.132C140.611 655.945 140.928 655.698 141.143 655.39C141.227 655.306 141.287 655.217 141.325 655.124C141.371 655.021 141.395 654.928 141.395 654.844V653.654C141.077 653.533 140.746 653.439 140.401 653.374C140.065 653.309 139.719 653.276 139.365 653.276C138.693 653.276 138.147 653.416 137.727 653.696C137.307 653.976 137.097 654.345 137.097 654.802C137.097 655.026 137.139 655.236 137.223 655.432C137.316 655.628 137.437 655.801 137.587 655.95C137.745 656.09 137.932 656.202 138.147 656.286C138.361 656.37 138.59 656.412 138.833 656.412ZM146.396 657L143.428 649.706H144.408L146.914 656.118L149.434 649.706H150.358L147.39 657H146.396ZM154.581 657.14C154.049 657.14 153.559 657.042 153.111 656.846C152.672 656.641 152.29 656.365 151.963 656.02C151.636 655.665 151.38 655.259 151.193 654.802C151.016 654.345 150.927 653.855 150.927 653.332C150.927 652.819 151.016 652.338 151.193 651.89C151.38 651.433 151.632 651.036 151.949 650.7C152.276 650.355 152.663 650.084 153.111 649.888C153.559 649.683 154.044 649.58 154.567 649.58C155.099 649.58 155.584 649.683 156.023 649.888C156.471 650.084 156.854 650.355 157.171 650.7C157.488 651.045 157.736 651.442 157.913 651.89C158.09 652.338 158.179 652.814 158.179 653.318C158.179 653.393 158.179 653.467 158.179 653.542C158.179 653.617 158.174 653.668 158.165 653.696H151.921C151.949 654.088 152.038 654.452 152.187 654.788C152.346 655.115 152.546 655.399 152.789 655.642C153.032 655.885 153.307 656.076 153.615 656.216C153.932 656.347 154.268 656.412 154.623 656.412C154.856 656.412 155.09 656.379 155.323 656.314C155.556 656.249 155.771 656.16 155.967 656.048C156.163 655.936 156.34 655.801 156.499 655.642C156.658 655.474 156.779 655.292 156.863 655.096L157.689 655.32C157.577 655.591 157.418 655.838 157.213 656.062C157.008 656.277 156.77 656.468 156.499 656.636C156.228 656.795 155.93 656.916 155.603 657C155.276 657.093 154.936 657.14 154.581 657.14ZM157.269 652.968C157.241 652.576 157.148 652.221 156.989 651.904C156.84 651.577 156.644 651.297 156.401 651.064C156.168 650.831 155.892 650.649 155.575 650.518C155.267 650.387 154.936 650.322 154.581 650.322C154.226 650.322 153.89 650.387 153.573 650.518C153.256 650.649 152.976 650.831 152.733 651.064C152.5 651.297 152.308 651.577 152.159 651.904C152.019 652.231 151.935 652.585 151.907 652.968H157.269ZM165.05 657.14C164.705 657.14 164.383 657.084 164.084 656.972C163.795 656.851 163.538 656.687 163.314 656.482C163.099 656.277 162.931 656.039 162.81 655.768C162.689 655.488 162.628 655.189 162.628 654.872C162.628 654.555 162.703 654.261 162.852 653.99C163.001 653.719 163.211 653.486 163.482 653.29C163.753 653.094 164.075 652.945 164.448 652.842C164.821 652.73 165.232 652.674 165.68 652.674C166.053 652.674 166.431 652.707 166.814 652.772C167.197 652.837 167.537 652.931 167.836 653.052V652.394C167.836 651.75 167.654 651.241 167.29 650.868C166.926 650.485 166.422 650.294 165.778 650.294C165.405 650.294 165.022 650.369 164.63 650.518C164.238 650.667 163.841 650.882 163.44 651.162L163.104 650.532C164.047 649.897 164.961 649.58 165.848 649.58C166.763 649.58 167.481 649.837 168.004 650.35C168.527 650.863 168.788 651.573 168.788 652.478V655.768C168.788 656.029 168.905 656.16 169.138 656.16V657C168.979 657.028 168.858 657.042 168.774 657.042C168.531 657.042 168.34 656.981 168.2 656.86C168.069 656.739 167.999 656.571 167.99 656.356L167.962 655.782C167.626 656.221 167.201 656.557 166.688 656.79C166.184 657.023 165.638 657.14 165.05 657.14ZM165.274 656.412C165.769 656.412 166.221 656.319 166.632 656.132C167.052 655.945 167.369 655.698 167.584 655.39C167.668 655.306 167.729 655.217 167.766 655.124C167.813 655.021 167.836 654.928 167.836 654.844V653.654C167.519 653.533 167.187 653.439 166.842 653.374C166.506 653.309 166.161 653.276 165.806 653.276C165.134 653.276 164.588 653.416 164.168 653.696C163.748 653.976 163.538 654.345 163.538 654.802C163.538 655.026 163.58 655.236 163.664 655.432C163.757 655.628 163.879 655.801 164.028 655.95C164.187 656.09 164.373 656.202 164.588 656.286C164.803 656.37 165.031 656.412 165.274 656.412ZM176.977 657H176.025V652.926C176.025 652.058 175.894 651.428 175.633 651.036C175.381 650.644 174.989 650.448 174.457 650.448C174.177 650.448 173.897 650.499 173.617 650.602C173.337 650.705 173.076 650.849 172.833 651.036C172.6 651.223 172.39 651.447 172.203 651.708C172.016 651.96 171.881 652.235 171.797 652.534V657H170.845V649.706H171.713V651.358C172.012 650.826 172.436 650.397 172.987 650.07C173.547 649.743 174.154 649.58 174.807 649.58C175.208 649.58 175.549 649.655 175.829 649.804C176.109 649.953 176.333 650.163 176.501 650.434C176.669 650.705 176.79 651.036 176.865 651.428C176.94 651.82 176.977 652.254 176.977 652.73V657ZM184.409 657.14C184.064 657.14 183.742 657.084 183.443 656.972C183.154 656.851 182.897 656.687 182.673 656.482C182.459 656.277 182.291 656.039 182.169 655.768C182.048 655.488 181.987 655.189 181.987 654.872C181.987 654.555 182.062 654.261 182.211 653.99C182.361 653.719 182.571 653.486 182.841 653.29C183.112 653.094 183.434 652.945 183.807 652.842C184.181 652.73 184.591 652.674 185.039 652.674C185.413 652.674 185.791 652.707 186.173 652.772C186.556 652.837 186.897 652.931 187.195 653.052V652.394C187.195 651.75 187.013 651.241 186.649 650.868C186.285 650.485 185.781 650.294 185.137 650.294C184.764 650.294 184.381 650.369 183.989 650.518C183.597 650.667 183.201 650.882 182.799 651.162L182.463 650.532C183.406 649.897 184.321 649.58 185.207 649.58C186.122 649.58 186.841 649.837 187.363 650.35C187.886 650.863 188.147 651.573 188.147 652.478V655.768C188.147 656.029 188.264 656.16 188.497 656.16V657C188.339 657.028 188.217 657.042 188.133 657.042C187.891 657.042 187.699 656.981 187.559 656.86C187.429 656.739 187.359 656.571 187.349 656.356L187.321 655.782C186.985 656.221 186.561 656.557 186.047 656.79C185.543 657.023 184.997 657.14 184.409 657.14ZM184.633 656.412C185.128 656.412 185.581 656.319 185.991 656.132C186.411 655.945 186.729 655.698 186.943 655.39C187.027 655.306 187.088 655.217 187.125 655.124C187.172 655.021 187.195 654.928 187.195 654.844V653.654C186.878 653.533 186.547 653.439 186.201 653.374C185.865 653.309 185.52 653.276 185.165 653.276C184.493 653.276 183.947 653.416 183.527 653.696C183.107 653.976 182.897 654.345 182.897 654.802C182.897 655.026 182.939 655.236 183.023 655.432C183.117 655.628 183.238 655.801 183.387 655.95C183.546 656.09 183.733 656.202 183.947 656.286C184.162 656.37 184.391 656.412 184.633 656.412ZM189.7 653.332C189.7 652.819 189.789 652.333 189.966 651.876C190.144 651.419 190.391 651.022 190.708 650.686C191.035 650.341 191.422 650.07 191.87 649.874C192.318 649.678 192.813 649.58 193.354 649.58C194.045 649.58 194.647 649.739 195.16 650.056C195.674 650.364 196.061 650.784 196.322 651.316L195.398 651.61C195.193 651.237 194.904 650.947 194.53 650.742C194.166 650.527 193.76 650.42 193.312 650.42C192.939 650.42 192.589 650.495 192.262 650.644C191.945 650.793 191.665 650.999 191.422 651.26C191.189 651.512 191.002 651.815 190.862 652.17C190.732 652.525 190.666 652.912 190.666 653.332C190.666 653.743 190.736 654.13 190.876 654.494C191.016 654.858 191.208 655.175 191.45 655.446C191.693 655.707 191.973 655.917 192.29 656.076C192.617 656.225 192.962 656.3 193.326 656.3C193.56 656.3 193.788 656.267 194.012 656.202C194.246 656.137 194.46 656.048 194.656 655.936C194.852 655.815 195.02 655.679 195.16 655.53C195.3 655.381 195.398 655.222 195.454 655.054L196.392 655.334C196.29 655.595 196.14 655.838 195.944 656.062C195.748 656.277 195.515 656.468 195.244 656.636C194.983 656.795 194.689 656.916 194.362 657C194.045 657.093 193.714 657.14 193.368 657.14C192.836 657.14 192.346 657.042 191.898 656.846C191.45 656.641 191.063 656.365 190.736 656.02C190.41 655.665 190.153 655.259 189.966 654.802C189.789 654.345 189.7 653.855 189.7 653.332ZM197.316 653.332C197.316 652.819 197.404 652.333 197.582 651.876C197.759 651.419 198.006 651.022 198.324 650.686C198.65 650.341 199.038 650.07 199.486 649.874C199.934 649.678 200.428 649.58 200.97 649.58C201.66 649.58 202.262 649.739 202.776 650.056C203.289 650.364 203.676 650.784 203.938 651.316L203.014 651.61C202.808 651.237 202.519 650.947 202.146 650.742C201.782 650.527 201.376 650.42 200.928 650.42C200.554 650.42 200.204 650.495 199.878 650.644C199.56 650.793 199.28 650.999 199.038 651.26C198.804 651.512 198.618 651.815 198.478 652.17C198.347 652.525 198.282 652.912 198.282 653.332C198.282 653.743 198.352 654.13 198.492 654.494C198.632 654.858 198.823 655.175 199.066 655.446C199.308 655.707 199.588 655.917 199.906 656.076C200.232 656.225 200.578 656.3 200.942 656.3C201.175 656.3 201.404 656.267 201.628 656.202C201.861 656.137 202.076 656.048 202.272 655.936C202.468 655.815 202.636 655.679 202.776 655.53C202.916 655.381 203.014 655.222 203.07 655.054L204.008 655.334C203.905 655.595 203.756 655.838 203.56 656.062C203.364 656.277 203.13 656.468 202.86 656.636C202.598 656.795 202.304 656.916 201.978 657C201.66 657.093 201.329 657.14 200.984 657.14C200.452 657.14 199.962 657.042 199.514 656.846C199.066 656.641 198.678 656.365 198.352 656.02C198.025 655.665 197.768 655.259 197.582 654.802C197.404 654.345 197.316 653.855 197.316 653.332ZM208.543 657.14C208.011 657.14 207.525 657.042 207.087 656.846C206.648 656.641 206.265 656.365 205.939 656.02C205.621 655.675 205.374 655.273 205.197 654.816C205.019 654.359 204.931 653.878 204.931 653.374C204.931 652.861 205.019 652.375 205.197 651.918C205.383 651.461 205.635 651.059 205.953 650.714C206.279 650.369 206.662 650.093 207.101 649.888C207.539 649.683 208.02 649.58 208.543 649.58C209.065 649.58 209.546 649.683 209.985 649.888C210.433 650.093 210.815 650.369 211.133 650.714C211.459 651.059 211.711 651.461 211.889 651.918C212.075 652.375 212.169 652.861 212.169 653.374C212.169 653.878 212.08 654.359 211.903 654.816C211.725 655.273 211.473 655.675 211.147 656.02C210.829 656.365 210.447 656.641 209.999 656.846C209.56 657.042 209.075 657.14 208.543 657.14ZM205.897 653.388C205.897 653.799 205.967 654.181 206.107 654.536C206.247 654.881 206.433 655.189 206.667 655.46C206.909 655.721 207.189 655.927 207.507 656.076C207.833 656.225 208.179 656.3 208.543 656.3C208.907 656.3 209.247 656.225 209.565 656.076C209.891 655.917 210.176 655.707 210.419 655.446C210.661 655.175 210.853 654.863 210.993 654.508C211.133 654.153 211.203 653.771 211.203 653.36C211.203 652.959 211.133 652.581 210.993 652.226C210.853 651.862 210.661 651.549 210.419 651.288C210.176 651.017 209.891 650.807 209.565 650.658C209.247 650.499 208.907 650.42 208.543 650.42C208.179 650.42 207.838 650.499 207.521 650.658C207.203 650.807 206.923 651.017 206.681 651.288C206.438 651.559 206.247 651.876 206.107 652.24C205.967 652.595 205.897 652.977 205.897 653.388ZM216.043 657.14C215.25 657.14 214.657 656.879 214.265 656.356C213.882 655.824 213.691 655.035 213.691 653.99V649.706H214.643V653.822C214.643 655.474 215.208 656.3 216.337 656.3C216.617 656.3 216.892 656.253 217.163 656.16C217.434 656.067 217.681 655.931 217.905 655.754C218.138 655.577 218.344 655.367 218.521 655.124C218.708 654.881 218.857 654.606 218.969 654.298V649.706H219.921V655.768C219.921 656.029 220.033 656.16 220.257 656.16V657C220.145 657.019 220.052 657.028 219.977 657.028C219.912 657.028 219.865 657.028 219.837 657.028C219.613 657.019 219.431 656.939 219.291 656.79C219.151 656.641 219.081 656.44 219.081 656.188V655.348C218.764 655.917 218.33 656.361 217.779 656.678C217.238 656.986 216.659 657.14 216.043 657.14ZM228.205 657H227.253V652.926C227.253 652.058 227.123 651.428 226.861 651.036C226.609 650.644 226.217 650.448 225.685 650.448C225.405 650.448 225.125 650.499 224.845 650.602C224.565 650.705 224.304 650.849 224.061 651.036C223.828 651.223 223.618 651.447 223.431 651.708C223.245 651.96 223.109 652.235 223.025 652.534V657H222.073V649.706H222.941V651.358C223.24 650.826 223.665 650.397 224.215 650.07C224.775 649.743 225.382 649.58 226.035 649.58C226.437 649.58 226.777 649.655 227.057 649.804C227.337 649.953 227.561 650.163 227.729 650.434C227.897 650.705 228.019 651.036 228.093 651.428C228.168 651.82 228.205 652.254 228.205 652.73V657ZM233.667 656.65C233.611 656.678 233.527 656.715 233.415 656.762C233.313 656.809 233.191 656.855 233.051 656.902C232.911 656.949 232.753 656.991 232.575 657.028C232.398 657.065 232.211 657.084 232.015 657.084C231.81 657.084 231.614 657.056 231.427 657C231.241 656.944 231.077 656.86 230.937 656.748C230.797 656.627 230.685 656.477 230.601 656.3C230.517 656.123 230.475 655.917 230.475 655.684V650.462H229.467V649.706H230.475V647.242H231.427V649.706H233.107V650.462H231.427V655.418C231.446 655.689 231.539 655.889 231.707 656.02C231.885 656.141 232.085 656.202 232.309 656.202C232.58 656.202 232.818 656.16 233.023 656.076C233.229 655.983 233.359 655.917 233.415 655.88L233.667 656.65ZM235.963 654.172C235.963 653.556 236.056 653.066 236.243 652.702C236.439 652.338 236.742 652.035 237.153 651.792C237.339 651.68 237.545 651.568 237.769 651.456C237.993 651.335 238.203 651.19 238.399 651.022C238.595 650.854 238.758 650.653 238.889 650.42C239.029 650.187 239.099 649.897 239.099 649.552C239.099 649.244 239.043 648.978 238.931 648.754C238.828 648.53 238.688 648.343 238.511 648.194C238.333 648.035 238.128 647.919 237.895 647.844C237.671 647.769 237.437 647.732 237.195 647.732C236.691 647.732 236.238 647.872 235.837 648.152C235.445 648.423 235.146 648.759 234.941 649.16L234.283 648.74C234.413 648.451 234.581 648.194 234.787 647.97C234.992 647.746 235.221 647.559 235.473 647.41C235.734 647.251 236.009 647.135 236.299 647.06C236.597 646.976 236.901 646.934 237.209 646.934C237.554 646.934 237.89 646.99 238.217 647.102C238.543 647.205 238.833 647.368 239.085 647.592C239.346 647.816 239.551 648.096 239.701 648.432C239.859 648.768 239.939 649.16 239.939 649.608C239.939 649.981 239.883 650.299 239.771 650.56C239.668 650.812 239.528 651.031 239.351 651.218C239.173 651.405 238.968 651.568 238.735 651.708C238.511 651.839 238.282 651.969 238.049 652.1C237.881 652.193 237.722 652.291 237.573 652.394C237.423 652.487 237.288 652.613 237.167 652.772C237.045 652.921 236.947 653.108 236.873 653.332C236.807 653.556 236.775 653.836 236.775 654.172H235.963ZM235.977 657V655.502H236.803V657H235.977Z" fill="black"/>
<path d="M251.089 648.922C250.809 648.605 250.436 648.348 249.969 648.152C249.503 647.956 248.971 647.858 248.373 647.858C247.496 647.858 246.857 648.026 246.455 648.362C246.054 648.689 245.853 649.137 245.853 649.706C245.853 650.005 245.905 650.252 246.007 650.448C246.119 650.635 246.287 650.798 246.511 650.938C246.735 651.078 247.02 651.199 247.365 651.302C247.72 651.405 248.135 651.507 248.611 651.61C249.143 651.722 249.619 651.848 250.039 651.988C250.469 652.128 250.833 652.305 251.131 652.52C251.43 652.725 251.659 652.977 251.817 653.276C251.976 653.575 252.055 653.948 252.055 654.396C252.055 654.853 251.967 655.25 251.789 655.586C251.612 655.922 251.365 656.202 251.047 656.426C250.73 656.65 250.352 656.818 249.913 656.93C249.475 657.033 248.994 657.084 248.471 657.084C246.931 657.084 245.601 656.603 244.481 655.642L244.971 654.844C245.149 655.031 245.359 655.208 245.601 655.376C245.853 655.544 246.129 655.693 246.427 655.824C246.735 655.945 247.062 656.043 247.407 656.118C247.753 656.183 248.117 656.216 248.499 656.216C249.293 656.216 249.909 656.076 250.347 655.796C250.795 655.507 251.019 655.073 251.019 654.494C251.019 654.186 250.954 653.929 250.823 653.724C250.702 653.509 250.515 653.327 250.263 653.178C250.011 653.019 249.699 652.884 249.325 652.772C248.952 652.66 248.518 652.548 248.023 652.436C247.501 652.315 247.043 652.189 246.651 652.058C246.259 651.927 245.928 651.764 245.657 651.568C245.387 651.372 245.181 651.139 245.041 650.868C244.911 650.588 244.845 650.247 244.845 649.846C244.845 649.389 244.929 648.983 245.097 648.628C245.275 648.264 245.522 647.965 245.839 647.732C246.157 647.489 246.53 647.307 246.959 647.186C247.389 647.055 247.865 646.99 248.387 646.99C249.05 646.99 249.638 647.093 250.151 647.298C250.674 647.494 251.145 647.774 251.565 648.138L251.089 648.922ZM253.587 657V649.706H254.539V657H253.587ZM253.587 648.18V646.78H254.539V648.18H253.587ZM259.562 657.098C259.058 657.098 258.596 656.995 258.176 656.79C257.765 656.575 257.406 656.295 257.098 655.95C256.799 655.605 256.566 655.208 256.398 654.76C256.23 654.312 256.146 653.85 256.146 653.374C256.146 652.87 256.225 652.389 256.384 651.932C256.552 651.465 256.785 651.059 257.084 650.714C257.383 650.369 257.737 650.093 258.148 649.888C258.568 649.683 259.03 649.58 259.534 649.58C260.159 649.58 260.701 649.739 261.158 650.056C261.615 650.364 262.007 650.756 262.334 651.232V649.706H263.188V657.028C263.188 657.532 263.09 657.975 262.894 658.358C262.707 658.75 262.451 659.077 262.124 659.338C261.807 659.599 261.429 659.795 260.99 659.926C260.561 660.057 260.103 660.122 259.618 660.122C258.778 660.122 258.101 659.973 257.588 659.674C257.075 659.375 256.659 658.974 256.342 658.47L256.93 658.008C257.219 658.475 257.602 658.815 258.078 659.03C258.554 659.254 259.067 659.366 259.618 659.366C259.973 659.366 260.309 659.315 260.626 659.212C260.943 659.119 261.219 658.974 261.452 658.778C261.695 658.591 261.886 658.349 262.026 658.05C262.166 657.761 262.236 657.42 262.236 657.028V655.586C261.956 656.053 261.573 656.421 261.088 656.692C260.603 656.963 260.094 657.098 259.562 657.098ZM259.828 656.3C260.108 656.3 260.383 656.249 260.654 656.146C260.925 656.043 261.167 655.908 261.382 655.74C261.606 655.563 261.793 655.367 261.942 655.152C262.091 654.937 262.189 654.718 262.236 654.494V652.24C262.133 651.979 261.993 651.736 261.816 651.512C261.639 651.288 261.438 651.097 261.214 650.938C260.99 650.779 260.747 650.653 260.486 650.56C260.234 650.467 259.977 650.42 259.716 650.42C259.305 650.42 258.937 650.509 258.61 650.686C258.293 650.854 258.022 651.078 257.798 651.358C257.574 651.638 257.401 651.955 257.28 652.31C257.168 652.665 257.112 653.024 257.112 653.388C257.112 653.78 257.182 654.153 257.322 654.508C257.462 654.863 257.653 655.175 257.896 655.446C258.148 655.707 258.437 655.917 258.764 656.076C259.091 656.225 259.445 656.3 259.828 656.3ZM271.422 657H270.47V652.926C270.47 652.058 270.34 651.428 270.078 651.036C269.826 650.644 269.434 650.448 268.902 650.448C268.622 650.448 268.342 650.499 268.062 650.602C267.782 650.705 267.521 650.849 267.278 651.036C267.045 651.223 266.835 651.447 266.648 651.708C266.462 651.96 266.326 652.235 266.242 652.534V657H265.29V649.706H266.158V651.358C266.457 650.826 266.882 650.397 267.432 650.07C267.992 649.743 268.599 649.58 269.252 649.58C269.654 649.58 269.994 649.655 270.274 649.804C270.554 649.953 270.778 650.163 270.946 650.434C271.114 650.705 271.236 651.036 271.31 651.428C271.385 651.82 271.422 652.254 271.422 652.73V657ZM281.249 656.188C281.874 656.188 282.392 656.071 282.803 655.838C283.223 655.595 283.554 655.283 283.797 654.9C284.049 654.508 284.221 654.065 284.315 653.57C284.417 653.075 284.469 652.576 284.469 652.072V647.06H285.449V652.072C285.449 652.744 285.374 653.383 285.225 653.99C285.075 654.587 284.833 655.115 284.497 655.572C284.17 656.029 283.741 656.393 283.209 656.664C282.677 656.935 282.028 657.07 281.263 657.07C280.479 657.07 279.816 656.93 279.275 656.65C278.743 656.361 278.313 655.983 277.987 655.516C277.66 655.049 277.427 654.517 277.287 653.92C277.147 653.323 277.077 652.707 277.077 652.072V647.06H278.043V652.072C278.043 652.595 278.094 653.103 278.197 653.598C278.299 654.093 278.472 654.531 278.715 654.914C278.967 655.297 279.298 655.605 279.709 655.838C280.119 656.071 280.633 656.188 281.249 656.188ZM291.313 657.14C290.697 657.14 290.151 656.986 289.675 656.678C289.208 656.361 288.83 655.964 288.541 655.488V659.982H287.589V649.706H288.443V651.12C288.742 650.663 289.129 650.294 289.605 650.014C290.081 649.725 290.599 649.58 291.159 649.58C291.663 649.58 292.125 649.687 292.545 649.902C292.965 650.107 293.329 650.387 293.637 650.742C293.945 651.087 294.183 651.489 294.351 651.946C294.528 652.403 294.617 652.875 294.617 653.36C294.617 653.873 294.538 654.359 294.379 654.816C294.22 655.273 293.992 655.675 293.693 656.02C293.404 656.365 293.054 656.641 292.643 656.846C292.242 657.042 291.798 657.14 291.313 657.14ZM291.047 656.3C291.439 656.3 291.794 656.216 292.111 656.048C292.438 655.88 292.713 655.661 292.937 655.39C293.17 655.11 293.348 654.797 293.469 654.452C293.59 654.097 293.651 653.733 293.651 653.36C293.651 652.968 293.581 652.595 293.441 652.24C293.301 651.885 293.11 651.573 292.867 651.302C292.624 651.031 292.335 650.817 291.999 650.658C291.672 650.499 291.318 650.42 290.935 650.42C290.692 650.42 290.436 650.471 290.165 650.574C289.904 650.667 289.656 650.798 289.423 650.966C289.199 651.125 289.003 651.316 288.835 651.54C288.676 651.755 288.578 651.983 288.541 652.226V654.466C288.653 654.727 288.793 654.97 288.961 655.194C289.138 655.418 289.334 655.614 289.549 655.782C289.773 655.941 290.011 656.067 290.263 656.16C290.515 656.253 290.776 656.3 291.047 656.3ZM296.468 653.808V646.962H297.42V653.808H296.468ZM296.468 657V655.432H297.42V657H296.468Z" fill="#3E5C01"/>
<path d="M126.742 356.256H129.028L130.468 360.486L131.908 356.256H134.212L132.034 362.07L133.654 366.156L137.272 356.22H139.972L134.77 369H132.682L130.468 363.636L128.254 369H126.166L121 356.22H123.664L127.3 366.156L128.884 362.07L126.742 356.256ZM144.261 369.18C143.505 369.18 142.821 369.054 142.209 368.802C141.597 368.538 141.075 368.184 140.643 367.74C140.211 367.296 139.875 366.78 139.635 366.192C139.407 365.604 139.293 364.986 139.293 364.338C139.293 363.666 139.407 363.036 139.635 362.448C139.863 361.848 140.193 361.326 140.625 360.882C141.057 360.426 141.579 360.066 142.191 359.802C142.815 359.538 143.511 359.406 144.279 359.406C145.047 359.406 145.731 359.538 146.331 359.802C146.943 360.066 147.459 360.42 147.879 360.864C148.311 361.308 148.635 361.824 148.851 362.412C149.079 363 149.193 363.612 149.193 364.248C149.193 364.404 149.187 364.554 149.175 364.698C149.175 364.842 149.163 364.962 149.139 365.058H141.849C141.885 365.43 141.975 365.76 142.119 366.048C142.263 366.336 142.449 366.582 142.677 366.786C142.905 366.99 143.163 367.146 143.451 367.254C143.739 367.362 144.039 367.416 144.351 367.416C144.831 367.416 145.281 367.302 145.701 367.074C146.133 366.834 146.427 366.522 146.583 366.138L148.653 366.714C148.305 367.434 147.747 368.028 146.979 368.496C146.223 368.952 145.317 369.18 144.261 369.18ZM146.709 363.492C146.649 362.784 146.385 362.22 145.917 361.8C145.461 361.368 144.903 361.152 144.243 361.152C143.919 361.152 143.613 361.212 143.325 361.332C143.049 361.44 142.803 361.596 142.587 361.8C142.371 362.004 142.191 362.25 142.047 362.538C141.915 362.826 141.837 363.144 141.813 363.492H146.709ZM150.644 355.86H153.056V365.976C153.056 366.324 153.14 366.594 153.308 366.786C153.476 366.978 153.716 367.074 154.028 367.074C154.172 367.074 154.328 367.05 154.496 367.002C154.676 366.954 154.844 366.894 155 366.822L155.324 368.658C155 368.814 154.622 368.934 154.19 369.018C153.758 369.102 153.368 369.144 153.02 369.144C152.264 369.144 151.676 368.946 151.256 368.55C150.848 368.142 150.644 367.566 150.644 366.822V355.86ZM155.781 364.284C155.781 363.624 155.895 363 156.123 362.412C156.351 361.824 156.681 361.308 157.113 360.864C157.545 360.42 158.067 360.066 158.679 359.802C159.291 359.538 159.981 359.406 160.749 359.406C161.781 359.406 162.657 359.628 163.377 360.072C164.109 360.516 164.655 361.098 165.015 361.818L162.657 362.538C162.453 362.19 162.183 361.926 161.847 361.746C161.511 361.554 161.139 361.458 160.731 361.458C160.383 361.458 160.059 361.53 159.759 361.674C159.459 361.806 159.195 361.998 158.967 362.25C158.751 362.49 158.577 362.784 158.445 363.132C158.325 363.48 158.265 363.864 158.265 364.284C158.265 364.704 158.331 365.088 158.463 365.436C158.595 365.784 158.769 366.084 158.985 366.336C159.213 366.588 159.477 366.786 159.777 366.93C160.077 367.062 160.395 367.128 160.731 367.128C161.163 367.128 161.559 367.02 161.919 366.804C162.291 366.588 162.549 366.324 162.693 366.012L165.051 366.732C164.727 367.452 164.193 368.04 163.449 368.496C162.705 368.952 161.811 369.18 160.767 369.18C159.999 369.18 159.309 369.048 158.697 368.784C158.085 368.52 157.563 368.166 157.131 367.722C156.699 367.266 156.363 366.744 156.123 366.156C155.895 365.556 155.781 364.932 155.781 364.284ZM170.804 369.18C170.036 369.18 169.346 369.048 168.734 368.784C168.122 368.52 167.6 368.166 167.168 367.722C166.748 367.266 166.424 366.744 166.196 366.156C165.968 365.568 165.854 364.95 165.854 364.302C165.854 363.642 165.968 363.018 166.196 362.43C166.424 361.842 166.748 361.326 167.168 360.882C167.6 360.426 168.122 360.066 168.734 359.802C169.346 359.538 170.036 359.406 170.804 359.406C171.572 359.406 172.256 359.538 172.856 359.802C173.468 360.066 173.984 360.426 174.404 360.882C174.836 361.326 175.166 361.842 175.394 362.43C175.622 363.018 175.736 363.642 175.736 364.302C175.736 364.95 175.622 365.568 175.394 366.156C175.166 366.744 174.842 367.266 174.422 367.722C174.002 368.166 173.486 368.52 172.874 368.784C172.262 369.048 171.572 369.18 170.804 369.18ZM168.338 364.302C168.338 364.722 168.398 365.106 168.518 365.454C168.65 365.79 168.824 366.084 169.04 366.336C169.268 366.588 169.532 366.786 169.832 366.93C170.132 367.062 170.456 367.128 170.804 367.128C171.152 367.128 171.476 367.062 171.776 366.93C172.076 366.786 172.334 366.588 172.55 366.336C172.778 366.084 172.952 365.784 173.072 365.436C173.204 365.088 173.27 364.704 173.27 364.284C173.27 363.876 173.204 363.498 173.072 363.15C172.952 362.802 172.778 362.502 172.55 362.25C172.334 361.998 172.076 361.806 171.776 361.674C171.476 361.53 171.152 361.458 170.804 361.458C170.456 361.458 170.132 361.53 169.832 361.674C169.532 361.818 169.268 362.016 169.04 362.268C168.824 362.52 168.65 362.82 168.518 363.168C168.398 363.516 168.338 363.894 168.338 364.302ZM192.016 369H189.604V363.708C189.604 362.952 189.472 362.4 189.208 362.052C188.956 361.704 188.602 361.53 188.146 361.53C187.666 361.53 187.216 361.716 186.796 362.088C186.376 362.448 186.076 362.922 185.896 363.51V369H183.484V363.708C183.484 362.952 183.352 362.4 183.088 362.052C182.836 361.704 182.482 361.53 182.026 361.53C181.558 361.53 181.108 361.71 180.676 362.07C180.256 362.43 179.956 362.904 179.776 363.492V369H177.364V359.568H179.542V361.314C179.89 360.702 180.364 360.234 180.964 359.91C181.576 359.574 182.272 359.406 183.052 359.406C183.844 359.406 184.456 359.598 184.888 359.982C185.32 360.366 185.596 360.84 185.716 361.404C186.1 360.756 186.586 360.264 187.174 359.928C187.762 359.58 188.434 359.406 189.19 359.406C189.766 359.406 190.24 359.514 190.612 359.73C190.984 359.946 191.272 360.228 191.476 360.576C191.68 360.924 191.818 361.32 191.89 361.764C191.974 362.208 192.016 362.658 192.016 363.114V369ZM198.49 369.18C197.734 369.18 197.05 369.054 196.438 368.802C195.826 368.538 195.304 368.184 194.872 367.74C194.44 367.296 194.104 366.78 193.864 366.192C193.636 365.604 193.522 364.986 193.522 364.338C193.522 363.666 193.636 363.036 193.864 362.448C194.092 361.848 194.422 361.326 194.854 360.882C195.286 360.426 195.808 360.066 196.42 359.802C197.044 359.538 197.74 359.406 198.508 359.406C199.276 359.406 199.96 359.538 200.56 359.802C201.172 360.066 201.688 360.42 202.108 360.864C202.54 361.308 202.864 361.824 203.08 362.412C203.308 363 203.422 363.612 203.422 364.248C203.422 364.404 203.416 364.554 203.404 364.698C203.404 364.842 203.392 364.962 203.368 365.058H196.078C196.114 365.43 196.204 365.76 196.348 366.048C196.492 366.336 196.678 366.582 196.906 366.786C197.134 366.99 197.392 367.146 197.68 367.254C197.968 367.362 198.268 367.416 198.58 367.416C199.06 367.416 199.51 367.302 199.93 367.074C200.362 366.834 200.656 366.522 200.812 366.138L202.882 366.714C202.534 367.434 201.976 368.028 201.208 368.496C200.452 368.952 199.546 369.18 198.49 369.18ZM200.938 363.492C200.878 362.784 200.614 362.22 200.146 361.8C199.69 361.368 199.132 361.152 198.472 361.152C198.148 361.152 197.842 361.212 197.554 361.332C197.278 361.44 197.032 361.596 196.816 361.8C196.6 362.004 196.42 362.25 196.276 362.538C196.144 362.826 196.066 363.144 196.042 363.492H200.938ZM219.745 365.706C219.745 366.246 219.637 366.72 219.421 367.128C219.205 367.536 218.905 367.878 218.521 368.154C218.149 368.43 217.711 368.64 217.207 368.784C216.715 368.928 216.187 369 215.623 369H209.449V356.22H216.289C216.733 356.22 217.135 356.316 217.495 356.508C217.855 356.7 218.161 356.952 218.413 357.264C218.665 357.564 218.857 357.912 218.989 358.308C219.133 358.692 219.205 359.082 219.205 359.478C219.205 360.102 219.049 360.69 218.737 361.242C218.425 361.782 217.969 362.184 217.369 362.448C218.101 362.664 218.677 363.054 219.097 363.618C219.529 364.17 219.745 364.866 219.745 365.706ZM217.243 365.238C217.243 365.01 217.201 364.794 217.117 364.59C217.045 364.374 216.943 364.188 216.811 364.032C216.679 363.876 216.523 363.756 216.343 363.672C216.163 363.576 215.965 363.528 215.749 363.528H211.933V366.894H215.623C215.851 366.894 216.061 366.852 216.253 366.768C216.457 366.684 216.631 366.57 216.775 366.426C216.919 366.27 217.033 366.09 217.117 365.886C217.201 365.682 217.243 365.466 217.243 365.238ZM211.933 358.344V361.566H215.245C215.665 361.566 216.019 361.422 216.307 361.134C216.607 360.846 216.757 360.45 216.757 359.946C216.757 359.454 216.619 359.064 216.343 358.776C216.079 358.488 215.749 358.344 215.353 358.344H211.933ZM224.024 369.18C223.568 369.18 223.142 369.108 222.746 368.964C222.35 368.808 222.008 368.598 221.72 368.334C221.432 368.058 221.204 367.74 221.036 367.38C220.88 367.02 220.802 366.624 220.802 366.192C220.802 365.748 220.898 365.34 221.09 364.968C221.294 364.584 221.57 364.26 221.918 363.996C222.278 363.732 222.704 363.528 223.196 363.384C223.688 363.228 224.228 363.15 224.816 363.15C225.236 363.15 225.644 363.186 226.04 363.258C226.448 363.33 226.808 363.432 227.12 363.564V363.024C227.12 362.4 226.94 361.92 226.58 361.584C226.232 361.248 225.71 361.08 225.014 361.08C224.51 361.08 224.018 361.17 223.538 361.35C223.058 361.53 222.566 361.794 222.062 362.142L221.324 360.612C222.536 359.808 223.844 359.406 225.248 359.406C226.604 359.406 227.654 359.742 228.398 360.414C229.154 361.074 229.532 362.034 229.532 363.294V366.228C229.532 366.48 229.574 366.66 229.658 366.768C229.754 366.876 229.904 366.936 230.108 366.948V369C229.7 369.084 229.346 369.126 229.046 369.126C228.59 369.126 228.236 369.024 227.984 368.82C227.744 368.616 227.594 368.346 227.534 368.01L227.48 367.488C227.06 368.04 226.55 368.46 225.95 368.748C225.35 369.036 224.708 369.18 224.024 369.18ZM224.708 367.416C225.116 367.416 225.5 367.344 225.86 367.2C226.232 367.056 226.52 366.864 226.724 366.624C226.988 366.42 227.12 366.192 227.12 365.94V364.86C226.832 364.752 226.52 364.668 226.184 364.608C225.848 364.536 225.524 364.5 225.212 364.5C224.588 364.5 224.078 364.644 223.682 364.932C223.286 365.208 223.088 365.562 223.088 365.994C223.088 366.402 223.244 366.744 223.556 367.02C223.868 367.284 224.252 367.416 224.708 367.416ZM231.192 364.284C231.192 363.624 231.306 363 231.534 362.412C231.762 361.824 232.092 361.308 232.524 360.864C232.956 360.42 233.478 360.066 234.09 359.802C234.702 359.538 235.392 359.406 236.16 359.406C237.192 359.406 238.068 359.628 238.788 360.072C239.52 360.516 240.066 361.098 240.426 361.818L238.068 362.538C237.864 362.19 237.594 361.926 237.258 361.746C236.922 361.554 236.55 361.458 236.142 361.458C235.794 361.458 235.47 361.53 235.17 361.674C234.87 361.806 234.606 361.998 234.378 362.25C234.162 362.49 233.988 362.784 233.856 363.132C233.736 363.48 233.676 363.864 233.676 364.284C233.676 364.704 233.742 365.088 233.874 365.436C234.006 365.784 234.18 366.084 234.396 366.336C234.624 366.588 234.888 366.786 235.188 366.93C235.488 367.062 235.806 367.128 236.142 367.128C236.574 367.128 236.97 367.02 237.33 366.804C237.702 366.588 237.96 366.324 238.104 366.012L240.462 366.732C240.138 367.452 239.604 368.04 238.86 368.496C238.116 368.952 237.222 369.18 236.178 369.18C235.41 369.18 234.72 369.048 234.108 368.784C233.496 368.52 232.974 368.166 232.542 367.722C232.11 367.266 231.774 366.744 231.534 366.156C231.306 365.556 231.192 364.932 231.192 364.284ZM248.39 369L245.654 364.914L244.358 366.192V369H241.946V355.86H244.358V363.834L248.138 359.586H250.712L247.202 363.582L250.964 369H248.39Z" fill="black"/>
<path d="M184.5 235V216.4C182 219.52 177 223.36 167.15 226.24C167.15 226.24 169.65 219.4 176.7 214.8C170.2 215.92 160.4 215.76 147 211C147 211 159.35 205.36 173.4 206.88C165.45 203 155.5 195.32 147.85 179.44C147.85 179.44 170.35 184.36 181.55 199.56C171.4 179.96 187 155 187 155C199.15 176.88 196.55 191.4 192.6 199.4C203.85 184.32 226.15 179.44 226.15 179.44C218.5 195.32 208.55 203 200.6 206.88C214.65 205.36 227 211 227 211C213.6 215.76 203.8 215.92 197.3 214.8C204.35 219.4 206.85 226.24 206.85 226.24C197 223.36 192 219.52 189.5 216.4V235H184.5Z" fill="white"/>
<path d="M301.664 55.2773C303.88 55.2774 306.011 56.1289 307.617 57.6557C307.738 57.7735 307.931 57.772 308.05 57.6523L309.206 56.4857C309.267 56.4249 309.3 56.3427 309.3 56.2571C309.299 56.1715 309.265 56.0897 309.204 56.0297C304.988 51.9901 298.339 51.9901 294.124 56.0297C294.063 56.0896 294.028 56.1715 294.027 56.257C294.027 56.3426 294.06 56.4249 294.121 56.4857L295.277 57.6523C295.396 57.7722 295.589 57.7737 295.71 57.6557C297.316 56.1288 299.448 55.2773 301.664 55.2773Z" fill="black"/>
<path d="M301.664 59.073C302.881 59.0729 304.055 59.5255 304.958 60.3427C305.08 60.4587 305.272 60.4562 305.391 60.337L306.546 59.1704C306.607 59.1092 306.64 59.0261 306.639 58.9399C306.639 58.8536 306.603 58.7713 306.541 58.7114C303.793 56.155 299.537 56.155 296.789 58.7114C296.727 58.7713 296.691 58.8537 296.69 58.9399C296.69 59.0262 296.723 59.1092 296.784 59.1704L297.939 60.337C298.058 60.4562 298.25 60.4587 298.372 60.3427C299.274 59.526 300.447 59.0735 301.664 59.073Z" fill="black"/>
<path d="M303.883 61.8573C303.945 61.7967 303.979 61.7133 303.977 61.6268C303.975 61.5403 303.938 61.4584 303.874 61.4003C302.598 60.3215 300.73 60.3215 299.454 61.4003C299.39 61.4583 299.352 61.5403 299.351 61.6268C299.349 61.7133 299.383 61.7967 299.444 61.8573L301.442 63.873C301.501 63.9323 301.581 63.9656 301.664 63.9656C301.747 63.9656 301.827 63.9323 301.885 63.873L303.883 61.8573Z" fill="black"/>
<path d="M273 60.0027H274C274.552 60.0027 275 60.4504 275 61.0027V63.0027C275 63.555 274.552 64.0027 274 64.0027H273C272.448 64.0027 272 63.555 272 63.0027V61.0027C272 60.4504 272.448 60.0027 273 60.0027Z" fill="black"/>
<path d="M277.667 58.0027H278.667C279.219 58.0027 279.667 58.4504 279.667 59.0027V63.0027C279.667 63.555 279.219 64.0027 278.667 64.0027H277.667C277.114 64.0027 276.667 63.555 276.667 63.0027V59.0027C276.667 58.4504 277.114 58.0027 277.667 58.0027Z" fill="black"/>
<path d="M282.334 55.6693H283.334C283.886 55.6693 284.334 56.117 284.334 56.6693V63.0026C284.334 63.5549 283.886 64.0026 283.334 64.0026H282.334C281.781 64.0026 281.333 63.5549 281.333 63.0026V56.6693C281.333 56.117 281.781 55.6693 282.334 55.6693Z" fill="black"/>
<path d="M287 53.3359H288C288.552 53.3359 289 53.7837 289 54.3359V63.0026C289 63.5549 288.552 64.0026 288 64.0026H287C286.448 64.0026 286 63.5549 286 63.0026V54.3359C286 53.7837 286.448 53.3359 287 53.3359V53.3359Z" fill="black"/>
<rect opacity="0.35" x="314.5" y="53.5" width="21" height="10.3333" rx="2.16667" stroke="black"/>
<path opacity="0.4" d="M337 56.6666V60.6666C337.805 60.3278 338.328 59.5398 338.328 58.6666C338.328 57.7935 337.805 57.0054 337 56.6666Z" fill="black"/>
<rect x="316" y="55" width="18" height="7.33333" rx="1.33333" fill="black"/>
<path d="M48.7675 57V55.065H52.3825V66H50.2225V57H48.7675ZM54.837 63.63C55.797 62.83 56.562 62.165 57.132 61.635C57.702 61.095 58.177 60.535 58.557 59.955C58.937 59.375 59.127 58.805 59.127 58.245C59.127 57.735 59.007 57.335 58.767 57.045C58.527 56.755 58.157 56.61 57.657 56.61C57.157 56.61 56.772 56.78 56.502 57.12C56.232 57.45 56.092 57.905 56.082 58.485H54.042C54.082 57.285 54.437 56.375 55.107 55.755C55.787 55.135 56.647 54.825 57.687 54.825C58.827 54.825 59.702 55.13 60.312 55.74C60.922 56.34 61.227 57.135 61.227 58.125C61.227 58.905 61.017 59.65 60.5971 60.36C60.177 61.07 59.697 61.69 59.157 62.22C58.617 62.74 57.912 63.37 57.042 64.11H61.4671V65.85H54.057V64.29L54.837 63.63ZM63.6803 66.105C63.3003 66.105 62.9853 65.99 62.7353 65.76C62.4953 65.52 62.3753 65.225 62.3753 64.875C62.3753 64.525 62.4953 64.235 62.7353 64.005C62.9853 63.765 63.3003 63.645 63.6803 63.645C64.0503 63.645 64.3553 63.765 64.5953 64.005C64.8353 64.235 64.9553 64.525 64.9553 64.875C64.9553 65.225 64.8353 65.52 64.5953 65.76C64.3553 65.99 64.0503 66.105 63.6803 66.105ZM63.6803 59.895C63.3003 59.895 62.9853 59.78 62.7353 59.55C62.4953 59.31 62.3753 59.015 62.3753 58.665C62.3753 58.315 62.4953 58.025 62.7353 57.795C62.9853 57.555 63.3003 57.435 63.6803 57.435C64.0503 57.435 64.3553 57.555 64.5953 57.795C64.8353 58.025 64.9553 58.315 64.9553 58.665C64.9553 59.015 64.8353 59.31 64.5953 59.55C64.3553 59.78 64.0503 59.895 63.6803 59.895ZM66.2008 57.945C66.2508 56.945 66.6008 56.175 67.2508 55.635C67.9108 55.085 68.7758 54.81 69.8458 54.81C70.5758 54.81 71.2008 54.94 71.7208 55.2C72.2408 55.45 72.6308 55.795 72.8908 56.235C73.1608 56.665 73.2958 57.155 73.2958 57.705C73.2958 58.335 73.1308 58.87 72.8008 59.31C72.4808 59.74 72.0958 60.03 71.6458 60.18V60.24C72.2258 60.42 72.6758 60.74 72.9958 61.2C73.3258 61.66 73.4908 62.25 73.4908 62.97C73.4908 63.57 73.3508 64.105 73.0708 64.575C72.8008 65.045 72.3958 65.415 71.8558 65.685C71.3258 65.945 70.6858 66.075 69.9358 66.075C68.8058 66.075 67.8858 65.79 67.1758 65.22C66.4658 64.65 66.0908 63.81 66.0508 62.7H68.0908C68.1108 63.19 68.2758 63.585 68.5858 63.885C68.9058 64.175 69.3408 64.32 69.8908 64.32C70.4008 64.32 70.7908 64.18 71.0608 63.9C71.3408 63.61 71.4808 63.24 71.4808 62.79C71.4808 62.19 71.2908 61.76 70.9108 61.5C70.5308 61.24 69.9408 61.11 69.1408 61.11H68.7058V59.385H69.1408C70.5608 59.385 71.2708 58.91 71.2708 57.96C71.2708 57.53 71.1408 57.195 70.8808 56.955C70.6308 56.715 70.2658 56.595 69.7858 56.595C69.3158 56.595 68.9508 56.725 68.6908 56.985C68.4408 57.235 68.2958 57.555 68.2558 57.945H66.2008ZM74.8703 60.39C74.8703 58.66 75.1803 57.305 75.8003 56.325C76.4303 55.345 77.4703 54.855 78.9203 54.855C80.3703 54.855 81.4053 55.345 82.0253 56.325C82.6553 57.305 82.9703 58.66 82.9703 60.39C82.9703 62.13 82.6553 63.495 82.0253 64.485C81.4053 65.475 80.3703 65.97 78.9203 65.97C77.4703 65.97 76.4303 65.475 75.8003 64.485C75.1803 63.495 74.8703 62.13 74.8703 60.39ZM80.9003 60.39C80.9003 59.65 80.8503 59.03 80.7503 58.53C80.6603 58.02 80.4703 57.605 80.1803 57.285C79.9003 56.965 79.4803 56.805 78.9203 56.805C78.3603 56.805 77.9353 56.965 77.6453 57.285C77.3653 57.605 77.1753 58.02 77.0753 58.53C76.9853 59.03 76.9403 59.65 76.9403 60.39C76.9403 61.15 76.9853 61.79 77.0753 62.31C77.1653 62.82 77.3553 63.235 77.6453 63.555C77.9353 63.865 78.3603 64.02 78.9203 64.02C79.4803 64.02 79.9053 63.865 80.1953 63.555C80.4853 63.235 80.6753 62.82 80.7653 62.31C80.8553 61.79 80.9003 61.15 80.9003 60.39Z" fill="black"/>
</svg>
