<svg width="375" height="812" viewBox="0 0 375 812" fill="none" xmlns="http://www.w3.org/2000/svg">
<rect width="375" height="812" rx="30" fill="black"/>
<rect x="16" y="26" width="342" height="760" rx="10" fill="white"/>
<rect x="17" y="26" width="342" height="760" rx="10" fill="white"/>
<path d="M116.782 248.64C114.19 251.04 111.198 252.24 107.806 252.24C105.566 252.24 103.454 251.824 101.47 250.992C99.4858 250.128 97.7418 248.928 96.2378 247.392C94.7658 245.856 93.5978 244.016 92.7338 241.872C91.8698 239.696 91.4378 237.312 91.4378 234.72C91.4378 232.384 91.8698 230.176 92.7338 228.096C93.5978 226.016 94.7818 224.208 96.2858 222.672C97.8218 221.136 99.6298 219.92 101.71 219.024C103.79 218.128 106.03 217.68 108.43 217.68C111.598 217.68 114.366 218.352 116.734 219.696C119.102 221.008 120.878 222.816 122.062 225.12L116.206 229.536C115.438 228 114.318 226.816 112.846 225.984C111.406 225.12 109.838 224.688 108.142 224.688C106.83 224.688 105.63 224.96 104.542 225.504C103.486 226.016 102.574 226.752 101.806 227.712C101.038 228.64 100.446 229.728 100.03 230.976C99.6138 232.224 99.4058 233.568 99.4058 235.008C99.4058 236.48 99.6298 237.84 100.078 239.088C100.526 240.336 101.15 241.424 101.95 242.352C102.75 243.248 103.694 243.952 104.782 244.464C105.902 244.976 107.134 245.232 108.478 245.232C111.55 245.232 114.318 243.808 116.782 240.96V239.904H110.158V234.192H123.31V252H116.782V248.64ZM152.466 245.088V252H128.514V217.92H152.034V224.832H136.386V231.456H149.826V237.84H136.386V245.088H152.466ZM183.216 224.832H172.848V252H164.976V224.832H154.56V217.92H183.216V224.832ZM196.905 252V217.92H204.777V245.088H221.289V252H196.905ZM224.983 252V217.92H232.855V252H224.983ZM265.341 224.832H254.973V252H247.101V224.832H236.685V217.92H265.341V224.832ZM270.05 238.464V217.584H277.73V238.464H270.05ZM270.05 252V244.032H277.73V252H270.05Z" fill="#3E5C01"/>
<circle cx="183" cy="131" r="50" fill="#3E5C01"/>
<rect x="55.25" y="343.25" width="261.5" height="40.5" rx="3.75" fill="white" stroke="#3E5C01" stroke-width="0.5"/>
<rect x="55.25" y="410.25" width="261.5" height="40.5" rx="3.75" fill="white" stroke="#3E5C01" stroke-width="0.5"/>
<rect x="55.25" y="477.25" width="261.5" height="40.5" rx="3.75" fill="white" stroke="#3E5C01" stroke-width="0.5"/>
<rect x="55.25" y="544.25" width="261.5" height="40.5" rx="3.75" fill="white" stroke="#3E5C01" stroke-width="0.5"/>
<rect x="55.25" y="611.25" width="261.5" height="40.5" rx="3.75" fill="white" stroke="#3E5C01" stroke-width="0.5"/>
<rect x="80" y="685" width="212" height="41" rx="4" fill="#3E5C01"/>
<path d="M159.116 702.616C159.041 702.541 158.903 702.44 158.7 702.312C158.508 702.184 158.268 702.061 157.98 701.944C157.703 701.816 157.399 701.709 157.068 701.624C156.737 701.539 156.401 701.496 156.06 701.496C155.452 701.496 154.999 701.608 154.7 701.832C154.401 702.056 154.252 702.371 154.252 702.776C154.252 703.011 154.305 703.208 154.412 703.368C154.529 703.517 154.695 703.651 154.908 703.768C155.121 703.885 155.388 703.992 155.708 704.088C156.039 704.184 156.417 704.285 156.844 704.392C157.399 704.541 157.9 704.701 158.348 704.872C158.807 705.043 159.191 705.256 159.5 705.512C159.82 705.768 160.065 706.077 160.236 706.44C160.407 706.792 160.492 707.229 160.492 707.752C160.492 708.36 160.375 708.883 160.14 709.32C159.916 709.747 159.607 710.093 159.212 710.36C158.828 710.627 158.38 710.824 157.868 710.952C157.367 711.069 156.839 711.128 156.284 711.128C155.431 711.128 154.588 711 153.756 710.744C152.924 710.488 152.177 710.125 151.516 709.656L152.492 707.752C152.588 707.848 152.759 707.976 153.004 708.136C153.26 708.285 153.559 708.44 153.9 708.6C154.241 708.749 154.62 708.877 155.036 708.984C155.452 709.091 155.879 709.144 156.316 709.144C157.532 709.144 158.14 708.755 158.14 707.976C158.14 707.731 158.071 707.523 157.932 707.352C157.793 707.181 157.596 707.032 157.34 706.904C157.084 706.776 156.775 706.659 156.412 706.552C156.049 706.445 155.644 706.328 155.196 706.2C154.652 706.051 154.177 705.891 153.772 705.72C153.377 705.539 153.047 705.331 152.78 705.096C152.513 704.851 152.311 704.573 152.172 704.264C152.044 703.944 151.98 703.565 151.98 703.128C151.98 702.552 152.087 702.04 152.3 701.592C152.513 701.144 152.807 700.771 153.18 700.472C153.564 700.173 154.007 699.949 154.508 699.8C155.009 699.64 155.548 699.56 156.124 699.56C156.924 699.56 157.66 699.688 158.332 699.944C159.004 700.189 159.591 700.483 160.092 700.824L159.116 702.616ZM161.953 711V702.616H164.097V711H161.953ZM161.953 701.448V699.32H164.097V701.448H161.953ZM169.311 711.048C168.745 711.048 168.233 710.936 167.775 710.712C167.316 710.488 166.916 710.184 166.575 709.8C166.244 709.405 165.988 708.952 165.807 708.44C165.625 707.928 165.535 707.384 165.535 706.808C165.535 706.2 165.631 705.635 165.823 705.112C166.015 704.589 166.281 704.131 166.623 703.736C166.964 703.341 167.375 703.032 167.855 702.808C168.335 702.584 168.863 702.472 169.439 702.472C170.089 702.472 170.66 702.621 171.151 702.92C171.641 703.208 172.047 703.597 172.367 704.088V702.616H174.239V710.6C174.239 711.219 174.121 711.773 173.887 712.264C173.652 712.755 173.327 713.171 172.911 713.512C172.505 713.853 172.015 714.115 171.439 714.296C170.873 714.477 170.255 714.568 169.583 714.568C168.665 714.568 167.892 714.413 167.263 714.104C166.644 713.805 166.111 713.379 165.663 712.824L166.831 711.688C167.151 712.083 167.551 712.392 168.031 712.616C168.521 712.84 169.039 712.952 169.583 712.952C169.913 712.952 170.228 712.904 170.527 712.808C170.836 712.723 171.108 712.584 171.343 712.392C171.577 712.2 171.759 711.955 171.887 711.656C172.025 711.357 172.095 711.005 172.095 710.6V709.544C171.817 710.024 171.428 710.397 170.927 710.664C170.425 710.92 169.887 711.048 169.311 711.048ZM170.031 709.336C170.265 709.336 170.489 709.299 170.703 709.224C170.916 709.149 171.113 709.048 171.295 708.92C171.476 708.792 171.636 708.643 171.775 708.472C171.913 708.301 172.02 708.12 172.095 707.928V705.928C171.903 705.437 171.599 705.043 171.183 704.744C170.777 704.445 170.351 704.296 169.903 704.296C169.572 704.296 169.273 704.371 169.007 704.52C168.74 704.659 168.511 704.851 168.319 705.096C168.127 705.331 167.977 705.603 167.871 705.912C167.775 706.221 167.727 706.541 167.727 706.872C167.727 707.213 167.785 707.533 167.903 707.832C168.02 708.131 168.18 708.392 168.383 708.616C168.596 708.84 168.841 709.016 169.119 709.144C169.396 709.272 169.7 709.336 170.031 709.336ZM183.963 711H181.819V706.296C181.819 705.624 181.702 705.133 181.467 704.824C181.233 704.515 180.907 704.36 180.491 704.36C180.278 704.36 180.059 704.403 179.835 704.488C179.611 704.573 179.398 704.696 179.195 704.856C179.003 705.005 178.827 705.187 178.667 705.4C178.507 705.613 178.39 705.848 178.315 706.104V711H176.171V702.616H178.107V704.168C178.417 703.635 178.865 703.219 179.451 702.92C180.038 702.621 180.699 702.472 181.435 702.472C181.958 702.472 182.385 702.568 182.715 702.76C183.046 702.952 183.302 703.203 183.483 703.512C183.665 703.821 183.787 704.173 183.851 704.568C183.926 704.963 183.963 705.363 183.963 705.768V711ZM194.679 709.128C195.202 709.128 195.639 709.021 195.991 708.808C196.354 708.595 196.642 708.317 196.855 707.976C197.079 707.635 197.234 707.245 197.319 706.808C197.415 706.36 197.463 705.901 197.463 705.432V699.64H199.655V705.432C199.655 706.211 199.559 706.941 199.367 707.624C199.186 708.307 198.893 708.904 198.487 709.416C198.093 709.928 197.581 710.333 196.951 710.632C196.322 710.931 195.57 711.08 194.695 711.08C193.789 711.08 193.015 710.925 192.375 710.616C191.746 710.296 191.234 709.88 190.839 709.368C190.445 708.845 190.157 708.243 189.975 707.56C189.805 706.877 189.719 706.168 189.719 705.432V699.64H191.927V705.432C191.927 705.912 191.97 706.376 192.055 706.824C192.151 707.261 192.306 707.651 192.519 707.992C192.743 708.333 193.031 708.611 193.383 708.824C193.735 709.027 194.167 709.128 194.679 709.128ZM206.695 711.16C206.034 711.16 205.458 711.016 204.967 710.728C204.477 710.429 204.093 710.029 203.815 709.528V714.408H201.671V702.616H203.543V704.056C203.853 703.565 204.253 703.181 204.743 702.904C205.234 702.616 205.799 702.472 206.439 702.472C207.005 702.472 207.527 702.589 208.007 702.824C208.487 703.048 208.898 703.357 209.239 703.752C209.591 704.136 209.863 704.595 210.055 705.128C210.258 705.651 210.359 706.205 210.359 706.792C210.359 707.4 210.269 707.971 210.087 708.504C209.906 709.037 209.65 709.501 209.319 709.896C208.999 710.291 208.615 710.6 208.167 710.824C207.719 711.048 207.229 711.16 206.695 711.16ZM205.975 709.336C206.295 709.336 206.589 709.267 206.855 709.128C207.133 708.989 207.367 708.803 207.559 708.568C207.751 708.333 207.901 708.061 208.007 707.752C208.114 707.443 208.167 707.123 208.167 706.792C208.167 706.44 208.109 706.115 207.991 705.816C207.874 705.507 207.709 705.24 207.495 705.016C207.293 704.792 207.047 704.616 206.759 704.488C206.482 704.36 206.178 704.296 205.847 704.296C205.645 704.296 205.437 704.333 205.223 704.408C205.01 704.472 204.813 704.568 204.631 704.696C204.45 704.824 204.285 704.973 204.135 705.144C203.997 705.315 203.89 705.501 203.815 705.704V707.672C204.007 708.152 204.301 708.552 204.695 708.872C205.09 709.181 205.517 709.336 205.975 709.336Z" fill="white"/>
<path d="M67.8161 357.64L71.5281 363.752L75.2721 357.64H76.4881L72.0881 364.776V369H70.9681V364.744L66.5841 357.64H67.8161ZM80.0176 369.16C79.4096 369.16 78.855 369.048 78.3536 368.824C77.8523 368.589 77.415 368.275 77.0416 367.88C76.679 367.485 76.3963 367.027 76.1936 366.504C75.991 365.981 75.8896 365.432 75.8896 364.856C75.8896 364.269 75.991 363.715 76.1936 363.192C76.407 362.669 76.695 362.211 77.0576 361.816C77.431 361.421 77.8683 361.107 78.3696 360.872C78.871 360.637 79.4203 360.52 80.0176 360.52C80.615 360.52 81.1643 360.637 81.6656 360.872C82.1776 361.107 82.615 361.421 82.9776 361.816C83.351 362.211 83.639 362.669 83.8416 363.192C84.055 363.715 84.1616 364.269 84.1616 364.856C84.1616 365.432 84.0603 365.981 83.8576 366.504C83.655 367.027 83.367 367.485 82.9936 367.88C82.631 368.275 82.1936 368.589 81.6816 368.824C81.1803 369.048 80.6256 369.16 80.0176 369.16ZM76.9936 364.872C76.9936 365.341 77.0736 365.779 77.2336 366.184C77.3936 366.579 77.607 366.931 77.8736 367.24C78.151 367.539 78.471 367.773 78.8336 367.944C79.207 368.115 79.6016 368.2 80.0176 368.2C80.4336 368.2 80.823 368.115 81.1856 367.944C81.559 367.763 81.8843 367.523 82.1616 367.224C82.439 366.915 82.6576 366.557 82.8176 366.152C82.9776 365.747 83.0576 365.309 83.0576 364.84C83.0576 364.381 82.9776 363.949 82.8176 363.544C82.6576 363.128 82.439 362.771 82.1616 362.472C81.8843 362.163 81.559 361.923 81.1856 361.752C80.823 361.571 80.4336 361.48 80.0176 361.48C79.6016 361.48 79.2123 361.571 78.8496 361.752C78.487 361.923 78.167 362.163 77.8896 362.472C77.6123 362.781 77.3936 363.144 77.2336 363.56C77.0736 363.965 76.9936 364.403 76.9936 364.872ZM88.5893 369.16C87.6826 369.16 87.0053 368.861 86.5573 368.264C86.1199 367.656 85.9013 366.755 85.9013 365.56V360.664H86.9893V365.368C86.9893 367.256 87.6346 368.2 88.9253 368.2C89.2453 368.2 89.5599 368.147 89.8693 368.04C90.1786 367.933 90.4613 367.779 90.7173 367.576C90.9839 367.373 91.2186 367.133 91.4213 366.856C91.6346 366.579 91.8053 366.264 91.9333 365.912V360.664H93.0213V367.592C93.0213 367.891 93.1493 368.04 93.4053 368.04V369C93.2773 369.021 93.1706 369.032 93.0853 369.032C93.0106 369.032 92.9573 369.032 92.9253 369.032C92.6693 369.021 92.4613 368.931 92.3013 368.76C92.1413 368.589 92.0613 368.36 92.0613 368.072V367.112C91.6986 367.763 91.2026 368.269 90.5733 368.632C89.9546 368.984 89.2933 369.16 88.5893 369.16ZM99.6413 361.624C98.9053 361.645 98.2653 361.848 97.7213 362.232C97.1773 362.616 96.7933 363.144 96.5693 363.816V369H95.4813V360.664H96.5053V362.664C96.8146 362.024 97.2306 361.523 97.7533 361.16C98.2759 360.797 98.8359 360.616 99.4333 360.616C99.5186 360.616 99.5879 360.621 99.6413 360.632V361.624ZM106.122 359.72V369H105.002V357.64H105.866L113.386 367.096V357.656H114.506V369H113.53L106.122 359.72ZM119.155 369.16C118.761 369.16 118.393 369.096 118.051 368.968C117.721 368.829 117.427 368.643 117.171 368.408C116.926 368.173 116.734 367.901 116.595 367.592C116.457 367.272 116.387 366.931 116.387 366.568C116.387 366.205 116.473 365.869 116.643 365.56C116.814 365.251 117.054 364.984 117.363 364.76C117.673 364.536 118.041 364.365 118.467 364.248C118.894 364.12 119.363 364.056 119.875 364.056C120.302 364.056 120.734 364.093 121.171 364.168C121.609 364.243 121.998 364.349 122.339 364.488V363.736C122.339 363 122.131 362.419 121.715 361.992C121.299 361.555 120.723 361.336 119.987 361.336C119.561 361.336 119.123 361.421 118.675 361.592C118.227 361.763 117.774 362.008 117.315 362.328L116.931 361.608C118.009 360.883 119.054 360.52 120.067 360.52C121.113 360.52 121.934 360.813 122.531 361.4C123.129 361.987 123.427 362.797 123.427 363.832V367.592C123.427 367.891 123.561 368.04 123.827 368.04V369C123.646 369.032 123.507 369.048 123.411 369.048C123.134 369.048 122.915 368.979 122.755 368.84C122.606 368.701 122.526 368.509 122.515 368.264L122.483 367.608C122.099 368.109 121.614 368.493 121.027 368.76C120.451 369.027 119.827 369.16 119.155 369.16ZM119.411 368.328C119.977 368.328 120.494 368.221 120.963 368.008C121.443 367.795 121.806 367.512 122.051 367.16C122.147 367.064 122.217 366.963 122.259 366.856C122.313 366.739 122.339 366.632 122.339 366.536V365.176C121.977 365.037 121.598 364.931 121.203 364.856C120.819 364.781 120.425 364.744 120.019 364.744C119.251 364.744 118.627 364.904 118.147 365.224C117.667 365.544 117.427 365.965 117.427 366.488C117.427 366.744 117.475 366.984 117.571 367.208C117.678 367.432 117.817 367.629 117.987 367.8C118.169 367.96 118.382 368.088 118.627 368.184C118.873 368.28 119.134 368.328 119.411 368.328ZM138.178 369H137.09V364.344C137.09 363.373 136.935 362.659 136.626 362.2C136.317 361.741 135.858 361.512 135.25 361.512C134.93 361.512 134.626 361.571 134.338 361.688C134.061 361.805 133.799 361.971 133.554 362.184C133.319 362.397 133.111 362.653 132.93 362.952C132.749 363.24 132.61 363.56 132.514 363.912V369H131.426V364.344C131.426 363.352 131.277 362.632 130.978 362.184C130.679 361.736 130.221 361.512 129.602 361.512C128.973 361.512 128.413 361.731 127.922 362.168C127.431 362.605 127.079 363.181 126.866 363.896V369H125.778V360.664H126.77V362.552C127.111 361.912 127.559 361.416 128.114 361.064C128.669 360.701 129.282 360.52 129.954 360.52C130.658 360.52 131.218 360.717 131.634 361.112C132.061 361.507 132.322 362.024 132.418 362.664C133.197 361.235 134.269 360.52 135.634 360.52C136.103 360.52 136.498 360.605 136.818 360.776C137.149 360.947 137.41 361.192 137.602 361.512C137.805 361.821 137.949 362.2 138.034 362.648C138.13 363.085 138.178 363.576 138.178 364.12V369ZM144.081 369.16C143.473 369.16 142.913 369.048 142.401 368.824C141.9 368.589 141.463 368.275 141.089 367.88C140.716 367.475 140.423 367.011 140.209 366.488C140.007 365.965 139.905 365.405 139.905 364.808C139.905 364.221 140.007 363.672 140.209 363.16C140.423 362.637 140.711 362.184 141.073 361.8C141.447 361.405 141.889 361.096 142.401 360.872C142.913 360.637 143.468 360.52 144.065 360.52C144.673 360.52 145.228 360.637 145.729 360.872C146.241 361.096 146.679 361.405 147.041 361.8C147.404 362.195 147.687 362.648 147.889 363.16C148.092 363.672 148.193 364.216 148.193 364.792C148.193 364.877 148.193 364.963 148.193 365.048C148.193 365.133 148.188 365.192 148.177 365.224H141.041C141.073 365.672 141.175 366.088 141.345 366.472C141.527 366.845 141.756 367.171 142.033 367.448C142.311 367.725 142.625 367.944 142.977 368.104C143.34 368.253 143.724 368.328 144.129 368.328C144.396 368.328 144.663 368.291 144.929 368.216C145.196 368.141 145.441 368.04 145.665 367.912C145.889 367.784 146.092 367.629 146.273 367.448C146.455 367.256 146.593 367.048 146.689 366.824L147.633 367.08C147.505 367.389 147.324 367.672 147.089 367.928C146.855 368.173 146.583 368.392 146.273 368.584C145.964 368.765 145.623 368.904 145.249 369C144.876 369.107 144.487 369.16 144.081 369.16ZM147.153 364.392C147.121 363.944 147.015 363.539 146.833 363.176C146.663 362.803 146.439 362.483 146.161 362.216C145.895 361.949 145.58 361.741 145.217 361.592C144.865 361.443 144.487 361.368 144.081 361.368C143.676 361.368 143.292 361.443 142.929 361.592C142.567 361.741 142.247 361.949 141.969 362.216C141.703 362.483 141.484 362.803 141.313 363.176C141.153 363.549 141.057 363.955 141.025 364.392H147.153Z" fill="#3E5C01" fill-opacity="0.4"/>
<path d="M77.0951 435.008V436H69.4631V424.64H76.9511V425.632H70.5831V429.728H76.1351V430.672H70.5831V435.008H77.0951ZM85.9033 436H84.8153V431.344C84.8153 430.352 84.666 429.632 84.3673 429.184C84.0793 428.736 83.6313 428.512 83.0233 428.512C82.7033 428.512 82.3833 428.571 82.0633 428.688C81.7433 428.805 81.4446 428.971 81.1673 429.184C80.9006 429.397 80.6606 429.653 80.4473 429.952C80.234 430.24 80.0793 430.555 79.9833 430.896V436H78.8953V427.664H79.8873V429.552C80.2286 428.944 80.714 428.453 81.3433 428.08C81.9833 427.707 82.6766 427.52 83.4233 427.52C83.882 427.52 84.2713 427.605 84.5913 427.776C84.9113 427.947 85.1673 428.187 85.3593 428.496C85.5513 428.805 85.69 429.184 85.7753 429.632C85.8606 430.08 85.9033 430.576 85.9033 431.12V436ZM92.1453 435.6C92.0813 435.632 91.9853 435.675 91.8573 435.728C91.74 435.781 91.6013 435.835 91.4413 435.888C91.2813 435.941 91.1 435.989 90.8973 436.032C90.6946 436.075 90.4813 436.096 90.2573 436.096C90.0226 436.096 89.7986 436.064 89.5853 436C89.372 435.936 89.1853 435.84 89.0253 435.712C88.8653 435.573 88.7373 435.403 88.6413 435.2C88.5453 434.997 88.4973 434.763 88.4973 434.496V428.528H87.3453V427.664H88.4973V424.848H89.5853V427.664H91.5053V428.528H89.5853V434.192C89.6066 434.501 89.7133 434.731 89.9053 434.88C90.108 435.019 90.3373 435.088 90.5933 435.088C90.9026 435.088 91.1746 435.04 91.4093 434.944C91.644 434.837 91.7933 434.763 91.8573 434.72L92.1453 435.6ZM96.9016 436.16C96.2936 436.16 95.7336 436.048 95.2216 435.824C94.7202 435.589 94.2829 435.275 93.9096 434.88C93.5362 434.475 93.2429 434.011 93.0296 433.488C92.8269 432.965 92.7256 432.405 92.7256 431.808C92.7256 431.221 92.8269 430.672 93.0296 430.16C93.2429 429.637 93.5309 429.184 93.8936 428.8C94.2669 428.405 94.7096 428.096 95.2216 427.872C95.7336 427.637 96.2882 427.52 96.8856 427.52C97.4936 427.52 98.0482 427.637 98.5496 427.872C99.0616 428.096 99.4989 428.405 99.8616 428.8C100.224 429.195 100.507 429.648 100.71 430.16C100.912 430.672 101.014 431.216 101.014 431.792C101.014 431.877 101.014 431.963 101.014 432.048C101.014 432.133 101.008 432.192 100.998 432.224H93.8616C93.8936 432.672 93.9949 433.088 94.1656 433.472C94.3469 433.845 94.5762 434.171 94.8536 434.448C95.1309 434.725 95.4456 434.944 95.7976 435.104C96.1602 435.253 96.5442 435.328 96.9496 435.328C97.2162 435.328 97.4829 435.291 97.7496 435.216C98.0162 435.141 98.2616 435.04 98.4856 434.912C98.7096 434.784 98.9122 434.629 99.0936 434.448C99.2749 434.256 99.4136 434.048 99.5096 433.824L100.454 434.08C100.326 434.389 100.144 434.672 99.9096 434.928C99.6749 435.173 99.4029 435.392 99.0936 435.584C98.7842 435.765 98.4429 435.904 98.0696 436C97.6962 436.107 97.3069 436.16 96.9016 436.16ZM99.9736 431.392C99.9416 430.944 99.8349 430.539 99.6536 430.176C99.4829 429.803 99.2589 429.483 98.9816 429.216C98.7149 428.949 98.4002 428.741 98.0376 428.592C97.6856 428.443 97.3069 428.368 96.9016 428.368C96.4962 428.368 96.1122 428.443 95.7496 428.592C95.3869 428.741 95.0669 428.949 94.7896 429.216C94.5229 429.483 94.3042 429.803 94.1336 430.176C93.9736 430.549 93.8776 430.955 93.8456 431.392H99.9736ZM106.852 428.624C106.116 428.645 105.476 428.848 104.932 429.232C104.388 429.616 104.004 430.144 103.78 430.816V436H102.692V427.664H103.716V429.664C104.026 429.024 104.442 428.523 104.964 428.16C105.487 427.797 106.047 427.616 106.644 427.616C106.73 427.616 106.799 427.621 106.852 427.632V428.624ZM112.016 438.56C112.101 438.571 112.181 438.576 112.256 438.576C112.341 438.587 112.421 438.592 112.496 438.592C112.688 438.592 112.837 438.565 112.944 438.512C113.061 438.459 113.173 438.341 113.28 438.16C113.387 437.979 113.504 437.717 113.632 437.376C113.771 437.035 113.963 436.576 114.208 436L110.576 427.664H111.696L114.784 434.992L117.648 427.664H118.688L114.368 438.416C114.251 438.725 114.053 438.992 113.776 439.216C113.509 439.451 113.141 439.568 112.672 439.568C112.565 439.568 112.464 439.563 112.368 439.552C112.272 439.552 112.155 439.541 112.016 439.52V438.56ZM123.479 436.16C122.871 436.16 122.316 436.048 121.815 435.824C121.313 435.589 120.876 435.275 120.503 434.88C120.14 434.485 119.857 434.027 119.655 433.504C119.452 432.981 119.351 432.432 119.351 431.856C119.351 431.269 119.452 430.715 119.655 430.192C119.868 429.669 120.156 429.211 120.519 428.816C120.892 428.421 121.329 428.107 121.831 427.872C122.332 427.637 122.881 427.52 123.479 427.52C124.076 427.52 124.625 427.637 125.127 427.872C125.639 428.107 126.076 428.421 126.439 428.816C126.812 429.211 127.1 429.669 127.303 430.192C127.516 430.715 127.623 431.269 127.623 431.856C127.623 432.432 127.521 432.981 127.319 433.504C127.116 434.027 126.828 434.485 126.455 434.88C126.092 435.275 125.655 435.589 125.143 435.824C124.641 436.048 124.087 436.16 123.479 436.16ZM120.455 431.872C120.455 432.341 120.535 432.779 120.695 433.184C120.855 433.579 121.068 433.931 121.335 434.24C121.612 434.539 121.932 434.773 122.295 434.944C122.668 435.115 123.063 435.2 123.479 435.2C123.895 435.2 124.284 435.115 124.647 434.944C125.02 434.763 125.345 434.523 125.623 434.224C125.9 433.915 126.119 433.557 126.279 433.152C126.439 432.747 126.519 432.309 126.519 431.84C126.519 431.381 126.439 430.949 126.279 430.544C126.119 430.128 125.9 429.771 125.623 429.472C125.345 429.163 125.02 428.923 124.647 428.752C124.284 428.571 123.895 428.48 123.479 428.48C123.063 428.48 122.673 428.571 122.311 428.752C121.948 428.923 121.628 429.163 121.351 429.472C121.073 429.781 120.855 430.144 120.695 430.56C120.535 430.965 120.455 431.403 120.455 431.872ZM132.05 436.16C131.144 436.16 130.466 435.861 130.018 435.264C129.581 434.656 129.362 433.755 129.362 432.56V427.664H130.45V432.368C130.45 434.256 131.096 435.2 132.386 435.2C132.706 435.2 133.021 435.147 133.33 435.04C133.64 434.933 133.922 434.779 134.178 434.576C134.445 434.373 134.68 434.133 134.882 433.856C135.096 433.579 135.266 433.264 135.394 432.912V427.664H136.482V434.592C136.482 434.891 136.61 435.04 136.866 435.04V436C136.738 436.021 136.632 436.032 136.546 436.032C136.472 436.032 136.418 436.032 136.386 436.032C136.13 436.021 135.922 435.931 135.762 435.76C135.602 435.589 135.522 435.36 135.522 435.072V434.112C135.16 434.763 134.664 435.269 134.034 435.632C133.416 435.984 132.754 436.16 132.05 436.16ZM143.102 428.624C142.366 428.645 141.726 428.848 141.182 429.232C140.638 429.616 140.254 430.144 140.03 430.816V436H138.942V427.664H139.966V429.664C140.276 429.024 140.692 428.523 141.214 428.16C141.737 427.797 142.297 427.616 142.894 427.616C142.98 427.616 143.049 427.621 143.102 427.632V428.624ZM156.095 435.008V436H148.463V424.64H155.951V425.632H149.583V429.728H155.135V430.672H149.583V435.008H156.095ZM170.295 436H169.207V431.344C169.207 430.373 169.053 429.659 168.743 429.2C168.434 428.741 167.975 428.512 167.367 428.512C167.047 428.512 166.743 428.571 166.455 428.688C166.178 428.805 165.917 428.971 165.671 429.184C165.437 429.397 165.229 429.653 165.047 429.952C164.866 430.24 164.727 430.56 164.631 430.912V436H163.543V431.344C163.543 430.352 163.394 429.632 163.095 429.184C162.797 428.736 162.338 428.512 161.719 428.512C161.09 428.512 160.53 428.731 160.039 429.168C159.549 429.605 159.197 430.181 158.983 430.896V436H157.895V427.664H158.887V429.552C159.229 428.912 159.677 428.416 160.231 428.064C160.786 427.701 161.399 427.52 162.071 427.52C162.775 427.52 163.335 427.717 163.751 428.112C164.178 428.507 164.439 429.024 164.535 429.664C165.314 428.235 166.386 427.52 167.751 427.52C168.221 427.52 168.615 427.605 168.935 427.776C169.266 427.947 169.527 428.192 169.719 428.512C169.922 428.821 170.066 429.2 170.151 429.648C170.247 430.085 170.295 430.576 170.295 431.12V436ZM174.694 436.16C174.3 436.16 173.932 436.096 173.59 435.968C173.26 435.829 172.966 435.643 172.71 435.408C172.465 435.173 172.273 434.901 172.134 434.592C171.996 434.272 171.926 433.931 171.926 433.568C171.926 433.205 172.012 432.869 172.182 432.56C172.353 432.251 172.593 431.984 172.902 431.76C173.212 431.536 173.58 431.365 174.006 431.248C174.433 431.12 174.902 431.056 175.414 431.056C175.841 431.056 176.273 431.093 176.71 431.168C177.148 431.243 177.537 431.349 177.878 431.488V430.736C177.878 430 177.67 429.419 177.254 428.992C176.838 428.555 176.262 428.336 175.526 428.336C175.1 428.336 174.662 428.421 174.214 428.592C173.766 428.763 173.313 429.008 172.854 429.328L172.47 428.608C173.548 427.883 174.593 427.52 175.606 427.52C176.652 427.52 177.473 427.813 178.07 428.4C178.668 428.987 178.966 429.797 178.966 430.832V434.592C178.966 434.891 179.1 435.04 179.366 435.04V436C179.185 436.032 179.046 436.048 178.95 436.048C178.673 436.048 178.454 435.979 178.294 435.84C178.145 435.701 178.065 435.509 178.054 435.264L178.022 434.608C177.638 435.109 177.153 435.493 176.566 435.76C175.99 436.027 175.366 436.16 174.694 436.16ZM174.95 435.328C175.516 435.328 176.033 435.221 176.502 435.008C176.982 434.795 177.345 434.512 177.59 434.16C177.686 434.064 177.756 433.963 177.798 433.856C177.852 433.739 177.878 433.632 177.878 433.536V432.176C177.516 432.037 177.137 431.931 176.742 431.856C176.358 431.781 175.964 431.744 175.558 431.744C174.79 431.744 174.166 431.904 173.686 432.224C173.206 432.544 172.966 432.965 172.966 433.488C172.966 433.744 173.014 433.984 173.11 434.208C173.217 434.432 173.356 434.629 173.526 434.8C173.708 434.96 173.921 435.088 174.166 435.184C174.412 435.28 174.673 435.328 174.95 435.328ZM181.317 436V427.664H182.405V436H181.317ZM181.317 425.92V424.32H182.405V425.92H181.317ZM184.85 424.32H185.938V434.112C185.938 434.421 186.023 434.667 186.194 434.848C186.364 435.019 186.604 435.104 186.914 435.104C187.031 435.104 187.17 435.088 187.33 435.056C187.49 435.024 187.639 434.981 187.778 434.928L187.97 435.808C187.767 435.893 187.516 435.963 187.218 436.016C186.93 436.069 186.679 436.096 186.466 436.096C185.964 436.096 185.57 435.957 185.282 435.68C184.994 435.392 184.85 434.992 184.85 434.48V424.32Z" fill="#3E5C01" fill-opacity="0.4"/>
<path d="M71.7443 503V491.64H76.4483C76.939 491.64 77.387 491.747 77.7923 491.96C78.2083 492.163 78.5656 492.435 78.8643 492.776C79.163 493.107 79.3976 493.485 79.5683 493.912C79.739 494.339 79.8243 494.771 79.8243 495.208C79.8243 495.677 79.7443 496.131 79.5843 496.568C79.4243 496.995 79.2003 497.373 78.9123 497.704C78.6243 498.035 78.2776 498.301 77.8723 498.504C77.4776 498.707 77.035 498.808 76.5443 498.808H72.8643V503H71.7443ZM72.8643 497.816H76.4963C76.827 497.816 77.1256 497.747 77.3923 497.608C77.6696 497.459 77.9043 497.267 78.0963 497.032C78.2883 496.787 78.4376 496.509 78.5443 496.2C78.651 495.88 78.7043 495.549 78.7043 495.208C78.7043 494.856 78.6403 494.525 78.5123 494.216C78.395 493.896 78.2296 493.619 78.0163 493.384C77.8136 493.149 77.5683 492.968 77.2803 492.84C77.003 492.701 76.7096 492.632 76.4003 492.632H72.8643V497.816ZM88.4814 503H87.3934V498.344C87.3934 497.395 87.2281 496.685 86.8974 496.216C86.5774 495.747 86.1028 495.512 85.4734 495.512C85.1641 495.512 84.8548 495.576 84.5454 495.704C84.2468 495.821 83.9641 495.987 83.6974 496.2C83.4308 496.413 83.1961 496.664 82.9934 496.952C82.8014 497.24 82.6574 497.555 82.5614 497.896V503H81.4734V491.32H82.5614V496.552C82.8921 495.923 83.3508 495.427 83.9374 495.064C84.5241 494.701 85.1588 494.52 85.8414 494.52C86.3214 494.52 86.7268 494.611 87.0574 494.792C87.3881 494.963 87.6601 495.208 87.8734 495.528C88.0868 495.837 88.2414 496.216 88.3374 496.664C88.4334 497.101 88.4814 497.587 88.4814 498.12V503ZM94.3536 503.16C93.7456 503.16 93.1909 503.048 92.6896 502.824C92.1882 502.589 91.7509 502.275 91.3776 501.88C91.0149 501.485 90.7322 501.027 90.5296 500.504C90.3269 499.981 90.2256 499.432 90.2256 498.856C90.2256 498.269 90.3269 497.715 90.5296 497.192C90.7429 496.669 91.0309 496.211 91.3936 495.816C91.7669 495.421 92.2042 495.107 92.7056 494.872C93.2069 494.637 93.7562 494.52 94.3536 494.52C94.9509 494.52 95.5002 494.637 96.0016 494.872C96.5136 495.107 96.9509 495.421 97.3136 495.816C97.6869 496.211 97.9749 496.669 98.1776 497.192C98.3909 497.715 98.4976 498.269 98.4976 498.856C98.4976 499.432 98.3962 499.981 98.1936 500.504C97.9909 501.027 97.7029 501.485 97.3296 501.88C96.9669 502.275 96.5296 502.589 96.0176 502.824C95.5162 503.048 94.9616 503.16 94.3536 503.16ZM91.3296 498.872C91.3296 499.341 91.4096 499.779 91.5696 500.184C91.7296 500.579 91.9429 500.931 92.2096 501.24C92.4869 501.539 92.8069 501.773 93.1696 501.944C93.5429 502.115 93.9376 502.2 94.3536 502.2C94.7696 502.2 95.1589 502.115 95.5216 501.944C95.8949 501.763 96.2202 501.523 96.4976 501.224C96.7749 500.915 96.9936 500.557 97.1536 500.152C97.3136 499.747 97.3936 499.309 97.3936 498.84C97.3936 498.381 97.3136 497.949 97.1536 497.544C96.9936 497.128 96.7749 496.771 96.4976 496.472C96.2202 496.163 95.8949 495.923 95.5216 495.752C95.1589 495.571 94.7696 495.48 94.3536 495.48C93.9376 495.48 93.5482 495.571 93.1856 495.752C92.8229 495.923 92.5029 496.163 92.2256 496.472C91.9482 496.781 91.7296 497.144 91.5696 497.56C91.4096 497.965 91.3296 498.403 91.3296 498.872ZM107.325 503H106.237V498.344C106.237 497.352 106.088 496.632 105.789 496.184C105.501 495.736 105.053 495.512 104.445 495.512C104.125 495.512 103.805 495.571 103.485 495.688C103.165 495.805 102.867 495.971 102.589 496.184C102.323 496.397 102.083 496.653 101.869 496.952C101.656 497.24 101.501 497.555 101.405 497.896V503H100.317V494.664H101.309V496.552C101.651 495.944 102.136 495.453 102.765 495.08C103.405 494.707 104.099 494.52 104.845 494.52C105.304 494.52 105.693 494.605 106.013 494.776C106.333 494.947 106.589 495.187 106.781 495.496C106.973 495.805 107.112 496.184 107.197 496.632C107.283 497.08 107.325 497.576 107.325 498.12V503ZM113.245 503.16C112.637 503.16 112.077 503.048 111.565 502.824C111.064 502.589 110.627 502.275 110.253 501.88C109.88 501.475 109.587 501.011 109.373 500.488C109.171 499.965 109.069 499.405 109.069 498.808C109.069 498.221 109.171 497.672 109.373 497.16C109.587 496.637 109.875 496.184 110.237 495.8C110.611 495.405 111.053 495.096 111.565 494.872C112.077 494.637 112.632 494.52 113.229 494.52C113.837 494.52 114.392 494.637 114.893 494.872C115.405 495.096 115.843 495.405 116.205 495.8C116.568 496.195 116.851 496.648 117.053 497.16C117.256 497.672 117.357 498.216 117.357 498.792C117.357 498.877 117.357 498.963 117.357 499.048C117.357 499.133 117.352 499.192 117.341 499.224H110.205C110.237 499.672 110.339 500.088 110.509 500.472C110.691 500.845 110.92 501.171 111.197 501.448C111.475 501.725 111.789 501.944 112.141 502.104C112.504 502.253 112.888 502.328 113.293 502.328C113.56 502.328 113.827 502.291 114.093 502.216C114.36 502.141 114.605 502.04 114.829 501.912C115.053 501.784 115.256 501.629 115.437 501.448C115.619 501.256 115.757 501.048 115.853 500.824L116.797 501.08C116.669 501.389 116.488 501.672 116.253 501.928C116.019 502.173 115.747 502.392 115.437 502.584C115.128 502.765 114.787 502.904 114.413 503C114.04 503.107 113.651 503.16 113.245 503.16ZM116.317 498.392C116.285 497.944 116.179 497.539 115.997 497.176C115.827 496.803 115.603 496.483 115.325 496.216C115.059 495.949 114.744 495.741 114.381 495.592C114.029 495.443 113.651 495.368 113.245 495.368C112.84 495.368 112.456 495.443 112.093 495.592C111.731 495.741 111.411 495.949 111.133 496.216C110.867 496.483 110.648 496.803 110.477 497.176C110.317 497.549 110.221 497.955 110.189 498.392H116.317ZM124.458 493.72V503H123.338V491.64H124.202L131.722 501.096V491.656H132.842V503H131.866L124.458 493.72ZM138.916 503.16C138.308 503.16 137.753 503.048 137.252 502.824C136.751 502.589 136.313 502.275 135.94 501.88C135.577 501.485 135.295 501.027 135.092 500.504C134.889 499.981 134.788 499.432 134.788 498.856C134.788 498.269 134.889 497.715 135.092 497.192C135.305 496.669 135.593 496.211 135.956 495.816C136.329 495.421 136.767 495.107 137.268 494.872C137.769 494.637 138.319 494.52 138.916 494.52C139.513 494.52 140.063 494.637 140.564 494.872C141.076 495.107 141.513 495.421 141.876 495.816C142.249 496.211 142.537 496.669 142.74 497.192C142.953 497.715 143.06 498.269 143.06 498.856C143.06 499.432 142.959 499.981 142.756 500.504C142.553 501.027 142.265 501.485 141.892 501.88C141.529 502.275 141.092 502.589 140.58 502.824C140.079 503.048 139.524 503.16 138.916 503.16ZM135.892 498.872C135.892 499.341 135.972 499.779 136.132 500.184C136.292 500.579 136.505 500.931 136.772 501.24C137.049 501.539 137.369 501.773 137.732 501.944C138.105 502.115 138.5 502.2 138.916 502.2C139.332 502.2 139.721 502.115 140.084 501.944C140.457 501.763 140.783 501.523 141.06 501.224C141.337 500.915 141.556 500.557 141.716 500.152C141.876 499.747 141.956 499.309 141.956 498.84C141.956 498.381 141.876 497.949 141.716 497.544C141.556 497.128 141.337 496.771 141.06 496.472C140.783 496.163 140.457 495.923 140.084 495.752C139.721 495.571 139.332 495.48 138.916 495.48C138.5 495.48 138.111 495.571 137.748 495.752C137.385 495.923 137.065 496.163 136.788 496.472C136.511 496.781 136.292 497.144 136.132 497.56C135.972 497.965 135.892 498.403 135.892 498.872Z" fill="#3E5C01" fill-opacity="0.4"/>
<path d="M71.6115 568V556.64H72.7315V567.008H79.2915V568H71.6115ZM83.9239 568.16C83.3159 568.16 82.7612 568.048 82.2599 567.824C81.7585 567.589 81.3212 567.275 80.9479 566.88C80.5852 566.485 80.3025 566.027 80.0999 565.504C79.8972 564.981 79.7959 564.432 79.7959 563.856C79.7959 563.269 79.8972 562.715 80.0999 562.192C80.3132 561.669 80.6012 561.211 80.9639 560.816C81.3372 560.421 81.7745 560.107 82.2759 559.872C82.7772 559.637 83.3265 559.52 83.9239 559.52C84.5212 559.52 85.0705 559.637 85.5719 559.872C86.0839 560.107 86.5212 560.421 86.8839 560.816C87.2572 561.211 87.5452 561.669 87.7479 562.192C87.9612 562.715 88.0679 563.269 88.0679 563.856C88.0679 564.432 87.9665 564.981 87.7639 565.504C87.5612 566.027 87.2732 566.485 86.8999 566.88C86.5372 567.275 86.0999 567.589 85.5879 567.824C85.0865 568.048 84.5319 568.16 83.9239 568.16ZM80.8999 563.872C80.8999 564.341 80.9799 564.779 81.1399 565.184C81.2999 565.579 81.5132 565.931 81.7799 566.24C82.0572 566.539 82.3772 566.773 82.7399 566.944C83.1132 567.115 83.5079 567.2 83.9239 567.2C84.3399 567.2 84.7292 567.115 85.0919 566.944C85.4652 566.763 85.7905 566.523 86.0679 566.224C86.3452 565.915 86.5639 565.557 86.7239 565.152C86.8839 564.747 86.9639 564.309 86.9639 563.84C86.9639 563.381 86.8839 562.949 86.7239 562.544C86.5639 562.128 86.3452 561.771 86.0679 561.472C85.7905 561.163 85.4652 560.923 85.0919 560.752C84.7292 560.571 84.3399 560.48 83.9239 560.48C83.5079 560.48 83.1185 560.571 82.7559 560.752C82.3932 560.923 82.0732 561.163 81.7959 561.472C81.5185 561.781 81.2999 562.144 81.1399 562.56C80.9799 562.965 80.8999 563.403 80.8999 563.872ZM89.3115 563.808C89.3115 563.221 89.4128 562.667 89.6155 562.144C89.8182 561.621 90.1008 561.168 90.4635 560.784C90.8368 560.389 91.2795 560.08 91.7915 559.856C92.3035 559.632 92.8688 559.52 93.4875 559.52C94.2768 559.52 94.9648 559.701 95.5515 560.064C96.1382 560.416 96.5808 560.896 96.8795 561.504L95.8235 561.84C95.5888 561.413 95.2582 561.083 94.8315 560.848C94.4155 560.603 93.9515 560.48 93.4395 560.48C93.0128 560.48 92.6128 560.565 92.2395 560.736C91.8768 560.907 91.5568 561.141 91.2795 561.44C91.0128 561.728 90.7995 562.075 90.6395 562.48C90.4902 562.885 90.4155 563.328 90.4155 563.808C90.4155 564.277 90.4955 564.72 90.6555 565.136C90.8155 565.552 91.0342 565.915 91.3115 566.224C91.5888 566.523 91.9088 566.763 92.2715 566.944C92.6448 567.115 93.0395 567.2 93.4555 567.2C93.7222 567.2 93.9835 567.163 94.2395 567.088C94.5062 567.013 94.7515 566.912 94.9755 566.784C95.1995 566.645 95.3915 566.491 95.5515 566.32C95.7115 566.149 95.8235 565.968 95.8875 565.776L96.9595 566.096C96.8422 566.395 96.6715 566.672 96.4475 566.928C96.2235 567.173 95.9568 567.392 95.6475 567.584C95.3488 567.765 95.0128 567.904 94.6395 568C94.2768 568.107 93.8982 568.16 93.5035 568.16C92.8955 568.16 92.3355 568.048 91.8235 567.824C91.3115 567.589 90.8688 567.275 90.4955 566.88C90.1222 566.475 89.8288 566.011 89.6155 565.488C89.4128 564.965 89.3115 564.405 89.3115 563.808ZM100.765 568.16C100.37 568.16 100.002 568.096 99.6608 567.968C99.3301 567.829 99.0368 567.643 98.7808 567.408C98.5354 567.173 98.3434 566.901 98.2048 566.592C98.0661 566.272 97.9967 565.931 97.9967 565.568C97.9967 565.205 98.0821 564.869 98.2528 564.56C98.4234 564.251 98.6634 563.984 98.9728 563.76C99.2821 563.536 99.6501 563.365 100.077 563.248C100.503 563.12 100.973 563.056 101.485 563.056C101.911 563.056 102.343 563.093 102.781 563.168C103.218 563.243 103.607 563.349 103.949 563.488V562.736C103.949 562 103.741 561.419 103.325 560.992C102.909 560.555 102.333 560.336 101.597 560.336C101.17 560.336 100.733 560.421 100.285 560.592C99.8368 560.763 99.3834 561.008 98.9248 561.328L98.5408 560.608C99.6181 559.883 100.663 559.52 101.677 559.52C102.722 559.52 103.543 559.813 104.141 560.4C104.738 560.987 105.037 561.797 105.037 562.832V566.592C105.037 566.891 105.17 567.04 105.437 567.04V568C105.255 568.032 105.117 568.048 105.021 568.048C104.743 568.048 104.525 567.979 104.365 567.84C104.215 567.701 104.135 567.509 104.125 567.264L104.093 566.608C103.709 567.109 103.223 567.493 102.637 567.76C102.061 568.027 101.437 568.16 100.765 568.16ZM101.021 567.328C101.586 567.328 102.103 567.221 102.573 567.008C103.053 566.795 103.415 566.512 103.661 566.16C103.757 566.064 103.826 565.963 103.869 565.856C103.922 565.739 103.949 565.632 103.949 565.536V564.176C103.586 564.037 103.207 563.931 102.813 563.856C102.429 563.781 102.034 563.744 101.629 563.744C100.861 563.744 100.237 563.904 99.7568 564.224C99.2768 564.544 99.0368 564.965 99.0368 565.488C99.0368 565.744 99.0848 565.984 99.1808 566.208C99.2874 566.432 99.4261 566.629 99.5968 566.8C99.7781 566.96 99.9914 567.088 100.237 567.184C100.482 567.28 100.743 567.328 101.021 567.328ZM111.325 567.6C111.261 567.632 111.165 567.675 111.037 567.728C110.92 567.781 110.781 567.835 110.621 567.888C110.461 567.941 110.28 567.989 110.077 568.032C109.874 568.075 109.661 568.096 109.437 568.096C109.202 568.096 108.978 568.064 108.765 568C108.552 567.936 108.365 567.84 108.205 567.712C108.045 567.573 107.917 567.403 107.821 567.2C107.725 566.997 107.677 566.763 107.677 566.496V560.528H106.525V559.664H107.677V556.848H108.765V559.664H110.685V560.528H108.765V566.192C108.786 566.501 108.893 566.731 109.085 566.88C109.288 567.019 109.517 567.088 109.773 567.088C110.082 567.088 110.354 567.04 110.589 566.944C110.824 566.837 110.973 566.763 111.037 566.72L111.325 567.6ZM112.684 568V559.664H113.772V568H112.684ZM112.684 557.92V556.32H113.772V557.92H112.684ZM119.721 568.16C119.113 568.16 118.558 568.048 118.057 567.824C117.555 567.589 117.118 567.275 116.745 566.88C116.382 566.485 116.099 566.027 115.897 565.504C115.694 564.981 115.593 564.432 115.593 563.856C115.593 563.269 115.694 562.715 115.897 562.192C116.11 561.669 116.398 561.211 116.761 560.816C117.134 560.421 117.571 560.107 118.073 559.872C118.574 559.637 119.123 559.52 119.721 559.52C120.318 559.52 120.867 559.637 121.369 559.872C121.881 560.107 122.318 560.421 122.681 560.816C123.054 561.211 123.342 561.669 123.545 562.192C123.758 562.715 123.865 563.269 123.865 563.856C123.865 564.432 123.763 564.981 123.561 565.504C123.358 566.027 123.07 566.485 122.697 566.88C122.334 567.275 121.897 567.589 121.385 567.824C120.883 568.048 120.329 568.16 119.721 568.16ZM116.697 563.872C116.697 564.341 116.777 564.779 116.937 565.184C117.097 565.579 117.31 565.931 117.577 566.24C117.854 566.539 118.174 566.773 118.537 566.944C118.91 567.115 119.305 567.2 119.721 567.2C120.137 567.2 120.526 567.115 120.889 566.944C121.262 566.763 121.587 566.523 121.865 566.224C122.142 565.915 122.361 565.557 122.521 565.152C122.681 564.747 122.761 564.309 122.761 563.84C122.761 563.381 122.681 562.949 122.521 562.544C122.361 562.128 122.142 561.771 121.865 561.472C121.587 561.163 121.262 560.923 120.889 560.752C120.526 560.571 120.137 560.48 119.721 560.48C119.305 560.48 118.915 560.571 118.553 560.752C118.19 560.923 117.87 561.163 117.593 561.472C117.315 561.781 117.097 562.144 116.937 562.56C116.777 562.965 116.697 563.403 116.697 563.872ZM132.692 568H131.604V563.344C131.604 562.352 131.455 561.632 131.156 561.184C130.868 560.736 130.42 560.512 129.812 560.512C129.492 560.512 129.172 560.571 128.852 560.688C128.532 560.805 128.234 560.971 127.956 561.184C127.69 561.397 127.45 561.653 127.236 561.952C127.023 562.24 126.868 562.555 126.772 562.896V568H125.684V559.664H126.676V561.552C127.018 560.944 127.503 560.453 128.132 560.08C128.772 559.707 129.466 559.52 130.212 559.52C130.671 559.52 131.06 559.605 131.38 559.776C131.7 559.947 131.956 560.187 132.148 560.496C132.34 560.805 132.479 561.184 132.564 561.632C132.65 562.08 132.692 562.576 132.692 563.12V568Z" fill="#3E5C01" fill-opacity="0.4"/>
<path d="M71.6599 625.64L75.3719 631.752L79.1159 625.64H80.3319L75.9319 632.776V637H74.8119V632.744L70.4279 625.64H71.6599ZM83.8614 637.16C83.2534 637.16 82.6987 637.048 82.1974 636.824C81.696 636.589 81.2587 636.275 80.8854 635.88C80.5227 635.485 80.24 635.027 80.0374 634.504C79.8347 633.981 79.7334 633.432 79.7334 632.856C79.7334 632.269 79.8347 631.715 80.0374 631.192C80.2507 630.669 80.5387 630.211 80.9014 629.816C81.2747 629.421 81.712 629.107 82.2134 628.872C82.7147 628.637 83.264 628.52 83.8614 628.52C84.4587 628.52 85.008 628.637 85.5094 628.872C86.0214 629.107 86.4587 629.421 86.8214 629.816C87.1947 630.211 87.4827 630.669 87.6854 631.192C87.8987 631.715 88.0054 632.269 88.0054 632.856C88.0054 633.432 87.904 633.981 87.7014 634.504C87.4987 635.027 87.2107 635.485 86.8374 635.88C86.4747 636.275 86.0374 636.589 85.5254 636.824C85.024 637.048 84.4694 637.16 83.8614 637.16ZM80.8374 632.872C80.8374 633.341 80.9174 633.779 81.0774 634.184C81.2374 634.579 81.4507 634.931 81.7174 635.24C81.9947 635.539 82.3147 635.773 82.6774 635.944C83.0507 636.115 83.4454 636.2 83.8614 636.2C84.2774 636.2 84.6667 636.115 85.0294 635.944C85.4027 635.763 85.728 635.523 86.0054 635.224C86.2827 634.915 86.5014 634.557 86.6614 634.152C86.8214 633.747 86.9014 633.309 86.9014 632.84C86.9014 632.381 86.8214 631.949 86.6614 631.544C86.5014 631.128 86.2827 630.771 86.0054 630.472C85.728 630.163 85.4027 629.923 85.0294 629.752C84.6667 629.571 84.2774 629.48 83.8614 629.48C83.4454 629.48 83.056 629.571 82.6934 629.752C82.3307 629.923 82.0107 630.163 81.7334 630.472C81.456 630.781 81.2374 631.144 81.0774 631.56C80.9174 631.965 80.8374 632.403 80.8374 632.872ZM92.433 637.16C91.5263 637.16 90.849 636.861 90.401 636.264C89.9637 635.656 89.745 634.755 89.745 633.56V628.664H90.833V633.368C90.833 635.256 91.4783 636.2 92.769 636.2C93.089 636.2 93.4037 636.147 93.713 636.04C94.0223 635.933 94.305 635.779 94.561 635.576C94.8277 635.373 95.0623 635.133 95.265 634.856C95.4783 634.579 95.649 634.264 95.777 633.912V628.664H96.865V635.592C96.865 635.891 96.993 636.04 97.249 636.04V637C97.121 637.021 97.0143 637.032 96.929 637.032C96.8543 637.032 96.801 637.032 96.769 637.032C96.513 637.021 96.305 636.931 96.145 636.76C95.985 636.589 95.905 636.36 95.905 636.072V635.112C95.5423 635.763 95.0463 636.269 94.417 636.632C93.7983 636.984 93.137 637.16 92.433 637.16ZM103.485 629.624C102.749 629.645 102.109 629.848 101.565 630.232C101.021 630.616 100.637 631.144 100.413 631.816V637H99.325V628.664H100.349V630.664C100.658 630.024 101.074 629.523 101.597 629.16C102.12 628.797 102.68 628.616 103.277 628.616C103.362 628.616 103.432 628.621 103.485 628.632V629.624ZM108.846 637V625.64H113.55C114.041 625.64 114.489 625.747 114.894 625.96C115.31 626.163 115.667 626.435 115.966 626.776C116.265 627.107 116.499 627.485 116.67 627.912C116.841 628.339 116.926 628.771 116.926 629.208C116.926 629.677 116.846 630.131 116.686 630.568C116.526 630.995 116.302 631.373 116.014 631.704C115.726 632.035 115.379 632.301 114.974 632.504C114.579 632.707 114.137 632.808 113.646 632.808H109.966V637H108.846ZM109.966 631.816H113.598C113.929 631.816 114.227 631.747 114.494 631.608C114.771 631.459 115.006 631.267 115.198 631.032C115.39 630.787 115.539 630.509 115.646 630.2C115.753 629.88 115.806 629.549 115.806 629.208C115.806 628.856 115.742 628.525 115.614 628.216C115.497 627.896 115.331 627.619 115.118 627.384C114.915 627.149 114.67 626.968 114.382 626.84C114.105 626.701 113.811 626.632 113.502 626.632H109.966V631.816ZM120.593 637.16C120.198 637.16 119.83 637.096 119.489 636.968C119.158 636.829 118.865 636.643 118.609 636.408C118.364 636.173 118.172 635.901 118.033 635.592C117.894 635.272 117.825 634.931 117.825 634.568C117.825 634.205 117.91 633.869 118.081 633.56C118.252 633.251 118.492 632.984 118.801 632.76C119.11 632.536 119.478 632.365 119.905 632.248C120.332 632.12 120.801 632.056 121.313 632.056C121.74 632.056 122.172 632.093 122.609 632.168C123.046 632.243 123.436 632.349 123.777 632.488V631.736C123.777 631 123.569 630.419 123.153 629.992C122.737 629.555 122.161 629.336 121.425 629.336C120.998 629.336 120.561 629.421 120.113 629.592C119.665 629.763 119.212 630.008 118.753 630.328L118.369 629.608C119.446 628.883 120.492 628.52 121.505 628.52C122.55 628.52 123.372 628.813 123.969 629.4C124.566 629.987 124.865 630.797 124.865 631.832V635.592C124.865 635.891 124.998 636.04 125.265 636.04V637C125.084 637.032 124.945 637.048 124.849 637.048C124.572 637.048 124.353 636.979 124.193 636.84C124.044 636.701 123.964 636.509 123.953 636.264L123.921 635.608C123.537 636.109 123.052 636.493 122.465 636.76C121.889 637.027 121.265 637.16 120.593 637.16ZM120.849 636.328C121.414 636.328 121.932 636.221 122.401 636.008C122.881 635.795 123.244 635.512 123.489 635.16C123.585 635.064 123.654 634.963 123.697 634.856C123.75 634.739 123.777 634.632 123.777 634.536V633.176C123.414 633.037 123.036 632.931 122.641 632.856C122.257 632.781 121.862 632.744 121.457 632.744C120.689 632.744 120.065 632.904 119.585 633.224C119.105 633.544 118.865 633.965 118.865 634.488C118.865 634.744 118.913 634.984 119.009 635.208C119.116 635.432 119.254 635.629 119.425 635.8C119.606 635.96 119.82 636.088 120.065 636.184C120.31 636.28 120.572 636.328 120.849 636.328ZM129.984 637.16C129.333 637.16 128.698 637.053 128.08 636.84C127.461 636.627 126.928 636.317 126.48 635.912L126.976 635.176C127.445 635.56 127.92 635.848 128.4 636.04C128.89 636.232 129.413 636.328 129.968 636.328C130.64 636.328 131.173 636.195 131.568 635.928C131.973 635.651 132.176 635.261 132.176 634.76C132.176 634.525 132.122 634.333 132.016 634.184C131.909 634.024 131.749 633.885 131.536 633.768C131.333 633.651 131.072 633.549 130.752 633.464C130.442 633.368 130.08 633.272 129.664 633.176C129.184 633.059 128.768 632.941 128.416 632.824C128.064 632.707 127.77 632.573 127.536 632.424C127.312 632.275 127.141 632.093 127.024 631.88C126.917 631.656 126.864 631.379 126.864 631.048C126.864 630.632 126.944 630.264 127.104 629.944C127.274 629.624 127.498 629.363 127.776 629.16C128.064 628.947 128.394 628.787 128.768 628.68C129.152 628.573 129.557 628.52 129.984 628.52C130.624 628.52 131.205 628.627 131.728 628.84C132.25 629.043 132.672 629.315 132.992 629.656L132.464 630.296C132.154 629.976 131.776 629.736 131.328 629.576C130.89 629.416 130.432 629.336 129.952 629.336C129.664 629.336 129.397 629.368 129.152 629.432C128.906 629.485 128.688 629.576 128.496 629.704C128.314 629.832 128.17 629.997 128.064 630.2C127.957 630.392 127.904 630.621 127.904 630.888C127.904 631.112 127.941 631.293 128.016 631.432C128.09 631.571 128.213 631.693 128.384 631.8C128.554 631.896 128.768 631.987 129.024 632.072C129.29 632.147 129.61 632.227 129.984 632.312C130.517 632.44 130.986 632.568 131.392 632.696C131.797 632.824 132.133 632.973 132.4 633.144C132.677 633.315 132.885 633.523 133.024 633.768C133.162 634.013 133.232 634.312 133.232 634.664C133.232 635.432 132.938 636.04 132.352 636.488C131.765 636.936 130.976 637.16 129.984 637.16ZM137.781 637.16C137.13 637.16 136.495 637.053 135.877 636.84C135.258 636.627 134.725 636.317 134.277 635.912L134.773 635.176C135.242 635.56 135.717 635.848 136.197 636.04C136.687 636.232 137.21 636.328 137.765 636.328C138.437 636.328 138.97 636.195 139.365 635.928C139.77 635.651 139.973 635.261 139.973 634.76C139.973 634.525 139.919 634.333 139.813 634.184C139.706 634.024 139.546 633.885 139.333 633.768C139.13 633.651 138.869 633.549 138.549 633.464C138.239 633.368 137.877 633.272 137.461 633.176C136.981 633.059 136.565 632.941 136.213 632.824C135.861 632.707 135.567 632.573 135.333 632.424C135.109 632.275 134.938 632.093 134.821 631.88C134.714 631.656 134.661 631.379 134.661 631.048C134.661 630.632 134.741 630.264 134.901 629.944C135.071 629.624 135.295 629.363 135.573 629.16C135.861 628.947 136.191 628.787 136.565 628.68C136.949 628.573 137.354 628.52 137.781 628.52C138.421 628.52 139.002 628.627 139.525 628.84C140.047 629.043 140.469 629.315 140.789 629.656L140.261 630.296C139.951 629.976 139.573 629.736 139.125 629.576C138.687 629.416 138.229 629.336 137.749 629.336C137.461 629.336 137.194 629.368 136.949 629.432C136.703 629.485 136.485 629.576 136.293 629.704C136.111 629.832 135.967 629.997 135.861 630.2C135.754 630.392 135.701 630.621 135.701 630.888C135.701 631.112 135.738 631.293 135.812 631.432C135.887 631.571 136.01 631.693 136.181 631.8C136.351 631.896 136.565 631.987 136.821 632.072C137.087 632.147 137.407 632.227 137.781 632.312C138.314 632.44 138.783 632.568 139.189 632.696C139.594 632.824 139.93 632.973 140.197 633.144C140.474 633.315 140.682 633.523 140.821 633.768C140.959 634.013 141.029 634.312 141.029 634.664C141.029 635.432 140.735 636.04 140.149 636.488C139.562 636.936 138.773 637.16 137.781 637.16ZM153.149 628.664H154.221L150.637 637H149.741L147.949 632.744L146.173 637H145.277L141.693 628.664H142.749L145.789 635.88L147.373 632.072L145.949 628.68H146.861L147.949 631.4L149.037 628.68H149.965L148.541 632.072L150.125 635.88L153.149 628.664ZM158.924 637.16C158.316 637.16 157.761 637.048 157.26 636.824C156.759 636.589 156.321 636.275 155.948 635.88C155.585 635.485 155.303 635.027 155.1 634.504C154.897 633.981 154.796 633.432 154.796 632.856C154.796 632.269 154.897 631.715 155.1 631.192C155.313 630.669 155.601 630.211 155.964 629.816C156.337 629.421 156.775 629.107 157.276 628.872C157.777 628.637 158.327 628.52 158.924 628.52C159.521 628.52 160.071 628.637 160.572 628.872C161.084 629.107 161.521 629.421 161.884 629.816C162.257 630.211 162.545 630.669 162.748 631.192C162.961 631.715 163.068 632.269 163.068 632.856C163.068 633.432 162.967 633.981 162.764 634.504C162.561 635.027 162.273 635.485 161.9 635.88C161.537 636.275 161.1 636.589 160.588 636.824C160.087 637.048 159.532 637.16 158.924 637.16ZM155.9 632.872C155.9 633.341 155.98 633.779 156.14 634.184C156.3 634.579 156.513 634.931 156.78 635.24C157.057 635.539 157.377 635.773 157.74 635.944C158.113 636.115 158.508 636.2 158.924 636.2C159.34 636.2 159.729 636.115 160.092 635.944C160.465 635.763 160.791 635.523 161.068 635.224C161.345 634.915 161.564 634.557 161.724 634.152C161.884 633.747 161.964 633.309 161.964 632.84C161.964 632.381 161.884 631.949 161.724 631.544C161.564 631.128 161.345 630.771 161.068 630.472C160.791 630.163 160.465 629.923 160.092 629.752C159.729 629.571 159.34 629.48 158.924 629.48C158.508 629.48 158.119 629.571 157.756 629.752C157.393 629.923 157.073 630.163 156.796 630.472C156.519 630.781 156.3 631.144 156.14 631.56C155.98 631.965 155.9 632.403 155.9 632.872ZM169.048 629.624C168.312 629.645 167.672 629.848 167.128 630.232C166.584 630.616 166.2 631.144 165.976 631.816V637H164.888V628.664H165.912V630.664C166.221 630.024 166.637 629.523 167.16 629.16C167.682 628.797 168.242 628.616 168.84 628.616C168.925 628.616 168.994 628.621 169.048 628.632V629.624ZM173.499 637.16C172.923 637.16 172.39 637.043 171.899 636.808C171.408 636.563 170.987 636.243 170.635 635.848C170.283 635.453 170.006 635 169.803 634.488C169.611 633.965 169.515 633.421 169.515 632.856C169.515 632.269 169.611 631.715 169.803 631.192C169.995 630.659 170.256 630.195 170.587 629.8C170.928 629.405 171.328 629.096 171.787 628.872C172.256 628.637 172.768 628.52 173.323 628.52C174.027 628.52 174.651 628.707 175.195 629.08C175.739 629.443 176.166 629.885 176.475 630.408V625.32H177.563V635.592C177.563 635.891 177.691 636.04 177.947 636.04V637C177.787 637.032 177.659 637.048 177.563 637.048C177.307 637.048 177.083 636.968 176.891 636.808C176.699 636.637 176.603 636.435 176.603 636.2V635.384C176.272 635.928 175.824 636.36 175.259 636.68C174.694 637 174.107 637.16 173.499 637.16ZM173.739 636.2C174.006 636.2 174.288 636.147 174.587 636.04C174.896 635.933 175.184 635.789 175.451 635.608C175.718 635.416 175.942 635.197 176.123 634.952C176.315 634.696 176.432 634.424 176.475 634.136V631.56C176.368 631.272 176.214 631.005 176.011 630.76C175.808 630.504 175.574 630.28 175.307 630.088C175.051 629.896 174.774 629.747 174.475 629.64C174.176 629.533 173.883 629.48 173.595 629.48C173.147 629.48 172.742 629.576 172.379 629.768C172.016 629.96 171.702 630.216 171.435 630.536C171.179 630.845 170.982 631.203 170.843 631.608C170.704 632.013 170.635 632.429 170.635 632.856C170.635 633.304 170.715 633.731 170.875 634.136C171.035 634.541 171.254 634.899 171.531 635.208C171.808 635.507 172.134 635.747 172.507 635.928C172.891 636.109 173.302 636.2 173.739 636.2Z" fill="#3E5C01" fill-opacity="0.4"/>
<path d="M105.558 301.52C105.558 300.74 105.696 299.972 105.972 299.216C106.26 298.448 106.674 297.764 107.214 297.164C107.754 296.564 108.414 296.078 109.194 295.706C109.974 295.334 110.862 295.148 111.858 295.148C113.034 295.148 114.048 295.406 114.9 295.922C115.764 296.438 116.406 297.11 116.826 297.938L114.918 299.252C114.75 298.892 114.546 298.592 114.306 298.352C114.066 298.1 113.808 297.902 113.532 297.758C113.256 297.614 112.968 297.512 112.668 297.452C112.368 297.38 112.074 297.344 111.786 297.344C111.162 297.344 110.616 297.47 110.148 297.722C109.692 297.974 109.308 298.304 108.996 298.712C108.696 299.108 108.468 299.564 108.312 300.08C108.156 300.584 108.078 301.088 108.078 301.592C108.078 302.156 108.168 302.702 108.348 303.23C108.528 303.746 108.78 304.202 109.104 304.598C109.44 304.994 109.836 305.312 110.292 305.552C110.76 305.792 111.27 305.912 111.822 305.912C112.11 305.912 112.41 305.876 112.722 305.804C113.034 305.732 113.328 305.618 113.604 305.462C113.892 305.306 114.156 305.108 114.396 304.868C114.636 304.616 114.828 304.316 114.972 303.968L117.006 305.138C116.802 305.618 116.508 306.044 116.124 306.416C115.752 306.776 115.326 307.082 114.846 307.334C114.378 307.586 113.874 307.778 113.334 307.91C112.794 308.042 112.266 308.108 111.75 308.108C110.838 308.108 110.004 307.916 109.248 307.532C108.492 307.148 107.838 306.65 107.286 306.038C106.746 305.414 106.32 304.712 106.008 303.932C105.708 303.14 105.558 302.336 105.558 301.52ZM124.054 300.656C123.322 300.668 122.668 300.812 122.092 301.088C121.516 301.352 121.102 301.754 120.85 302.294V308H118.438V298.568H120.652V300.584C120.82 300.26 121.018 299.972 121.246 299.72C121.474 299.456 121.72 299.228 121.984 299.036C122.248 298.844 122.512 298.7 122.776 298.604C123.052 298.496 123.316 298.442 123.568 298.442C123.7 298.442 123.796 298.442 123.856 298.442C123.928 298.442 123.994 298.448 124.054 298.46V300.656ZM129.298 308.18C128.542 308.18 127.858 308.054 127.246 307.802C126.634 307.538 126.112 307.184 125.68 306.74C125.248 306.296 124.912 305.78 124.672 305.192C124.444 304.604 124.33 303.986 124.33 303.338C124.33 302.666 124.444 302.036 124.672 301.448C124.9 300.848 125.23 300.326 125.662 299.882C126.094 299.426 126.616 299.066 127.228 298.802C127.852 298.538 128.548 298.406 129.316 298.406C130.084 298.406 130.768 298.538 131.368 298.802C131.98 299.066 132.496 299.42 132.916 299.864C133.348 300.308 133.672 300.824 133.888 301.412C134.116 302 134.23 302.612 134.23 303.248C134.23 303.404 134.224 303.554 134.212 303.698C134.212 303.842 134.2 303.962 134.176 304.058H126.886C126.922 304.43 127.012 304.76 127.156 305.048C127.3 305.336 127.486 305.582 127.714 305.786C127.942 305.99 128.2 306.146 128.488 306.254C128.776 306.362 129.076 306.416 129.388 306.416C129.868 306.416 130.318 306.302 130.738 306.074C131.17 305.834 131.464 305.522 131.62 305.138L133.69 305.714C133.342 306.434 132.784 307.028 132.016 307.496C131.26 307.952 130.354 308.18 129.298 308.18ZM131.746 302.492C131.686 301.784 131.422 301.22 130.954 300.8C130.498 300.368 129.94 300.152 129.28 300.152C128.956 300.152 128.65 300.212 128.362 300.332C128.086 300.44 127.84 300.596 127.624 300.8C127.408 301.004 127.228 301.25 127.084 301.538C126.952 301.826 126.874 302.144 126.85 302.492H131.746ZM138.274 308.18C137.818 308.18 137.392 308.108 136.996 307.964C136.6 307.808 136.258 307.598 135.97 307.334C135.682 307.058 135.454 306.74 135.286 306.38C135.13 306.02 135.052 305.624 135.052 305.192C135.052 304.748 135.148 304.34 135.34 303.968C135.544 303.584 135.82 303.26 136.168 302.996C136.528 302.732 136.954 302.528 137.446 302.384C137.938 302.228 138.478 302.15 139.066 302.15C139.486 302.15 139.894 302.186 140.29 302.258C140.698 302.33 141.058 302.432 141.37 302.564V302.024C141.37 301.4 141.19 300.92 140.83 300.584C140.482 300.248 139.96 300.08 139.264 300.08C138.76 300.08 138.268 300.17 137.788 300.35C137.308 300.53 136.816 300.794 136.312 301.142L135.574 299.612C136.786 298.808 138.094 298.406 139.498 298.406C140.854 298.406 141.904 298.742 142.648 299.414C143.404 300.074 143.782 301.034 143.782 302.294V305.228C143.782 305.48 143.824 305.66 143.908 305.768C144.004 305.876 144.154 305.936 144.358 305.948V308C143.95 308.084 143.596 308.126 143.296 308.126C142.84 308.126 142.486 308.024 142.234 307.82C141.994 307.616 141.844 307.346 141.784 307.01L141.73 306.488C141.31 307.04 140.8 307.46 140.2 307.748C139.6 308.036 138.958 308.18 138.274 308.18ZM138.958 306.416C139.366 306.416 139.75 306.344 140.11 306.2C140.482 306.056 140.77 305.864 140.974 305.624C141.238 305.42 141.37 305.192 141.37 304.94V303.86C141.082 303.752 140.77 303.668 140.434 303.608C140.098 303.536 139.774 303.5 139.462 303.5C138.838 303.5 138.328 303.644 137.932 303.932C137.536 304.208 137.338 304.562 137.338 304.994C137.338 305.402 137.494 305.744 137.806 306.02C138.118 306.284 138.502 306.416 138.958 306.416ZM151.617 307.514C151.293 307.658 150.897 307.802 150.429 307.946C149.961 308.09 149.469 308.162 148.953 308.162C148.617 308.162 148.299 308.12 147.999 308.036C147.711 307.952 147.453 307.82 147.225 307.64C147.009 307.448 146.835 307.208 146.703 306.92C146.571 306.62 146.505 306.26 146.505 305.84V300.422H145.263V298.568H146.505V295.508H148.917V298.568H150.897V300.422H148.917V305.03C148.917 305.366 149.001 305.606 149.169 305.75C149.349 305.882 149.565 305.948 149.817 305.948C150.069 305.948 150.315 305.906 150.555 305.822C150.795 305.738 150.987 305.666 151.131 305.606L151.617 307.514ZM157.019 308.18C156.263 308.18 155.579 308.054 154.967 307.802C154.355 307.538 153.833 307.184 153.401 306.74C152.969 306.296 152.633 305.78 152.393 305.192C152.165 304.604 152.051 303.986 152.051 303.338C152.051 302.666 152.165 302.036 152.393 301.448C152.621 300.848 152.951 300.326 153.383 299.882C153.815 299.426 154.337 299.066 154.949 298.802C155.573 298.538 156.269 298.406 157.037 298.406C157.805 298.406 158.489 298.538 159.089 298.802C159.701 299.066 160.217 299.42 160.637 299.864C161.069 300.308 161.393 300.824 161.609 301.412C161.837 302 161.951 302.612 161.951 303.248C161.951 303.404 161.945 303.554 161.933 303.698C161.933 303.842 161.921 303.962 161.897 304.058H154.607C154.643 304.43 154.733 304.76 154.877 305.048C155.021 305.336 155.207 305.582 155.435 305.786C155.663 305.99 155.921 306.146 156.209 306.254C156.497 306.362 156.797 306.416 157.109 306.416C157.589 306.416 158.039 306.302 158.459 306.074C158.891 305.834 159.185 305.522 159.341 305.138L161.411 305.714C161.063 306.434 160.505 307.028 159.737 307.496C158.981 307.952 158.075 308.18 157.019 308.18ZM159.467 302.492C159.407 301.784 159.143 301.22 158.675 300.8C158.219 300.368 157.661 300.152 157.001 300.152C156.677 300.152 156.371 300.212 156.083 300.332C155.807 300.44 155.561 300.596 155.345 300.8C155.129 301.004 154.949 301.25 154.805 301.538C154.673 301.826 154.595 302.144 154.571 302.492H159.467ZM171.052 295.22H173.248L178.108 308H175.552L174.364 304.814H169.9L168.73 308H166.174L171.052 295.22ZM173.914 303.068L172.15 298.046L170.314 303.068H173.914ZM188.042 308H185.63V302.708C185.63 301.952 185.498 301.4 185.234 301.052C184.97 300.704 184.604 300.53 184.136 300.53C183.896 300.53 183.65 300.578 183.398 300.674C183.146 300.77 182.906 300.908 182.678 301.088C182.462 301.256 182.264 301.46 182.084 301.7C181.904 301.94 181.772 302.204 181.688 302.492V308H179.276V298.568H181.454V300.314C181.802 299.714 182.306 299.246 182.966 298.91C183.626 298.574 184.37 298.406 185.198 298.406C185.786 298.406 186.266 298.514 186.638 298.73C187.01 298.946 187.298 299.228 187.502 299.576C187.706 299.924 187.844 300.32 187.916 300.764C188 301.208 188.042 301.658 188.042 302.114V308ZM197.771 295.22H199.967L204.827 308H202.271L201.083 304.814H196.619L195.449 308H192.893L197.771 295.22ZM200.633 303.068L198.869 298.046L197.033 303.068H200.633ZM205.154 303.284C205.154 302.624 205.268 302 205.496 301.412C205.724 300.824 206.054 300.308 206.486 299.864C206.918 299.42 207.44 299.066 208.052 298.802C208.664 298.538 209.354 298.406 210.122 298.406C211.154 298.406 212.03 298.628 212.75 299.072C213.482 299.516 214.028 300.098 214.388 300.818L212.03 301.538C211.826 301.19 211.556 300.926 211.22 300.746C210.884 300.554 210.512 300.458 210.104 300.458C209.756 300.458 209.432 300.53 209.132 300.674C208.832 300.806 208.568 300.998 208.34 301.25C208.124 301.49 207.95 301.784 207.818 302.132C207.698 302.48 207.638 302.864 207.638 303.284C207.638 303.704 207.704 304.088 207.836 304.436C207.968 304.784 208.142 305.084 208.358 305.336C208.586 305.588 208.85 305.786 209.15 305.93C209.45 306.062 209.768 306.128 210.104 306.128C210.536 306.128 210.932 306.02 211.292 305.804C211.664 305.588 211.922 305.324 212.066 305.012L214.424 305.732C214.1 306.452 213.566 307.04 212.822 307.496C212.078 307.952 211.184 308.18 210.14 308.18C209.372 308.18 208.682 308.048 208.07 307.784C207.458 307.52 206.936 307.166 206.504 306.722C206.072 306.266 205.736 305.744 205.496 305.156C205.268 304.556 205.154 303.932 205.154 303.284ZM215.227 303.284C215.227 302.624 215.341 302 215.569 301.412C215.797 300.824 216.127 300.308 216.559 299.864C216.991 299.42 217.513 299.066 218.125 298.802C218.737 298.538 219.427 298.406 220.195 298.406C221.227 298.406 222.103 298.628 222.823 299.072C223.555 299.516 224.101 300.098 224.461 300.818L222.103 301.538C221.899 301.19 221.629 300.926 221.293 300.746C220.957 300.554 220.585 300.458 220.177 300.458C219.829 300.458 219.505 300.53 219.205 300.674C218.905 300.806 218.641 300.998 218.413 301.25C218.197 301.49 218.023 301.784 217.891 302.132C217.771 302.48 217.711 302.864 217.711 303.284C217.711 303.704 217.777 304.088 217.909 304.436C218.041 304.784 218.215 305.084 218.431 305.336C218.659 305.588 218.923 305.786 219.223 305.93C219.523 306.062 219.841 306.128 220.177 306.128C220.609 306.128 221.005 306.02 221.365 305.804C221.737 305.588 221.995 305.324 222.139 305.012L224.497 305.732C224.173 306.452 223.639 307.04 222.895 307.496C222.151 307.952 221.257 308.18 220.213 308.18C219.445 308.18 218.755 308.048 218.143 307.784C217.531 307.52 217.009 307.166 216.577 306.722C216.145 306.266 215.809 305.744 215.569 305.156C215.341 304.556 215.227 303.932 215.227 303.284ZM230.249 308.18C229.481 308.18 228.791 308.048 228.179 307.784C227.567 307.52 227.045 307.166 226.613 306.722C226.193 306.266 225.869 305.744 225.641 305.156C225.413 304.568 225.299 303.95 225.299 303.302C225.299 302.642 225.413 302.018 225.641 301.43C225.869 300.842 226.193 300.326 226.613 299.882C227.045 299.426 227.567 299.066 228.179 298.802C228.791 298.538 229.481 298.406 230.249 298.406C231.017 298.406 231.701 298.538 232.301 298.802C232.913 299.066 233.429 299.426 233.849 299.882C234.281 300.326 234.611 300.842 234.839 301.43C235.067 302.018 235.181 302.642 235.181 303.302C235.181 303.95 235.067 304.568 234.839 305.156C234.611 305.744 234.287 306.266 233.867 306.722C233.447 307.166 232.931 307.52 232.319 307.784C231.707 308.048 231.017 308.18 230.249 308.18ZM227.783 303.302C227.783 303.722 227.843 304.106 227.963 304.454C228.095 304.79 228.269 305.084 228.485 305.336C228.713 305.588 228.977 305.786 229.277 305.93C229.577 306.062 229.901 306.128 230.249 306.128C230.597 306.128 230.921 306.062 231.221 305.93C231.521 305.786 231.779 305.588 231.995 305.336C232.223 305.084 232.397 304.784 232.517 304.436C232.649 304.088 232.715 303.704 232.715 303.284C232.715 302.876 232.649 302.498 232.517 302.15C232.397 301.802 232.223 301.502 231.995 301.25C231.779 300.998 231.521 300.806 231.221 300.674C230.921 300.53 230.597 300.458 230.249 300.458C229.901 300.458 229.577 300.53 229.277 300.674C228.977 300.818 228.713 301.016 228.485 301.268C228.269 301.52 228.095 301.82 227.963 302.168C227.843 302.516 227.783 302.894 227.783 303.302ZM239.689 308.18C238.717 308.18 237.979 307.868 237.475 307.244C236.971 306.62 236.719 305.696 236.719 304.472V298.568H239.131V303.95C239.131 305.402 239.653 306.128 240.697 306.128C241.165 306.128 241.615 305.99 242.047 305.714C242.491 305.426 242.851 304.994 243.127 304.418V298.568H245.539V305.228C245.539 305.48 245.581 305.66 245.665 305.768C245.761 305.876 245.911 305.936 246.115 305.948V308C245.875 308.048 245.671 308.078 245.503 308.09C245.347 308.102 245.203 308.108 245.071 308.108C244.639 308.108 244.285 308.012 244.009 307.82C243.745 307.616 243.589 307.34 243.541 306.992L243.487 306.236C243.067 306.884 242.527 307.37 241.867 307.694C241.207 308.018 240.481 308.18 239.689 308.18ZM256.702 308H254.29V302.708C254.29 301.952 254.158 301.4 253.894 301.052C253.63 300.704 253.264 300.53 252.796 300.53C252.556 300.53 252.31 300.578 252.058 300.674C251.806 300.77 251.566 300.908 251.338 301.088C251.122 301.256 250.924 301.46 250.744 301.7C250.564 301.94 250.432 302.204 250.348 302.492V308H247.936V298.568H250.114V300.314C250.462 299.714 250.966 299.246 251.626 298.91C252.286 298.574 253.03 298.406 253.858 298.406C254.446 298.406 254.926 298.514 255.298 298.73C255.67 298.946 255.958 299.228 256.162 299.576C256.366 299.924 256.504 300.32 256.576 300.764C256.66 301.208 256.702 301.658 256.702 302.114V308ZM264.363 307.514C264.039 307.658 263.643 307.802 263.175 307.946C262.707 308.09 262.215 308.162 261.699 308.162C261.363 308.162 261.045 308.12 260.745 308.036C260.457 307.952 260.199 307.82 259.971 307.64C259.755 307.448 259.581 307.208 259.449 306.92C259.317 306.62 259.251 306.26 259.251 305.84V300.422H258.009V298.568H259.251V295.508H261.663V298.568H263.643V300.422H261.663V305.03C261.663 305.366 261.747 305.606 261.915 305.75C262.095 305.882 262.311 305.948 262.563 305.948C262.815 305.948 263.061 305.906 263.301 305.822C263.541 305.738 263.733 305.666 263.877 305.606L264.363 307.514Z" fill="black"/>
<path d="M181.5 168V149.4C179 152.52 174 156.36 164.15 159.24C164.15 159.24 166.65 152.4 173.7 147.8C167.2 148.92 157.4 148.76 144 144C144 144 156.35 138.36 170.4 139.88C162.45 136 152.5 128.32 144.85 112.44C144.85 112.44 167.35 117.36 178.55 132.56C168.4 112.96 184 88 184 88C196.15 109.88 193.55 124.4 189.6 132.4C200.85 117.32 223.15 112.44 223.15 112.44C215.5 128.32 205.55 136 197.6 139.88C211.65 138.36 224 144 224 144C210.6 148.76 200.8 148.92 194.3 147.8C201.35 152.4 203.85 159.24 203.85 159.24C194 156.36 189 152.52 186.5 149.4V168H181.5Z" fill="white"/>
<path d="M302.664 55.2773C304.88 55.2774 307.011 56.1289 308.617 57.6557C308.738 57.7735 308.931 57.772 309.05 57.6523L310.206 56.4857C310.267 56.4249 310.3 56.3427 310.3 56.2571C310.299 56.1715 310.265 56.0897 310.204 56.0297C305.988 51.9901 299.339 51.9901 295.124 56.0297C295.063 56.0896 295.028 56.1715 295.027 56.257C295.027 56.3426 295.06 56.4249 295.121 56.4857L296.277 57.6523C296.396 57.7722 296.589 57.7737 296.71 57.6557C298.316 56.1288 300.448 55.2773 302.664 55.2773Z" fill="black"/>
<path d="M302.664 59.073C303.881 59.0729 305.055 59.5255 305.958 60.3427C306.08 60.4587 306.272 60.4562 306.391 60.337L307.546 59.1704C307.607 59.1092 307.64 59.0261 307.639 58.9399C307.639 58.8536 307.603 58.7713 307.541 58.7114C304.793 56.155 300.537 56.155 297.789 58.7114C297.727 58.7713 297.691 58.8537 297.69 58.9399C297.69 59.0262 297.723 59.1092 297.784 59.1704L298.939 60.337C299.058 60.4562 299.25 60.4587 299.372 60.3427C300.274 59.526 301.447 59.0735 302.664 59.073Z" fill="black"/>
<path d="M304.883 61.8573C304.945 61.7967 304.979 61.7133 304.977 61.6268C304.975 61.5403 304.938 61.4584 304.874 61.4003C303.598 60.3215 301.73 60.3215 300.454 61.4003C300.39 61.4583 300.352 61.5403 300.351 61.6268C300.349 61.7133 300.383 61.7967 300.444 61.8573L302.442 63.873C302.501 63.9323 302.581 63.9656 302.664 63.9656C302.747 63.9656 302.827 63.9323 302.885 63.873L304.883 61.8573Z" fill="black"/>
<path d="M274 60.0027H275C275.552 60.0027 276 60.4504 276 61.0027V63.0027C276 63.555 275.552 64.0027 275 64.0027H274C273.448 64.0027 273 63.555 273 63.0027V61.0027C273 60.4504 273.448 60.0027 274 60.0027Z" fill="black"/>
<path d="M278.667 58.0027H279.667C280.219 58.0027 280.667 58.4504 280.667 59.0027V63.0027C280.667 63.555 280.219 64.0027 279.667 64.0027H278.667C278.114 64.0027 277.667 63.555 277.667 63.0027V59.0027C277.667 58.4504 278.114 58.0027 278.667 58.0027Z" fill="black"/>
<path d="M283.334 55.6693H284.334C284.886 55.6693 285.334 56.117 285.334 56.6693V63.0026C285.334 63.5549 284.886 64.0026 284.334 64.0026H283.334C282.781 64.0026 282.333 63.5549 282.333 63.0026V56.6693C282.333 56.117 282.781 55.6693 283.334 55.6693Z" fill="black"/>
<path d="M288 53.3359H289C289.552 53.3359 290 53.7837 290 54.3359V63.0026C290 63.5549 289.552 64.0026 289 64.0026H288C287.448 64.0026 287 63.5549 287 63.0026V54.3359C287 53.7837 287.448 53.3359 288 53.3359V53.3359Z" fill="black"/>
<rect opacity="0.35" x="315.5" y="53.5" width="21" height="10.3333" rx="2.16667" stroke="black"/>
<path opacity="0.4" d="M338 56.6666V60.6666C338.805 60.3278 339.328 59.5398 339.328 58.6666C339.328 57.7935 338.805 57.0054 338 56.6666Z" fill="black"/>
<rect x="317" y="55" width="18" height="7.33333" rx="1.33333" fill="black"/>
<path d="M49.7675 57V55.065H53.3825V66H51.2225V57H49.7675ZM55.837 63.63C56.797 62.83 57.562 62.165 58.132 61.635C58.702 61.095 59.177 60.535 59.557 59.955C59.937 59.375 60.127 58.805 60.127 58.245C60.127 57.735 60.007 57.335 59.767 57.045C59.527 56.755 59.157 56.61 58.657 56.61C58.157 56.61 57.772 56.78 57.502 57.12C57.232 57.45 57.092 57.905 57.082 58.485H55.042C55.082 57.285 55.437 56.375 56.107 55.755C56.787 55.135 57.647 54.825 58.687 54.825C59.827 54.825 60.702 55.13 61.312 55.74C61.922 56.34 62.227 57.135 62.227 58.125C62.227 58.905 62.017 59.65 61.5971 60.36C61.177 61.07 60.697 61.69 60.157 62.22C59.617 62.74 58.912 63.37 58.042 64.11H62.4671V65.85H55.057V64.29L55.837 63.63ZM64.6803 66.105C64.3003 66.105 63.9853 65.99 63.7353 65.76C63.4953 65.52 63.3753 65.225 63.3753 64.875C63.3753 64.525 63.4953 64.235 63.7353 64.005C63.9853 63.765 64.3003 63.645 64.6803 63.645C65.0503 63.645 65.3553 63.765 65.5953 64.005C65.8353 64.235 65.9553 64.525 65.9553 64.875C65.9553 65.225 65.8353 65.52 65.5953 65.76C65.3553 65.99 65.0503 66.105 64.6803 66.105ZM64.6803 59.895C64.3003 59.895 63.9853 59.78 63.7353 59.55C63.4953 59.31 63.3753 59.015 63.3753 58.665C63.3753 58.315 63.4953 58.025 63.7353 57.795C63.9853 57.555 64.3003 57.435 64.6803 57.435C65.0503 57.435 65.3553 57.555 65.5953 57.795C65.8353 58.025 65.9553 58.315 65.9553 58.665C65.9553 59.015 65.8353 59.31 65.5953 59.55C65.3553 59.78 65.0503 59.895 64.6803 59.895ZM67.2008 57.945C67.2508 56.945 67.6008 56.175 68.2508 55.635C68.9108 55.085 69.7758 54.81 70.8458 54.81C71.5758 54.81 72.2008 54.94 72.7208 55.2C73.2408 55.45 73.6308 55.795 73.8908 56.235C74.1608 56.665 74.2958 57.155 74.2958 57.705C74.2958 58.335 74.1308 58.87 73.8008 59.31C73.4808 59.74 73.0958 60.03 72.6458 60.18V60.24C73.2258 60.42 73.6758 60.74 73.9958 61.2C74.3258 61.66 74.4908 62.25 74.4908 62.97C74.4908 63.57 74.3508 64.105 74.0708 64.575C73.8008 65.045 73.3958 65.415 72.8558 65.685C72.3258 65.945 71.6858 66.075 70.9358 66.075C69.8058 66.075 68.8858 65.79 68.1758 65.22C67.4658 64.65 67.0908 63.81 67.0508 62.7H69.0908C69.1108 63.19 69.2758 63.585 69.5858 63.885C69.9058 64.175 70.3408 64.32 70.8908 64.32C71.4008 64.32 71.7908 64.18 72.0608 63.9C72.3408 63.61 72.4808 63.24 72.4808 62.79C72.4808 62.19 72.2908 61.76 71.9108 61.5C71.5308 61.24 70.9408 61.11 70.1408 61.11H69.7058V59.385H70.1408C71.5608 59.385 72.2708 58.91 72.2708 57.96C72.2708 57.53 72.1408 57.195 71.8808 56.955C71.6308 56.715 71.2658 56.595 70.7858 56.595C70.3158 56.595 69.9508 56.725 69.6908 56.985C69.4408 57.235 69.2958 57.555 69.2558 57.945H67.2008ZM75.8703 60.39C75.8703 58.66 76.1803 57.305 76.8003 56.325C77.4303 55.345 78.4703 54.855 79.9203 54.855C81.3703 54.855 82.4053 55.345 83.0253 56.325C83.6553 57.305 83.9703 58.66 83.9703 60.39C83.9703 62.13 83.6553 63.495 83.0253 64.485C82.4053 65.475 81.3703 65.97 79.9203 65.97C78.4703 65.97 77.4303 65.475 76.8003 64.485C76.1803 63.495 75.8703 62.13 75.8703 60.39ZM81.9003 60.39C81.9003 59.65 81.8503 59.03 81.7503 58.53C81.6603 58.02 81.4703 57.605 81.1803 57.285C80.9003 56.965 80.4803 56.805 79.9203 56.805C79.3603 56.805 78.9353 56.965 78.6453 57.285C78.3653 57.605 78.1753 58.02 78.0753 58.53C77.9853 59.03 77.9403 59.65 77.9403 60.39C77.9403 61.15 77.9853 61.79 78.0753 62.31C78.1653 62.82 78.3553 63.235 78.6453 63.555C78.9353 63.865 79.3603 64.02 79.9203 64.02C80.4803 64.02 80.9053 63.865 81.1953 63.555C81.4853 63.235 81.6753 62.82 81.7653 62.31C81.8553 61.79 81.9003 61.15 81.9003 60.39Z" fill="black"/>
</svg>
