<svg width="30" height="26" viewBox="0 0 30 26" fill="none" xmlns="http://www.w3.org/2000/svg">
<path d="M29.9418 3.71215C28.819 4.20575 27.6297 4.53173 26.4121 4.67965C27.6956 3.90931 28.6565 2.69998 29.1168 1.27559C27.9028 1.97966 26.5815 2.47974 25.2056 2.7559C24.2803 1.76727 23.0546 1.11165 21.7186 0.890746C20.3827 0.669847 19.0112 0.896024 17.8169 1.53419C16.6227 2.17235 15.6724 3.18682 15.1136 4.4202C14.5547 5.65358 14.4185 7.03692 14.7262 8.35559C9.61399 8.11653 5.08212 5.66028 2.05118 1.94965C1.49944 2.88798 1.21088 3.95771 1.21587 5.04622C1.21512 6.05812 1.46425 7.05455 1.94116 7.94702C2.41806 8.8395 3.10797 9.6004 3.94962 10.1622C2.97427 10.1327 2.02016 9.87003 1.16712 9.39622V9.47028C1.16682 10.8906 1.65763 12.2674 2.55636 13.3672C3.45509 14.467 4.70645 15.2223 6.09837 15.505C5.57111 15.6458 5.02787 15.718 4.48212 15.7197C4.08743 15.7197 3.71056 15.6812 3.33462 15.6118C3.73074 16.8341 4.49806 17.9024 5.52978 18.6681C6.5615 19.4339 7.80629 19.8589 9.09087 19.884C6.91438 21.5885 4.22879 22.5132 1.46431 22.51C0.974655 22.5119 0.485332 22.4844 -0.00100708 22.4275C2.81908 24.2345 6.09871 25.1937 9.44806 25.1912C20.7609 25.1912 26.9427 15.8209 26.9427 7.7059C26.9427 7.44715 26.9427 7.18372 26.9231 6.91934C28.1323 6.05267 29.1745 4.97398 29.999 3.73559L29.9418 3.71215Z" fill="#3E5C01" fill-opacity="0.4"/>
</svg>
